<svg width="100" height="100" viewBox="0 0 100 100" fill="none" xmlns="http://www.w3.org/2000/svg">
<path d="M81.44 63.8738L81.4398 63.8739C78.9754 64.397 76.4447 64.661 73.9228 64.661C60.1005 64.661 47.999 56.8427 44.4153 45.7597C41.6284 37.1351 44.3265 28.0869 51.7 21.5441L51.7001 21.544L54.1453 19.374L55.1863 18.4502L53.7954 18.5003L50.238 18.6286C50.2379 18.6286 50.2379 18.6287 50.2379 18.6287C47.4671 18.7279 44.7191 19.0843 42.0723 19.6847L42.072 19.6847C22.279 24.1866 10.3862 41.4128 15.8103 58.1937L16.2572 58.0492L15.8103 58.1937C20.2302 71.865 35.0585 81.3333 51.7927 81.3333C55.0743 81.3333 58.3584 80.9647 61.5551 80.2381L61.5552 80.2381C70.707 78.1572 78.517 73.2749 83.5291 66.4698L85.4025 63.9279L86.1823 62.8699L84.8964 63.1421L81.44 63.8738ZM53.1908 34.1618L53.1814 35.1323L59.9569 36.8849L61.8824 42.5656L62.337 43.9069L62.8253 42.5775L64.8993 36.9302L71.7234 35.304L71.7325 34.3335L64.9568 32.5832L63.0301 26.9025L62.5754 25.5619L62.0873 26.8907L60.0132 32.5369L53.1908 34.1618ZM68.579 44.3318L68.6027 45.302L73.3503 46.3585L74.8623 50.2361L75.3769 51.5556L75.8048 50.2055L77.0529 46.2673L81.7133 44.9899L81.6899 44.0197L76.9421 42.961L75.4271 39.083L74.9115 37.7631L74.4846 39.1143L73.2406 43.0523L68.579 44.3318ZM60.5766 76.9271C57.6996 77.5801 54.7441 77.9113 51.7929 77.9113C36.6938 77.9113 23.4683 69.37 19.5496 57.2516C14.7704 42.4686 25.1995 27.0565 43.0491 23.0009C43.9091 22.8058 44.7813 22.6391 45.6623 22.5017C39.8318 29.4942 37.9484 38.2662 40.676 46.7033C44.7609 59.3391 58.4668 68.0845 73.9228 68.0845C75.0816 68.0845 76.2411 68.0346 77.3963 67.9358C73.0447 72.2747 67.2156 75.416 60.5766 76.9271Z" fill="white" stroke="white"/>
</svg>
