<svg width="100" height="100" viewBox="0 0 100 100" fill="none" xmlns="http://www.w3.org/2000/svg">
<path d="M79.4234 27.427C80.3363 24.6872 80.1655 22.5754 78.9088 21.0907C77.4249 19.8347 75.3128 19.664 72.5726 20.5758C69.8327 21.4891 67.3782 23.0302 65.2088 25.1993L58.3596 32.0497L29.8921 25.2426C29.4354 25.0997 29.0073 25.2139 28.608 25.5848L23.1281 31.0649C22.8145 31.3792 22.6857 31.7645 22.743 32.2211C22.8286 32.6783 23.0714 33.0203 23.4708 33.2489L45.2181 45.1936L34.1302 56.2825L25.8252 54.0139C25.7682 53.9852 25.6544 53.9708 25.4831 53.9708C25.0833 53.9708 24.7554 54.099 24.4984 54.3561L20.3889 58.5087C20.1036 58.8504 19.9754 59.2075 20.0039 59.5782C20.0606 60.0348 20.246 60.3632 20.5603 60.5634L31.348 68.6544L39.4387 79.4428C39.6957 79.7574 40.0384 79.942 40.4664 80H40.5521C40.9518 80 41.2797 79.8718 41.5367 79.6152L45.646 75.5059C46.017 75.1056 46.1313 74.6633 45.9888 74.1782L43.7197 65.8725L54.8075 54.7829L66.7519 76.5332C66.9228 76.9043 67.2224 77.1326 67.6508 77.2183C67.7359 77.247 67.8359 77.2609 67.9505 77.2609C68.2922 77.2609 68.5638 77.1752 68.7633 77.0042L74.244 72.8944C74.7283 72.4951 74.8997 72.0245 74.7577 71.4821L67.9084 41.6845L74.8007 34.7919C76.9692 32.6219 78.5101 30.1668 79.4234 27.427Z" fill="white"/>
</svg>
