<svg width="100" height="100" viewBox="0 0 100 100" fill="none" xmlns="http://www.w3.org/2000/svg">
<path d="M82.7539 43.0518C80.5348 41.0462 78.0526 40.671 75.892 41.0504L76.0573 40.2311C76.0573 39.4241 76.0573 38.2134 75.1644 37.4065C74.2716 36.5995 73.3787 36.196 72.0392 36.196H18.0181C16.6788 36.196 15.7857 36.5995 14.8928 37.4065C14 38.2134 14 39.0204 14 40.2311L17.5716 57.9857C19.3573 67.67 28.733 74.9333 39.8943 74.9333H50.1627C61.2838 74.9333 70.6191 68.1178 72.4541 58.0905C73.2489 58.2639 73.9899 58.3892 74.7175 58.3892C78.2891 58.3892 81.4143 56.7752 83.2 53.9506C85.8791 50.315 85.4326 45.473 82.7539 43.0518V43.0518ZM50.1627 71.2977H39.8943C30.9653 71.2977 23.3754 65.6484 22.0361 57.5782L18.9109 40.6306H71.1459L68.0207 57.5782C66.6814 65.6487 59.092 71.2977 50.1627 71.2977V71.2977ZM79.1822 51.5257C78.4143 52.9177 76.642 54.2979 73.3113 53.8824L75.0926 45.0252C76.0747 44.4925 77.5035 43.9557 79.182 45.473C80.5215 46.6834 80.5215 49.508 79.1822 51.5257Z" fill="white"/>
<path d="M32.3046 28.5254C32.3046 30.9465 33.6438 32.5605 33.6438 32.9639C34.0903 33.3674 34.5367 33.7709 35.4295 33.7709C35.876 33.7709 35.876 33.7709 36.7688 33.7709C38.1081 32.9639 38.1081 31.7533 37.6616 30.9463C37.6616 30.9463 36.7688 29.7358 36.7688 28.5251C36.7688 27.3144 37.6616 26.104 37.6616 26.104C37.6616 26.104 39.0009 24.0863 39.0009 21.6654C39.0009 19.2445 37.6616 17.6303 37.6616 17.2268C36.7688 16.0163 35.4293 16.0163 34.5364 16.4198C33.1972 17.2268 33.1972 18.4375 33.6436 19.2445C33.6436 19.2445 34.5364 20.4549 34.5364 21.6656C34.5364 22.8763 33.6436 24.0868 33.6436 24.0868C33.6436 24.0868 32.3046 26.1042 32.3046 28.5254V28.5254Z" fill="white"/>
<path d="M42.1266 28.5254C42.1266 30.9465 43.4659 32.9639 43.4659 32.9639C43.9123 33.3674 44.3587 33.7709 45.2516 33.7709C45.698 33.7709 46.1444 33.7709 46.5909 33.7709C47.9301 32.9639 47.9301 31.7533 47.4837 30.9463C47.4837 30.9463 46.5909 29.7358 46.5909 28.5251C46.5909 27.3144 47.4837 26.104 47.4837 26.104C47.4837 26.104 48.823 24.0863 48.823 21.6654C48.823 19.2445 47.4837 17.6303 47.4837 17.2268C46.5908 16.0163 45.2513 16.0163 44.3585 16.4198C43.0192 17.2268 43.0192 18.4375 43.4656 19.2445C43.4656 19.2445 44.3585 20.4549 44.3585 21.6656C44.3585 22.8763 43.4656 24.0868 43.4656 24.0868C43.4656 24.0868 42.1266 26.1042 42.1266 28.5254V28.5254Z" fill="white"/>
<path d="M51.9487 28.5254C51.9487 30.9465 53.288 32.9639 53.288 32.9639C53.7344 33.3674 54.1808 33.7709 55.0736 33.7709C55.5201 33.7709 55.9665 33.7709 56.4129 33.7709C57.7522 32.9639 57.7522 31.7533 57.3057 30.9463C57.3057 30.9463 56.4129 29.7358 56.4129 28.5251C56.4129 27.3144 57.3057 26.104 57.3057 26.104C57.3057 26.104 58.645 24.0863 58.645 21.6654C58.645 19.2445 57.3057 17.6303 57.3057 17.2268C56.4129 16.0163 55.5201 15.6129 54.1805 16.4198C52.8413 17.2268 52.8413 18.4375 53.2877 19.2445C53.2877 19.2445 54.1805 20.4549 54.1805 21.6656C54.1805 22.8763 53.2877 24.0868 53.2877 24.0868C53.2877 24.0868 51.9487 26.1042 51.9487 28.5254V28.5254Z" fill="white"/>
<path d="M75.2713 78.9647H17.2324C15.8931 78.9647 15 79.7716 15 80.9823C15 82.1928 15.8928 83 17.2324 83H75.2713C76.6106 83 77.5037 82.193 77.5037 80.9823C77.5034 79.7716 76.6106 78.9647 75.2713 78.9647Z" fill="white"/>
</svg>
