<?xml version="1.0" encoding="iso-8859-1"?>
<!-- Generator: Adobe Illustrator 21.0.0, SVG Export Plug-In . SVG Version: 6.00 Build 0)  -->
<svg version="1.1" id="Layer_1" xmlns="http://www.w3.org/2000/svg" xmlns:xlink="http://www.w3.org/1999/xlink" x="0px" y="0px"
	 viewBox="0 0 100.353 100.353" style="enable-background:new 0 0 100.353 100.353;" xml:space="preserve">
<path d="M74.172,26.279v-8.17c0-0.829-0.671-1.5-1.5-1.5H15.565c-0.829,0-1.5,0.671-1.5,1.5v31.29
	c0,15.052,4.647,28.732,12.431,36.595c0.282,0.285,0.666,0.445,1.066,0.445h33.11c0.4,0,0.784-0.16,1.066-0.445
	c5.31-5.364,9.157-13.436,11.069-22.8C80.948,63.12,87.55,56.48,87.55,48.32v-7.24C87.55,33.383,81.674,27.033,74.172,26.279z
	 M17.065,19.609h54.107v29.79c0,8.793-1.738,17.246-4.78,24.113H21.843c-3.041-6.868-4.779-15.32-4.779-24.113L17.065,19.609
	L17.065,19.609z M60.035,83.439H28.198c-1.826-1.937-3.461-4.282-4.886-6.927h41.612C63.497,79.156,61.862,81.502,60.035,83.439z
	 M84.55,48.32c0,6.322-4.966,11.491-11.199,11.846c0.538-3.463,0.821-7.073,0.821-10.767v-20.09
	c5.842,0.741,10.377,5.732,10.377,11.772L84.55,48.32L84.55,48.32z"/>
</svg>
