<?xml version="1.0" ?><svg enable-background="new 0 0 512 512" height="512px" id="Layer_1" version="1.1" viewBox="0 0 512 512" width="512px" xml:space="preserve" xmlns="http://www.w3.org/2000/svg" xmlns:xlink="http://www.w3.org/1999/xlink"><g><circle cx="256" cy="256" fill="none" r="57" stroke="#fff" stroke-linecap="round" stroke-linejoin="round" stroke-miterlimit="10" stroke-width="10"/><path d="   M364.8,233.5h-24.3c-4.3-10.3-4.6-11.1-8.8-21.4l17.2-17.2L317,163.1l-17.2,17.2c-10.3-4.3-11.1-4.6-21.4-8.8v-24.3h-45v24.3   c-10.3,4.3-11.1,4.6-21.4,8.8L195,163.1L163.1,195l17.2,17.2c-4.3,10.3-4.6,11.1-8.8,21.4h-24.3v45h24.3   c4.3,10.3,4.6,11.1,8.8,21.4L163.1,317l31.8,31.8l17.2-17.2c10.3,4.3,11.1,4.6,21.4,8.8v24.3h45v-24.3c10.3-4.3,11.1-4.6,21.4-8.8   l17.2,17.2l31.8-31.8l-17.2-17.2c4.3-10.3,4.6-11.1,8.8-21.4h24.3V233.5z" fill="none" stroke="#fff" stroke-linecap="round" stroke-linejoin="round" stroke-miterlimit="10" stroke-width="10"/></g></svg>