<svg width="100" height="100" viewBox="0 0 100 100" fill="none" xmlns="http://www.w3.org/2000/svg">
<path d="M49.9551 47C49.1606 47 48.3987 47.3161 47.8369 47.8787C47.2752 48.4413 46.9596 49.2043 46.9596 50C46.9596 50.7956 47.2752 51.5587 47.8369 52.1213C48.3987 52.6839 49.1606 53 49.9551 53C50.7495 53 51.5114 52.6839 52.0732 52.1213C52.635 51.5587 52.9506 50.7956 52.9506 50C52.9506 49.2043 52.635 48.4413 52.0732 47.8787C51.5114 47.3161 50.7495 47 49.9551 47ZM51.4528 20C64.9326 20 65.2621 30.71 58.1927 34.25C55.2272 35.72 53.9091 38.87 53.34 41.66C54.7778 42.26 56.0359 43.19 56.9945 44.39C68.0779 38.39 80 40.76 80 51.5C80 65 69.306 65.3 65.7713 58.19C64.2736 55.22 61.0983 53.9 58.3125 53.33C57.7134 54.77 56.7848 56 55.5866 57.02C61.5477 68.09 59.1812 80 48.4573 80C34.9775 80 34.7079 69.26 41.7773 65.72C44.7129 64.25 46.031 61.13 46.6301 58.37C45.1623 57.77 43.8742 56.81 42.9156 55.61C31.8622 61.55 20 59.21 20 48.5C20 35 30.664 34.67 34.1987 41.78C35.6965 44.75 38.8417 46.04 41.6276 46.61C42.1967 45.17 43.1553 43.91 44.3834 42.95C38.4224 31.88 40.7888 20 51.4528 20Z" fill="white"/>
</svg>
