<svg id="Слой_1" data-name="Слой 1" xmlns="http://www.w3.org/2000/svg" viewBox="0 0 101 101"><title>log_Монтажная область 21</title><path d="M79.92,87.06,55.42,80l24.5-7.06a1.5,1.5,0,0,0-.83-2.88L50,78.44,20.92,70.06a1.5,1.5,0,0,0-.83,2.88L44.58,80l-24.5,7.06a1.5,1.5,0,0,0,.83,2.88L50,81.56l29.08,8.38a1.5,1.5,0,0,0,.83-2.88Z"/><path d="M33.92,69.83a1.5,1.5,0,1,0,1.4-2.65,24.4,24.4,0,0,1-11.81-21c0-15.76,11.33-31.41,26.92-37.9-3.13,5.84-8.32,17.41-4.89,24.64,1.63,3.43,4.9,5.47,9.72,6a9.51,9.51,0,0,0,8.28-2.61c3.63-3.63,4.42-10.2,4.48-14.84C71.81,27.49,77.82,39,76.24,50c-1,6.88-4.8,12.68-11.35,17.23a1.5,1.5,0,1,0,1.71,2.46c7.26-5,11.5-11.52,12.61-19.27C81.66,33.35,68,16.24,67.45,15.52a1.5,1.5,0,0,0-2.66,1.12c.43,3.53.65,13.57-3.39,17.62A6.58,6.58,0,0,1,55.6,36c-3.78-.45-6.19-1.87-7.36-4.35C45,24.78,52,11,55,6.3a1.5,1.5,0,0,0-1.71-2.24C34.31,9.9,20.5,27.62,20.5,46.2A27.09,27.09,0,0,0,33.92,69.83Z"/><path d="M49.65,51.87A1.5,1.5,0,1,0,50.35,49C35.14,45.26,37.49,30.39,37.6,29.76a1.5,1.5,0,0,0-2.7-1.12c-.18.25-4.4,6.36-4.4,17.25,0,12.64,10.71,19.59,11.17,19.88a1.5,1.5,0,0,0,1.61-2.53c-.1-.06-9.78-6.33-9.78-17.34a34.54,34.54,0,0,1,1.29-9.53C35.74,42,39.07,49.3,49.65,51.87Z"/></svg>