<svg width="100" height="100" viewBox="0 0 100 100" fill="none" xmlns="http://www.w3.org/2000/svg">
<path d="M35.8908 73C31.2852 65.65 33.7378 61.4384 37.2776 57.4705C41.154 53.125 42.153 48.8235 42.153 48.8235C42.153 48.8235 45.2003 51.8617 43.9813 56.6135C49.3648 52.0175 50.3808 44.6947 49.5678 41.8902C61.7365 48.4122 66.9371 62.5341 59.9284 73C97.2057 56.8241 69.2009 32.62 64.3253 29.8936C65.9505 32.6199 66.2588 37.2354 62.9757 39.4753C57.4181 23.3125 43.6767 20 43.6767 20C45.3019 28.3353 37.7856 37.4499 30.5375 44.2604C30.2829 40.9367 30.0124 38.6433 27.7335 35.4627C27.2219 41.5005 21.2055 46.4222 19.5763 52.4718C17.3694 60.6643 21.2293 66.6628 35.8908 73Z" fill="white"/>
</svg>
