<?xml version="1.0" encoding="iso-8859-1"?>
<!-- Generator: Adobe Illustrator 21.1.0, SVG Export Plug-In . SVG Version: 6.00 Build 0)  -->
<svg version="1.1" id="Layer_1" xmlns="http://www.w3.org/2000/svg" xmlns:xlink="http://www.w3.org/1999/xlink" x="0px" y="0px"
	 viewBox="0 0 100.353 100.353" style="enable-background:new 0 0 100.353 100.353;" xml:space="preserve">
<path d="M76.914,11.535c-0.59-0.233-1.274-0.061-1.692,0.422c-0.02,0.022-2.032,2.29-10.166,6.595
	c-8.255,4.373-31.344,18.606-32.401,19.261c-7.42,5.245-11.391,14.031-10.362,22.931c0.751,6.475,3.968,12.065,8.589,15.976
	l-6.486,9.513c-0.467,0.685-0.29,1.617,0.394,2.084c0.259,0.177,0.553,0.261,0.844,0.261c0.479,0,0.95-0.229,1.241-0.655
	l6.416-9.409c3.921,2.578,8.577,4.078,13.509,4.078c0.945,0,1.899-0.054,2.86-0.165c8.714-1.009,16.256-6.686,19.759-14.847
	c0.075-0.079,0.153-0.176,0.214-0.287c4.342-7.05,7.176-26.153,7.369-31.488c0.169-5.083,0.862-22.647,0.869-22.824
	C77.895,12.344,77.507,11.77,76.914,11.535z M25.273,60.4c-0.903-7.809,2.589-15.524,9.035-20.084
	c0.239-0.147,23.983-14.785,32.152-19.112c1.382-0.732,2.588-1.405,3.658-2.028L32.572,74.242
	C28.639,70.816,25.919,65.975,25.273,60.4z M67.165,65.573c-0.055,0.052-0.117,0.117-0.18,0.196c-0.087,0.109-0.158,0.23-0.212,0.36
	c-3.029,7.317-9.719,12.421-17.46,13.316c-5.23,0.606-10.248-0.713-14.345-3.393l39.71-58.238
	c-0.221,5.64-0.563,14.508-0.675,17.886C73.789,41.557,70.936,59.165,67.165,65.573z"/>
</svg>
