<svg width="100" height="100" viewBox="0 0 100 100" fill="none" xmlns="http://www.w3.org/2000/svg">
<path fill-rule="evenodd" clip-rule="evenodd" d="M60.2754 60.5925C53.691 65.4634 42.3559 67.0219 32.974 60.9071C35.1608 57.946 43.3367 47.9629 57.2987 43.1493L56.3503 41.1012C42.7431 45.7928 34.5467 54.8805 31.4916 58.8134C28.9107 53.6219 28.4348 48.5642 30.1696 44.0799C31.785 39.8956 35.2836 36.514 40.0189 34.5571C46.8183 31.7489 51.7822 31.3048 57.0378 30.8358C62.0409 30.3889 67.1856 29.9301 73.7376 27.3866C73.0774 36.5948 69.9507 53.4308 60.2754 60.5925ZM75.1995 21.8187C67.6001 25.4576 62.2132 25.9399 56.509 26.4486C51.0521 26.9352 45.4076 27.441 37.8082 30.58C31.8106 33.0559 27.3721 37.3564 25.3132 42.6861C23.0683 48.4996 23.7797 54.9702 27.2919 61.4878C23.5238 65.606 20.0115 71.3092 19 73H24.8032C26.1951 70.8137 28.3888 67.5689 30.6728 64.9341C35.7067 68.0026 41.1652 69.3243 46.3816 69.3243C52.9626 69.3243 59.1564 67.2351 63.6085 63.9373C75.7829 54.9275 79 33.7087 79 23.7462V20L75.1995 21.8187V21.8187Z" fill="white"/>
</svg>
