<?xml version="1.0" encoding="UTF-8" standalone="no"?> <svg width="48" height="48" viewBox="0 0 48 48" fill="none" xmlns="http://www.w3.org/2000/svg">
<path d="M42 25.09V24C42 19.2261 40.1036 14.6477 36.7279 11.2721C33.3523 7.89642 28.7739 6 24 6C19.2261 6 14.6477 7.89642 11.2721 11.2721C7.89642 14.6477 6 19.2261 6 24V25.09C4.60346 25.3273 3.33573 26.0505 2.4208 27.132C1.50587 28.2134 1.00263 29.5834 1 31V34C1.00156 35.4454 1.52481 36.8416 2.47355 37.932C3.42228 39.0223 4.73274 39.7336 6.164 39.935C6.3593 40.5338 6.73854 41.0558 7.24774 41.4266C7.75693 41.7973 8.37012 41.998 9 42H11C11.7956 42 12.5587 41.6839 13.1213 41.1213C13.6839 40.5587 14 39.7956 14 39V26C14 25.2044 13.6839 24.4413 13.1213 23.8787C12.5587 23.3161 11.7956 23 11 23H9C8.67341 23.0037 8.34969 23.0614 8.042 23.171C8.24704 19.0769 10.0178 15.2181 12.988 12.3929C15.9583 9.56774 19.9007 7.9922 24 7.9922C28.0993 7.9922 32.0417 9.56774 35.012 12.3929C37.9822 15.2181 39.753 19.0769 39.958 23.171C39.6503 23.0614 39.3266 23.0037 39 23H37C36.2044 23 35.4413 23.3161 34.8787 23.8787C34.3161 24.4413 34 25.2044 34 26V39C34 39.7956 34.3161 40.5587 34.8787 41.1213C35.4413 41.6839 36.2044 42 37 42H39C39.6299 41.998 40.2431 41.7973 40.7523 41.4266C41.2615 41.0558 41.6407 40.5338 41.836 39.935C43.2673 39.7336 44.5777 39.0223 45.5265 37.932C46.4752 36.8416 46.9984 35.4454 47 34V31C46.9974 29.5834 46.4941 28.2134 45.5792 27.132C44.6643 26.0505 43.3965 25.3273 42 25.09V25.09ZM3 34V31C3.00331 30.1158 3.29951 29.2576 3.8423 28.5596C4.38508 27.8615 5.14386 27.363 6 27.142V37.858C5.14386 37.637 4.38508 37.1385 3.8423 36.4404C3.29951 35.7424 3.00331 34.8842 3 34ZM9 25H11C11.2652 25 11.5196 25.1054 11.7071 25.2929C11.8946 25.4804 12 25.7348 12 26V39C12 39.2652 11.8946 39.5196 11.7071 39.7071C11.5196 39.8946 11.2652 40 11 40H9C8.73478 40 8.48043 39.8946 8.29289 39.7071C8.10536 39.5196 8 39.2652 8 39V26C8 25.7348 8.10536 25.4804 8.29289 25.2929C8.48043 25.1054 8.73478 25 9 25V25ZM39 40H37C36.7348 40 36.4804 39.8946 36.2929 39.7071C36.1054 39.5196 36 39.2652 36 39V26C36 25.7348 36.1054 25.4804 36.2929 25.2929C36.4804 25.1054 36.7348 25 37 25H39C39.2652 25 39.5196 25.1054 39.7071 25.2929C39.8946 25.4804 40 25.7348 40 26V39C40 39.2652 39.8946 39.5196 39.7071 39.7071C39.5196 39.8946 39.2652 40 39 40ZM45 34C44.9967 34.8842 44.7005 35.7424 44.1577 36.4404C43.6149 37.1385 42.8561 37.637 42 37.858V27.142C42.8561 27.363 43.6149 27.8615 44.1577 28.5596C44.7005 29.2576 44.9967 30.1158 45 31V34Z" fill="black"/>
</svg>
