<svg width="100" height="100" viewBox="0 0 100 100" fill="none" xmlns="http://www.w3.org/2000/svg">
<path d="M58.75 74.6296C57.5403 74.6296 56.5625 75.7781 56.5625 77.2481V82.3815C56.5625 83.8281 57.5316 85 58.75 85C59.9597 85 60.9375 83.8515 60.9375 82.3815V77.2481C60.9375 75.8015 59.9684 74.6296 58.75 74.6296Z" fill="white"/>
<path d="M41.25 74.6296C40.0403 74.6296 39.0625 75.7781 39.0625 77.2481V82.3815C39.0625 83.8281 40.0338 85 41.25 85C42.4597 85 43.4375 83.8515 43.4375 82.3815V77.2481C43.4375 75.8015 42.4662 74.6296 41.25 74.6296Z" fill="white"/>
<path d="M67.5 69.4444C66.2903 69.4444 65.3125 70.593 65.3125 72.063V77.1963C65.3125 78.643 66.2816 79.8148 67.5 79.8148C68.7097 79.8148 69.6875 78.6663 69.6875 77.1963V72.063C69.6875 70.6163 68.7184 69.4444 67.5 69.4444Z" fill="white"/>
<path d="M50 69.4444C48.7903 69.4444 47.8125 70.593 47.8125 72.063V77.1963C47.8125 78.643 48.7838 79.8148 50 79.8148C51.2097 79.8148 52.1875 78.6663 52.1875 77.1963V72.063C52.1875 70.6163 51.2184 69.4444 50 69.4444Z" fill="white"/>
<path d="M32.5 69.4444C31.2903 69.4444 30.3125 70.593 30.3125 72.063V77.1963C30.3125 78.643 31.2838 79.8148 32.5 79.8148C33.7097 79.8148 34.6875 78.6663 34.6875 77.1963V72.063C34.6875 70.6163 33.7162 69.4444 32.5 69.4444Z" fill="white"/>
<path d="M75.3444 36.2904C73.3188 29.91 68.1212 25.3704 62.0312 25.3704C60.6291 25.3704 59.275 25.6115 57.9931 26.06C54.5237 19.4204 48.3222 15 41.25 15C30.5225 15 21.7944 25.1733 21.5669 37.8226C17.6403 40.5163 15 45.5485 15 51.2963C15 59.883 20.8778 66.8519 28.125 66.8519H71.875C79.12 66.8519 85 59.87 85 51.2963C85 44.1278 80.9094 38.0922 75.3444 36.2904ZM71.8816 61.6667H28.1184C23.2994 61.6667 19.375 57.0233 19.375 51.2963C19.375 46.3911 22.2559 42.2689 26.1278 41.1956C26.0009 40.2648 25.9375 39.3081 25.9375 38.3333C25.9375 28.3104 32.7931 20.1852 41.25 20.1852C48.1669 20.1852 54.0119 25.6219 55.9106 33.0833C57.5928 31.4993 59.7147 30.5556 62.0312 30.5556C67.0975 30.5556 71.2734 35.0926 71.8159 40.9259H71.8816C76.7006 40.9259 80.625 45.5693 80.625 51.2963C80.625 57.013 76.7116 61.6667 71.8816 61.6667Z" fill="white"/>
</svg>
