<svg width="99" height="100" viewBox="0 0 99 100" fill="none" xmlns="http://www.w3.org/2000/svg">
<path d="M56.1562 50.8725H46.6467L40.625 69.65H46.0143L42.8438 83.0625L58.375 64.285H50.7225L56.1562 50.8725Z" fill="white"/>
<path d="M75.2064 38.0287C73.1519 31.4271 67.8801 26.73 61.7031 26.73C60.2809 26.73 58.9075 26.9795 57.6073 27.4435C54.0884 20.5737 47.7982 16 40.625 16C29.7443 16 20.8914 26.5261 20.6607 39.614C16.678 42.4012 14 47.6079 14 53.555C14 62.4394 19.964 69.65 27.3125 69.65H35.7438L37.5188 64.285H27.3058C22.4179 64.285 18.4375 59.4806 18.4375 53.555C18.4375 48.4797 21.3596 44.2145 25.2868 43.104C25.1581 42.141 25.0938 41.1511 25.0938 40.1425C25.0938 29.772 32.0473 21.365 40.625 21.365C47.6407 21.365 53.5692 26.9902 55.4951 34.7104C57.2013 33.0714 59.3535 32.095 61.7031 32.095C66.8417 32.095 71.0773 36.7894 71.6276 42.825H71.6942C76.5821 42.825 80.5625 47.6294 80.5625 53.555C80.5625 59.4699 76.5932 64.285 71.6942 64.285H65.0312L60.5938 69.65H71.6875C79.036 69.65 85 62.426 85 53.555C85 46.1379 80.8509 39.893 75.2064 38.0287Z" fill="white"/>
</svg>
