<svg id="Слой_1" data-name="Слой 1" xmlns="http://www.w3.org/2000/svg" viewBox="0 0 101 101"><title>log_Монтажная область 2</title><path d="M86.56,82.44l-11-11h0L69.12,65H72.5A6.51,6.51,0,0,0,79,58.5v-43A6.51,6.51,0,0,0,72.5,9h-44A6.51,6.51,0,0,0,22,15.5v43A6.51,6.51,0,0,0,28.5,65h3.38l-6.44,6.44h0l-11,11a1.5,1.5,0,1,0,2.12,2.12L19.12,82H81.88l2.56,2.56a1.5,1.5,0,1,0,2.12-2.12ZM76,15.5V40H52V12H72.5A3.5,3.5,0,0,1,76,15.5ZM28.5,12H49V40H25V15.5A3.5,3.5,0,0,1,28.5,12ZM25,58.5V43H76V58.5A3.5,3.5,0,0,1,72.5,62h-44A3.5,3.5,0,0,1,25,58.5ZM64.88,65l6,6H30.12l6-6ZM22.12,79l5-5H73.88l5,5Z"/><circle cx="34.5" cy="52.5" r="2.5"/><circle cx="65.5" cy="52.5" r="2.5"/></svg>