<svg width="100" height="100" viewBox="0 0 100 100" fill="none" xmlns="http://www.w3.org/2000/svg">
<path d="M47.0426 28.8943L47.0064 28.8428L46.7123 29.1216L37.3373 38.0105L37.1179 38.2185L37.147 38.2598C36.7681 38.7139 36.525 39.3165 36.525 40C36.525 41.3641 37.4665 42.5722 38.75 42.5722H55.625C56.9085 42.5722 57.85 41.3641 57.85 40V31.1111C57.85 29.747 56.9085 28.5389 55.625 28.5389H48.125C47.7142 28.5389 47.3506 28.6818 47.0426 28.8943ZM44.357 70.6307L44.3575 70.6301L51.1564 62.57H78.125C79.4085 62.57 80.35 61.3619 80.35 59.9978V22.22C80.35 20.8579 79.4083 19.65 78.125 19.65H46.25C44.4563 19.65 42.8811 20.5914 41.7975 22.0226L23.4462 42.0765C21.1456 44.1773 19.65 47.4301 19.65 51.1111C19.65 57.3841 23.9496 62.5722 29.375 62.5722H33.2361L29.6944 66.7699C29.2123 67.3412 29.0127 68.0801 29.0351 68.7954C29.0344 68.7988 29.0337 68.8023 29.033 68.8059C29.0289 68.8271 29.025 68.8554 29.025 68.8889C29.025 70.253 29.9665 71.4611 31.25 71.4611H42.5C42.5466 71.4611 42.5851 71.4531 42.612 71.4457C42.6131 71.4454 42.6141 71.4451 42.6152 71.4448C43.251 71.4564 43.8839 71.1889 44.357 70.6307ZM29.0419 68.7673L29.0418 68.7677L29.0419 68.7673ZM46.25 24.7944H75.9V57.4278H29.375C26.5166 57.4278 24.1 54.658 24.1 51.1111C24.1 49.1591 24.8562 47.4465 26.0078 46.2916L26.5798 45.718L26.4614 45.7146L45.056 25.5506L45.0747 25.5303L45.09 25.5074C45.3903 25.0567 45.8031 24.7944 46.25 24.7944ZM78.125 75.2056H21.875C20.5915 75.2056 19.65 76.4137 19.65 77.7778C19.65 79.1419 20.5915 80.35 21.875 80.35H78.125C79.4085 80.35 80.35 79.1419 80.35 77.7778C80.35 76.4137 79.4085 75.2056 78.125 75.2056ZM48.9227 33.6833H53.4V37.4278H44.9735L48.9227 33.6833ZM44.4861 62.5722L41.3267 66.3167H36.7451L39.9045 62.5722H44.4861Z" fill="white" stroke="white" stroke-width="0.7"/>
</svg>
