<svg width="100" height="100" viewBox="0 0 100 100" fill="none" xmlns="http://www.w3.org/2000/svg">
<path d="M73.9206 71.0284L73.9206 71.0295C73.9227 72.899 72.0782 74.6808 69.4508 74.6808C66.825 74.6808 64.9827 72.9001 64.9827 71.0284C64.9827 69.154 66.8253 67.3736 69.4508 67.3736C72.074 67.3736 73.9206 69.1547 73.9206 71.0284ZM69.4508 61.053C63.227 61.053 57.9 65.3722 57.9 71.0258C57.9 76.6823 63.2318 81 69.4508 81C75.6722 81 81 76.6766 81 71.0258C81 65.3721 75.6701 61.053 69.4508 61.053Z" fill="white" stroke="white" stroke-width="2"/>
<path d="M43.172 33.886C39.9149 33.886 37.5602 31.6704 37.5602 29.2609C37.5602 26.8519 39.9152 24.6352 43.172 24.6352C46.4306 24.6352 48.7854 26.852 48.7854 29.2609C48.7854 31.6703 46.4308 33.886 43.172 33.886ZM43.1736 19C36.7646 19 31.2842 23.447 31.2842 29.2622C31.2842 35.0768 36.7633 39.5225 43.1736 39.5225C49.5833 39.5225 55.0608 35.078 55.0608 29.2622C55.0608 23.4458 49.5819 19 43.1736 19Z" fill="white" stroke="white" stroke-width="2"/>
<path d="M30.2369 70.5742C28.6254 70.5742 27.6074 69.495 27.6074 68.4834C27.6074 67.4774 28.6231 66.3996 30.2369 66.3996C31.8484 66.3996 32.8665 67.4778 32.8665 68.4834C32.8665 69.4945 31.846 70.5742 30.2369 70.5742ZM30.2369 58.7798C24.1863 58.7798 19 62.9772 19 68.4868C19 73.9931 24.1857 78.1957 30.2369 78.1957C36.286 78.1957 41.4737 73.9932 41.4737 68.4868C41.4737 62.9807 36.2877 58.7798 30.2369 58.7798Z" fill="white" stroke="white" stroke-width="2"/>
</svg>
