<svg viewBox="0 0 48 48" xmlns="http://www.w3.org/2000/svg" xmlns:xlink="http://www.w3.org/1999/xlink" >
<defs>



 <path fill="#000000" id="i-464" d="M1,14h2c0,1.626,2.061,3,4.5,3s4.5-1.374,4.5-3h2c0,1.626,2.061,3,4.5,3s4.5-1.374,4.5-3h2c0,1.626,2.061,3,4.5,3 s4.5-1.374,4.5-3h2c0,1.626,2.061,3,4.5,3s4.5-1.374,4.5-3h2c0,2.757-2.916,5-6.5,5c-2.313,0-4.348-0.934-5.5-2.338 C33.848,18.066,31.813,19,29.5,19s-4.348-0.934-5.5-2.338C22.848,18.066,20.813,19,18.5,19s-4.348-0.934-5.5-2.338 C11.848,18.066,9.813,19,7.5,19C3.916,19,1,16.757,1,14z M40.5,33c-2.439,0-4.5-1.374-4.5-3h-2c0,1.626-2.061,3-4.5,3 S25,31.626,25,30h-2c0,1.626-2.061,3-4.5,3S14,31.626,14,30h-2c0,1.626-2.061,3-4.5,3S3,31.626,3,30H1c0,2.757,2.916,5,6.5,5 c2.313,0,4.348-0.935,5.5-2.338C14.152,34.065,16.187,35,18.5,35s4.348-0.935,5.5-2.338C25.152,34.065,27.188,35,29.5,35 s4.348-0.935,5.5-2.338C36.152,34.065,38.188,35,40.5,35c3.584,0,6.5-2.243,6.5-5h-2C45,31.626,42.939,33,40.5,33z"/> 
</defs>

<use x="0" y="0" xlink:href="#i-464"/>

</svg>