<svg width="100" height="100" viewBox="0 0 100 100" fill="none" xmlns="http://www.w3.org/2000/svg">
<path d="M68.9298 73.0375C62.5647 73.0375 55.4679 71.1052 47.8869 65.9003C22.2298 48.2894 4.81708 64.9174 4.09009 65.634C3.17105 66.5362 1.66628 66.556 0.725015 65.6812C-0.217842 64.8048 -0.243239 63.3655 0.666284 62.4603C0.872634 62.2564 21.5885 42.2324 50.6583 62.1894C76.1695 79.703 94.8996 55.2987 95.6853 54.252C96.4552 53.2265 97.9441 52.9968 99.0075 53.7301C100.076 54.465 100.319 55.8906 99.552 56.9145C99.3885 57.1321 87.1837 73.0359 68.9298 73.0375Z" fill="white"/>
<path d="M68.9301 59.3874C62.565 59.3874 55.4682 57.4552 47.8872 52.2503C22.1253 34.5633 4.81897 51.2598 4.09516 51.9779C3.18087 52.8862 1.67611 52.9121 0.728494 52.0372C-0.219125 51.1624 -0.244522 49.717 0.666589 48.8102C0.872938 48.6048 21.5888 28.5824 50.6587 48.5394C76.1666 66.0469 94.8999 41.6487 95.6856 40.6004C96.4555 39.5765 97.9444 39.3467 99.0079 40.0786C100.076 40.8134 100.319 42.2406 99.5523 43.2645C99.3888 43.4821 87.184 59.3859 68.9301 59.3874Z" fill="white"/>
<path d="M68.9291 45.737C62.564 45.737 55.4672 43.8047 47.8863 38.5998C22.2291 20.9889 4.81643 37.6154 4.08945 38.3335C3.1704 39.2342 1.66564 39.2555 0.724366 38.3792C-0.218491 37.5043 -0.243888 36.065 0.665636 35.1598C0.871985 34.9544 21.5879 14.9319 50.6577 34.889C76.1688 52.4025 94.899 27.9983 95.6847 26.95C96.4545 25.926 97.9434 25.6948 99.0069 26.4281C100.075 27.1645 100.318 28.5901 99.5514 29.614C99.3879 29.8316 87.1831 45.7339 68.9291 45.737Z" fill="white"/>
</svg>
