<svg width="100" height="100" viewBox="0 0 100 100" fill="none" xmlns="http://www.w3.org/2000/svg">
<path d="M61.324 29.4C61.324 22.0256 56.5946 16 50.806 16C45.0178 16 40.2881 22.0256 40.2881 29.4H45.5403C45.5403 25.7216 47.9051 22.7088 50.7924 22.7088C53.6797 22.7088 56.0447 25.7216 56.0447 29.4C56.0447 33.0784 53.6797 36.0912 50.7924 36.0912H19.2521V42.7825H50.806C56.5946 42.8175 61.324 36.7744 61.324 29.4Z" fill="white"/>
<path d="M74.4684 29.4C68.6798 29.4 63.9504 35.4256 63.9504 42.8H69.2161C69.2161 39.1216 71.5811 36.1088 74.4684 36.1088C77.3557 36.1088 79.7204 39.1216 79.7204 42.8C79.7204 46.4784 77.3693 49.5088 74.4684 49.5088H14V56.2H74.482C80.2703 56.2 85 50.1744 85 42.8C85 35.4256 80.2566 29.4 74.4684 29.4Z" fill="white"/>
<path d="M66.59 62.9088H29.7701V69.6H66.59C68.1712 69.6 69.2161 70.9312 69.2161 72.9456C69.2161 74.96 68.1712 76.2914 66.59 76.2914C65.0089 76.2914 63.964 74.96 63.964 72.9456H58.7117C58.7117 78.3058 62.1352 83 66.6036 83C71.0721 83 74.4956 78.6384 74.4956 72.9456C74.4956 67.2528 71.0585 62.9088 66.59 62.9088Z" fill="white"/>
</svg>
