<svg width="102" height="101" viewBox="0 0 102 101" fill="none" xmlns="http://www.w3.org/2000/svg">
<path d="M80.4201 87.0601L55.9201 80.0001L80.4201 72.9401C80.7866 72.8171 81.0916 72.5573 81.2712 72.215C81.4509 71.8726 81.4914 71.4741 81.3843 71.1026C81.2773 70.731 81.0309 70.4152 80.6966 70.221C80.3623 70.0267 79.9659 69.9691 79.59 70.0601L50.5001 78.4401L21.4201 70.0601C21.0443 69.9691 20.6479 70.0267 20.3136 70.221C19.9793 70.4152 19.7329 70.731 19.6258 71.1026C19.5188 71.4741 19.5593 71.8726 19.7389 72.215C19.9186 72.5573 20.2235 72.8171 20.5901 72.9401L45.0801 80.0001L20.5801 87.0601C20.2135 87.183 19.9086 87.4428 19.7289 87.7852C19.5493 88.1275 19.5088 88.526 19.6158 88.8975C19.7229 89.2691 19.9693 89.5849 20.3036 89.7791C20.6379 89.9734 21.0343 90.031 21.4101 89.9401L50.5001 81.5601L79.5801 89.9401C79.9559 90.031 80.3523 89.9734 80.6866 89.7791C81.0209 89.5849 81.2673 89.2691 81.3743 88.8975C81.4814 88.526 81.4409 88.1275 81.2612 87.7852C81.0816 87.4428 80.7766 87.183 80.4101 87.0601H80.4201Z" fill="currentColor"/>
<path d="M34.42 69.83C34.5947 69.9324 34.7884 69.9983 34.9893 70.0239C35.1903 70.0494 35.3943 70.034 35.5891 69.9785C35.7839 69.9231 35.9655 69.8288 36.1229 69.7012C36.2802 69.5737 36.4101 69.4156 36.5047 69.2365C36.5994 69.0574 36.6567 68.861 36.6734 68.6592C36.69 68.4573 36.6656 68.2542 36.6016 68.062C36.5377 67.8698 36.4354 67.6926 36.3011 67.541C36.1667 67.3894 36.0031 67.2666 35.82 67.18C32.2024 65.0009 29.2124 61.9203 27.1423 58.2393C25.0721 54.5583 23.9929 50.4031 24.01 46.18C24.01 30.42 35.34 14.77 50.93 8.27995C47.8 14.12 42.61 25.6899 46.04 32.9199C47.67 36.3499 50.94 38.3899 55.76 38.9199C57.2482 39.1733 58.7754 39.0688 60.2152 38.6149C61.655 38.1611 62.9661 37.371 64.04 36.31C67.67 32.68 68.46 26.1099 68.52 21.4699C72.31 27.4899 78.32 39 76.74 50C75.74 56.88 71.94 62.68 65.39 67.23C65.217 67.3373 65.0677 67.4787 64.9512 67.6456C64.8346 67.8125 64.7533 68.0013 64.7121 68.2006C64.6708 68.4 64.6706 68.6056 64.7114 68.805C64.7522 69.0044 64.8331 69.1935 64.9493 69.3606C65.0655 69.5277 65.2145 69.6695 65.3872 69.7772C65.5599 69.8849 65.7527 69.9563 65.9539 69.9872C66.1551 70.018 66.3605 70.0075 66.5575 69.9564C66.7545 69.9053 66.9391 69.8147 67.1 69.69C74.36 64.69 78.6 58.1699 79.71 50.4199C82.16 33.3499 68.5 16.24 67.95 15.52C67.746 15.2651 67.4644 15.0837 67.148 15.0033C66.8316 14.9229 66.4976 14.948 66.1967 15.0747C65.8958 15.2014 65.6445 15.4228 65.4809 15.7053C65.3172 15.9878 65.2502 16.3159 65.29 16.64C65.72 20.17 65.94 30.2099 61.9 34.2599C61.1432 34.9932 60.2213 35.534 59.212 35.8368C58.2027 36.1396 57.1354 36.1955 56.1 36C52.32 35.55 49.91 34.13 48.74 31.65C45.5 24.78 52.5 11 55.5 6.29995C55.6656 6.04079 55.7476 5.73696 55.7348 5.42964C55.722 5.12232 55.6151 4.82637 55.4284 4.58188C55.2418 4.33739 54.9845 4.15619 54.6914 4.06283C54.3983 3.96947 54.0836 3.96846 53.79 4.05995C34.81 9.89995 21 27.62 21 46.2C20.9575 50.9717 22.1761 55.67 24.5327 59.8194C26.8893 63.9688 30.3001 67.4222 34.42 69.83Z" fill="currentColor"/>
<path d="M50.15 51.87C50.3506 51.9582 50.568 52.0014 50.7871 51.9965C51.0061 51.9917 51.2215 51.9389 51.4179 51.8419C51.6144 51.7449 51.7872 51.606 51.9243 51.4351C52.0613 51.2641 52.1592 51.0652 52.2111 50.8523C52.2631 50.6395 52.2677 50.4178 52.2248 50.203C52.1818 49.9881 52.0923 49.7853 51.9626 49.6087C51.8329 49.4321 51.666 49.2861 51.4738 49.181C51.2816 49.0758 51.0687 49.014 50.85 49C35.64 45.26 37.99 30.39 38.1 29.76C38.1561 29.4255 38.0973 29.0819 37.933 28.7851C37.7687 28.4884 37.5087 28.2561 37.1954 28.1262C36.8821 27.9962 36.5341 27.9763 36.208 28.0696C35.8819 28.1629 35.5971 28.364 35.4 28.64C35.22 28.89 31 35 31 45.89C31 58.53 41.71 65.48 42.17 65.77C42.5052 65.9704 42.9054 66.0322 43.2855 65.9421C43.6656 65.8521 43.9955 65.6174 44.2052 65.2878C44.4149 64.9583 44.4878 64.56 44.4084 64.1776C44.329 63.7952 44.1035 63.4588 43.78 63.24C43.68 63.18 34 56.91 34 45.9C33.9835 42.6787 34.4177 39.471 35.29 36.37C36.24 42 39.57 49.3 50.15 51.87Z" fill="currentColor"/>
</svg>
