<svg width="102" height="101" viewBox="0 0 102 101" fill="none" xmlns="http://www.w3.org/2000/svg">
<path d="M66.2776 75.7143H35.7222C29 75.7143 23.5 70.5714 23.5 64.2857V21.4286C23.5 15.1429 29 10 35.7222 10H66.2776C72.9998 10 78.4998 15.1429 78.4998 21.4286V64.2857C78.4998 70.5714 72.9998 75.7143 66.2776 75.7143Z" stroke="currentColor" stroke-width="3.5" stroke-miterlimit="10" stroke-linecap="round" stroke-linejoin="round"/>
<path d="M23.5 89.9999L38.7777 75.7142" stroke="currentColor" stroke-width="3.5" stroke-miterlimit="10" stroke-linecap="round" stroke-linejoin="round"/>
<path d="M78.5 89.9999L63.2223 75.7142" stroke="currentColor" stroke-width="3.5" stroke-miterlimit="10" stroke-linecap="round" stroke-linejoin="round"/>
<path d="M69.3328 12.8572V38.5715C69.3328 44.8572 63.8328 50 57.1106 50H44.8884C38.1662 50 32.6663 44.8572 32.6663 38.5715V12.8572" stroke="currentColor" stroke-width="3.5" stroke-miterlimit="10" stroke-linecap="round" stroke-linejoin="round"/>
<path d="M37.2496 67.1428C39.7809 67.1428 41.8329 65.2241 41.8329 62.8571C41.8329 60.4902 39.7809 58.5714 37.2496 58.5714C34.7183 58.5714 32.6663 60.4902 32.6663 62.8571C32.6663 65.2241 34.7183 67.1428 37.2496 67.1428Z" stroke="currentColor" stroke-width="3.5" stroke-miterlimit="10" stroke-linecap="round" stroke-linejoin="round"/>
<path d="M64.75 67.1428C67.2813 67.1428 69.3333 65.2241 69.3333 62.8571C69.3333 60.4902 67.2813 58.5714 64.75 58.5714C62.2187 58.5714 60.1667 60.4902 60.1667 62.8571C60.1667 65.2241 62.2187 67.1428 64.75 67.1428Z" stroke="currentColor" stroke-width="3.5" stroke-miterlimit="10" stroke-linecap="round" stroke-linejoin="round"/>
<path d="M29.6112 84.2858H72.3888" stroke="currentColor" stroke-width="3.5" stroke-miterlimit="10" stroke-linecap="round" stroke-linejoin="round"/>
</svg>
