<svg width="102" height="101" viewBox="0 0 102 101" fill="none" xmlns="http://www.w3.org/2000/svg">
<path d="M78.5 13H24.5C20.0817 13 16.5 16.5817 16.5 21V80C16.5 84.4183 20.0817 88 24.5 88H78.5C82.9183 88 86.5 84.4183 86.5 80V21C86.5 16.5817 82.9183 13 78.5 13Z" stroke="currentColor" stroke-width="3.5"/>
<path d="M50.9999 77C60.6649 77 68.4999 69.165 68.4999 59.5C68.4999 49.835 60.6649 42 50.9999 42C41.335 42 33.5 49.835 33.5 59.5C33.5 69.165 41.335 77 50.9999 77Z" stroke="currentColor" stroke-width="3.5" stroke-miterlimit="10" stroke-linecap="round" stroke-linejoin="round"/>
<path d="M33.7504 57L41.0003 59.75C44.2503 61 48.0003 61 51.2503 59.25C54.5003 57.75 58.2503 57.5 61.5002 58.75L68.5002 61.5" stroke="currentColor" stroke-width="3.5" stroke-miterlimit="10" stroke-linecap="round" stroke-linejoin="round"/>
<path d="M69.6465 29.5C69.3215 29.5 68.6715 29.5 68.3465 29.1757C68.0215 28.8513 67.6965 28.8513 67.3715 28.527C66.7215 27.8783 66.3965 27.2296 66.3965 26.2566C66.3965 25.2835 66.7215 24.6349 67.3715 23.9862C67.6965 23.6618 68.0215 23.3375 68.3465 23.3375C69.6465 22.6888 70.9465 23.0131 71.9215 23.9862C72.5715 24.6349 72.8965 25.2835 72.8965 26.2566C72.8965 26.5809 72.8965 26.5809 72.8965 26.9053C72.8965 27.2296 72.8965 27.2296 72.5715 27.5539C72.5715 27.8783 72.2465 27.8783 72.2465 28.2026L71.9215 28.527C71.2715 29.1757 70.6215 29.5 69.6465 29.5Z" fill="currentColor"/>
<path d="M61.2295 29.5C60.9045 29.5 60.2545 29.5 59.9295 29.1757C59.6045 28.8513 59.2795 28.8513 58.9545 28.527C58.3045 27.8783 57.9795 27.2296 57.9795 26.2566C57.9795 25.2835 58.3045 24.6349 58.9545 23.9862C59.2795 23.6618 59.6045 23.3375 59.9295 23.3375C61.2295 22.6888 62.5295 23.0131 63.5045 23.9862C64.1545 24.6349 64.4795 25.2835 64.4795 26.2566C64.4795 26.5809 64.4795 26.5809 64.4795 26.9053C64.4795 27.2296 64.4795 27.2296 64.1545 27.5539C64.1545 27.8783 63.8295 27.8783 63.8295 28.2026L63.5045 28.527C62.8545 29.1757 62.2045 29.5 61.2295 29.5Z" fill="currentColor"/>
<path d="M52.8125 29.5C52.4875 29.5 51.8375 29.5 51.5125 29.1757C51.1875 28.8513 50.8625 28.8513 50.5375 28.527C49.8875 27.8783 49.5625 27.2296 49.5625 26.2566C49.5625 25.2835 49.8875 24.6349 50.5375 23.9862C50.8625 23.6618 51.1875 23.3375 51.5125 23.3375C52.8125 22.6888 54.1125 23.0131 55.0875 23.9862C55.7375 24.6349 56.0625 25.2835 56.0625 26.2566C56.0625 26.5809 56.0625 26.5809 56.0625 26.9053C56.0625 27.2296 56.0625 27.2296 55.7375 27.5539C55.7375 27.8783 55.4125 27.8783 55.4125 28.2026L55.0875 28.527C54.4375 29.1757 53.7875 29.5 52.8125 29.5Z" fill="currentColor"/>
</svg>
