<svg width="102" height="101" viewBox="0 0 102 101" fill="none" xmlns="http://www.w3.org/2000/svg">
<path d="M38.6577 29.0577C39.8692 26.1231 42.75 24.0769 46.1154 24.0769C50.5846 24.0769 54.1923 27.6846 54.1923 32.1538C54.1923 36.6231 50.5846 40.2308 46.1154 40.2308H27.2692" stroke="currentColor" stroke-width="4" stroke-miterlimit="10" stroke-linecap="round" stroke-linejoin="round"/>
<path d="M65.7962 76.6578C67.4116 80.5616 71.2346 83.3077 75.7308 83.3077C81.6808 83.3077 86.5 78.4885 86.5 72.5385C86.5 66.5885 81.6808 61.7693 75.7308 61.7693H43.4231" stroke="currentColor" stroke-width="4" stroke-miterlimit="10" stroke-linecap="round" stroke-linejoin="round"/>
<path d="M52.8462 26.7962C55.4846 20.4692 61.7308 16 69 16C78.6654 16 86.5 23.8346 86.5 33.5C86.5 43.1654 78.6654 51 69 51H16.5" stroke="currentColor" stroke-width="4" stroke-miterlimit="10" stroke-linecap="round" stroke-linejoin="round"/>
<path d="M24.5769 61.7693H32.6538" stroke="currentColor" stroke-width="4" stroke-miterlimit="10" stroke-linecap="round" stroke-linejoin="round"/>
</svg>
