<svg width="101" height="101" viewBox="0 0 101 101" fill="none" xmlns="http://www.w3.org/2000/svg">
<path d="M97.25 33.67C97.1131 33.4639 96.9273 33.2948 96.7092 33.1779C96.4911 33.061 96.2475 32.9999 96 33H90.22C90.019 32.9988 89.8198 33.0381 89.6343 33.1154C89.4488 33.1927 89.2807 33.3065 89.14 33.45L78.88 44H55.88L68 24.29C68.141 24.0625 68.2185 23.8013 68.2245 23.5337C68.2305 23.2661 68.1648 23.0018 68.0342 22.7681C67.9036 22.5345 67.7129 22.34 67.4818 22.205C67.2507 22.0699 66.9877 21.9991 66.72 22H53.72C53.3223 22.0004 52.941 22.1586 52.66 22.44L31.1 44H23.7C11.51 44 3 50.8 3 60.57C3 61.4797 3.36137 62.3521 4.00462 62.9954C4.64787 63.6386 5.52031 64 6.43 64H28.6L54.16 89.56C54.441 89.8414 54.8223 89.9997 55.22 90H68.22C68.4877 90.0009 68.7507 89.9301 68.9818 89.795C69.2129 89.66 69.4036 89.4655 69.5342 89.2319C69.6648 88.9982 69.7305 88.7339 69.7245 88.4663C69.7185 88.1987 69.641 87.9375 69.5 87.71L54.9 64H76.32C78.8963 63.9988 81.4154 63.2396 83.5634 61.8171C85.7114 60.3946 87.3934 58.3716 88.4 56L97.4 35.06C97.4897 34.8336 97.523 34.5886 97.4968 34.3465C97.4707 34.1043 97.386 33.8721 97.25 33.67V33.67ZM54.34 25H64L52.34 44H35.34L54.34 25ZM85.64 54.85C84.86 56.6756 83.5609 58.2317 81.9039 59.3251C80.2469 60.4185 78.3052 61.0009 76.32 61H52.22C51.9523 60.9991 51.6893 61.0699 51.4582 61.205C51.2271 61.34 51.0364 61.5345 50.9058 61.7681C50.7752 62.0018 50.7095 62.2661 50.7155 62.5337C50.7215 62.8013 50.799 63.0625 50.94 63.29L65.53 87H55.84L30.28 61.44C29.999 61.1586 29.6177 61.0004 29.22 61H6.43C6.37134 60.9987 6.31353 60.9857 6.25997 60.9618C6.20641 60.9379 6.15817 60.9034 6.11811 60.8606C6.07804 60.8177 6.04695 60.7673 6.02667 60.7122C6.00639 60.6572 5.99732 60.5986 6 60.54C6 52.57 13.28 47 23.7 47H79.52C79.721 47.0012 79.9202 46.962 80.1057 46.8846C80.2912 46.8073 80.4593 46.6935 80.6 46.55L90.85 36H93.73L85.64 54.85Z" fill="white"/>
</svg>
