<svg id="Слой_1" data-name="Слой 1" xmlns="http://www.w3.org/2000/svg" viewBox="0 0 101 101"><title>log_Монтажная область 4</title><path d="M97.25,33.67A1.5,1.5,0,0,0,96,33H90.22a1.5,1.5,0,0,0-1.08.45L78.88,44h-23L68,24.29A1.5,1.5,0,0,0,66.72,22h-13a1.5,1.5,0,0,0-1.06.44L31.1,44H23.7C11.51,44,3,50.8,3,60.57A3.43,3.43,0,0,0,6.43,64H28.6L54.16,89.56a1.5,1.5,0,0,0,1.06.44h13a1.5,1.5,0,0,0,1.28-2.29L54.9,64H76.32A13.13,13.13,0,0,0,88.4,56l9-20.94A1.5,1.5,0,0,0,97.25,33.67ZM54.34,25H64L52.34,44h-17ZM85.64,54.85A10.13,10.13,0,0,1,76.32,61H52.22a1.5,1.5,0,0,0-1.28,2.29L65.53,87H55.84L30.28,61.44A1.5,1.5,0,0,0,29.22,61H6.43A.44.44,0,0,1,6,60.54C6,52.57,13.28,47,23.7,47H79.52a1.5,1.5,0,0,0,1.08-.45L90.85,36h2.88Z"/></svg>