<svg width="101" height="101" viewBox="0 0 101 101" fill="none" xmlns="http://www.w3.org/2000/svg">
<path d="M69 36.5C66.445 36.4995 63.915 37.0036 61.5554 37.9835C59.1958 38.9634 57.053 40.3997 55.25 42.21C54.87 41.65 54.46 41.13 54.04 40.59C53.3839 39.7617 52.9803 38.762 52.8774 37.7104C52.7746 36.6587 52.9768 35.5997 53.46 34.66C55.9315 30.0139 56.505 24.5904 55.06 19.53C53.9898 15.7844 51.7759 12.4669 48.728 10.041C45.68 7.6152 41.9502 6.20237 38.06 6.00003C35.5514 5.8701 33.0429 6.2566 30.6898 7.13558C28.3366 8.01456 26.189 9.3673 24.38 11.11C22.4938 12.9206 20.9942 15.0946 19.9715 17.5008C18.9489 19.907 18.4245 22.4955 18.43 25.11C18.431 28.4013 19.2378 31.6424 20.78 34.55C21.2646 35.494 21.4658 36.558 21.3593 37.6137C21.2529 38.6694 20.8433 39.6718 20.18 40.5C17.1297 44.3945 15.481 49.2033 15.5 54.15C15.5 65.39 23.5 74.94 33.72 75.9C34.09 75.9 34.53 75.96 35 75.97V93.5C35 93.8979 35.158 94.2794 35.4393 94.5607C35.7206 94.842 36.1022 95 36.5 95C36.8978 95 37.2793 94.842 37.5606 94.5607C37.8419 94.2794 38 93.8979 38 93.5V76C39 76 39.89 75.94 40.56 75.89C43.1465 75.6261 45.6509 74.8319 47.9169 73.557C50.1828 72.282 52.1617 70.5538 53.73 68.48C55.1891 70.4164 57.0318 72.0311 59.1429 73.2235C61.2541 74.4158 63.5883 75.1602 66 75.41V75.41C66.54 75.41 67.25 75.49 68 75.5V93.5C68 93.8979 68.158 94.2794 68.4393 94.5607C68.7206 94.842 69.1022 95 69.5 95C69.8978 95 70.2793 94.842 70.5606 94.5607C70.8419 94.2794 71 93.8979 71 93.5V75.5L72.14 75.43C81.31 74.64 88.5 66.16 88.5 56.11C88.5133 50.9241 86.4666 45.9452 82.8099 42.2679C79.1532 38.5906 74.1859 36.5159 69 36.5ZM40.3 72.88C39.71 72.88 38.88 72.96 38 72.98V25.5C38 25.1022 37.8419 24.7207 37.5606 24.4394C37.2793 24.1581 36.8978 24 36.5 24C36.1022 24 35.7206 24.1581 35.4393 24.4394C35.158 24.7207 35 25.1022 35 25.5V58.88L27.06 50.94C26.7756 50.6751 26.3995 50.5308 26.0109 50.5377C25.6223 50.5445 25.2516 50.702 24.9767 50.9768C24.7019 51.2516 24.5445 51.6224 24.5376 52.011C24.5308 52.3996 24.675 52.7757 24.94 53.06L34.94 63.06H35V73L34 72.94C25.31 72.12 18.5 63.88 18.5 54.18C18.4646 49.9021 19.874 45.7373 22.5 42.36C23.5185 41.0748 24.1435 39.5225 24.2996 37.8901C24.4557 36.2577 24.1364 34.615 23.38 33.16C22.073 30.6956 21.3865 27.9496 21.38 25.16C21.3765 22.9594 21.8176 20.7808 22.6768 18.7548C23.536 16.7288 24.7956 14.8973 26.38 13.37C27.896 11.8851 29.7032 10.7302 31.6876 9.97813C33.6719 9.22603 35.7906 8.893 37.91 9.00003C41.1775 9.16824 44.3107 10.3537 46.8712 12.3907C49.4317 14.4276 51.2914 17.214 52.19 20.36C53.4173 24.6689 52.9263 29.2858 50.82 33.24C50.0642 34.6923 49.7433 36.3317 49.8958 37.9618C50.0483 39.5918 50.6678 41.1432 51.68 42.43C52.2385 43.126 52.756 43.8539 53.23 44.61C50.8072 47.94 49.5014 51.9519 49.5 56.07C49.5058 59.4715 50.3654 62.8171 52 65.8C50.6875 67.7652 48.9592 69.4179 46.9374 70.6413C44.9156 71.8648 42.6497 72.629 40.3 72.88V72.88ZM71.88 72.39L70.99 72.44V66.61L71.11 66.5L79.11 57.5C79.3752 57.203 79.5116 56.8127 79.489 56.4152C79.4665 56.0176 79.287 55.6452 78.99 55.38C78.6929 55.1148 78.3027 54.9785 77.9051 55.001C77.5075 55.0235 77.1352 55.203 76.87 55.5L71 62.12V49.5C71 49.1022 70.8419 48.7207 70.5606 48.4394C70.2793 48.1581 69.8978 48 69.5 48C69.1022 48 68.7206 48.1581 68.4393 48.4394C68.158 48.7207 68 49.1022 68 49.5V72.5C67.33 72.5 66.7 72.5 66.25 72.43C58.54 71.72 52.5 64.54 52.5 56.08C52.5 53.9132 52.9268 51.7676 53.756 49.7658C54.5852 47.7639 55.8006 45.9449 57.3327 44.4128C58.8649 42.8806 60.6838 41.6652 62.6857 40.836C64.6876 40.0068 66.8332 39.58 69 39.58C71.1668 39.58 73.3124 40.0068 75.3143 40.836C77.3161 41.6652 79.1351 42.8806 80.6672 44.4128C82.1994 45.9449 83.4148 47.7639 84.244 49.7658C85.0732 51.7676 85.5 53.9132 85.5 56.08C85.5 64.57 79.52 71.74 71.89 72.4L71.88 72.39Z" fill="white"/>
</svg>
