<svg width="101" height="101" viewBox="0 0 101 101" fill="none" xmlns="http://www.w3.org/2000/svg">
<path d="M16 43.3333V56.6666" stroke="white" stroke-width="4.5" stroke-miterlimit="10" stroke-linecap="round" stroke-linejoin="round"/>
<path d="M27.6665 36.6666V63.3333" stroke="white" stroke-width="4.5" stroke-miterlimit="10" stroke-linecap="round" stroke-linejoin="round"/>
<path d="M39.3333 20V80" stroke="white" stroke-width="4.5" stroke-miterlimit="10" stroke-linecap="round" stroke-linejoin="round"/>
<path d="M51 43.3333V56.6666" stroke="white" stroke-width="4.5" stroke-miterlimit="10" stroke-linecap="round" stroke-linejoin="round"/>
<path d="M62.6665 30V70" stroke="white" stroke-width="4.5" stroke-miterlimit="10" stroke-linecap="round" stroke-linejoin="round"/>
<path d="M74.3333 20V80" stroke="white" stroke-width="4.5" stroke-miterlimit="10" stroke-linecap="round" stroke-linejoin="round"/>
<path d="M86 43.3333V56.6666" stroke="white" stroke-width="4.5" stroke-miterlimit="10" stroke-linecap="round" stroke-linejoin="round"/>
<path d="M83.9278 30C83.5518 30 83.2638 29.904 83.0638 29.712C82.8718 29.512 82.7758 29.228 82.7758 28.86V22.68C82.7758 22.312 82.8718 22.032 83.0638 21.84C83.2638 21.64 83.5518 21.54 83.9278 21.54H86.8558C87.4638 21.54 87.9798 21.632 88.4038 21.816C88.8358 21.992 89.1638 22.244 89.3878 22.572C89.6118 22.9 89.7238 23.284 89.7238 23.724C89.7238 24.22 89.5798 24.644 89.2918 24.996C89.0118 25.348 88.6278 25.588 88.1398 25.716V25.524C88.7158 25.628 89.1598 25.86 89.4718 26.22C89.7918 26.58 89.9518 27.04 89.9518 27.6C89.9518 28.344 89.6838 28.932 89.1478 29.364C88.6198 29.788 87.8958 30 86.9758 30H83.9278ZM84.8878 28.38H86.6758C87.0838 28.38 87.3798 28.304 87.5638 28.152C87.7558 27.992 87.8518 27.756 87.8518 27.444C87.8518 27.132 87.7558 26.9 87.5638 26.748C87.3798 26.596 87.0838 26.52 86.6758 26.52H84.8878V28.38ZM84.8878 24.9H86.4598C86.8598 24.9 87.1518 24.828 87.3358 24.684C87.5278 24.54 87.6238 24.32 87.6238 24.024C87.6238 23.728 87.5278 23.512 87.3358 23.376C87.1518 23.232 86.8598 23.16 86.4598 23.16H84.8878V24.9ZM91.6336 26.616C91.4176 26.616 91.2376 26.548 91.0936 26.412C90.9496 26.268 90.8776 26.08 90.8776 25.848C90.8776 25.68 90.9136 25.536 90.9856 25.416C91.0576 25.288 91.1616 25.164 91.2976 25.044L92.2456 24.084C92.4056 23.916 92.5176 23.772 92.5816 23.652C92.6536 23.524 92.6896 23.396 92.6896 23.268C92.6896 23.132 92.6456 23.028 92.5576 22.956C92.4776 22.876 92.3496 22.836 92.1736 22.836C92.0776 22.836 91.9816 22.852 91.8856 22.884C91.7896 22.908 91.7016 22.936 91.6216 22.968C91.4296 23.056 91.2616 23.064 91.1176 22.992C90.9736 22.912 90.8736 22.796 90.8176 22.644C90.7616 22.492 90.7656 22.332 90.8296 22.164C90.8936 21.996 91.0256 21.864 91.2256 21.768C91.4256 21.672 91.6456 21.604 91.8856 21.564C92.1256 21.516 92.3656 21.492 92.6056 21.492C92.9976 21.492 93.3336 21.556 93.6136 21.684C93.8936 21.804 94.1096 21.976 94.2616 22.2C94.4136 22.424 94.4896 22.692 94.4896 23.004C94.4896 23.26 94.4296 23.512 94.3096 23.76C94.1896 24 93.9856 24.256 93.6976 24.528L92.8456 25.356V25.26H94.0936C94.5576 25.26 94.7896 25.484 94.7896 25.932C94.7896 26.148 94.7296 26.316 94.6096 26.436C94.4896 26.556 94.3176 26.616 94.0936 26.616H91.6336Z" fill="white"/>
</svg>
