<svg width="101" height="101" viewBox="0 0 101 101" fill="none" xmlns="http://www.w3.org/2000/svg">
<path d="M16 43.3333V56.6666" stroke="white" stroke-width="4.5" stroke-miterlimit="10" stroke-linecap="round" stroke-linejoin="round"/>
<path d="M27.6665 36.6666V63.3333" stroke="white" stroke-width="4.5" stroke-miterlimit="10" stroke-linecap="round" stroke-linejoin="round"/>
<path d="M39.3333 20V80" stroke="white" stroke-width="4.5" stroke-miterlimit="10" stroke-linecap="round" stroke-linejoin="round"/>
<path d="M51 43.3333V56.6666" stroke="white" stroke-width="4.5" stroke-miterlimit="10" stroke-linecap="round" stroke-linejoin="round"/>
<path d="M62.6665 30V70" stroke="white" stroke-width="4.5" stroke-miterlimit="10" stroke-linecap="round" stroke-linejoin="round"/>
<path d="M74.3333 20V80" stroke="white" stroke-width="4.5" stroke-miterlimit="10" stroke-linecap="round" stroke-linejoin="round"/>
<path d="M86 43.3333V56.6666" stroke="white" stroke-width="4.5" stroke-miterlimit="10" stroke-linecap="round" stroke-linejoin="round"/>
<path d="M83.9278 30C83.5518 30 83.2638 29.904 83.0638 29.712C82.8718 29.512 82.7758 29.228 82.7758 28.86V22.68C82.7758 22.312 82.8718 22.032 83.0638 21.84C83.2638 21.64 83.5518 21.54 83.9278 21.54H86.8558C87.4638 21.54 87.9798 21.632 88.4038 21.816C88.8358 21.992 89.1638 22.244 89.3878 22.572C89.6118 22.9 89.7238 23.284 89.7238 23.724C89.7238 24.22 89.5798 24.644 89.2918 24.996C89.0118 25.348 88.6278 25.588 88.1398 25.716V25.524C88.7158 25.628 89.1598 25.86 89.4718 26.22C89.7918 26.58 89.9518 27.04 89.9518 27.6C89.9518 28.344 89.6838 28.932 89.1478 29.364C88.6198 29.788 87.8958 30 86.9758 30H83.9278ZM84.8878 28.38H86.6758C87.0838 28.38 87.3798 28.304 87.5638 28.152C87.7558 27.992 87.8518 27.756 87.8518 27.444C87.8518 27.132 87.7558 26.9 87.5638 26.748C87.3798 26.596 87.0838 26.52 86.6758 26.52H84.8878V28.38ZM84.8878 24.9H86.4598C86.8598 24.9 87.1518 24.828 87.3358 24.684C87.5278 24.54 87.6238 24.32 87.6238 24.024C87.6238 23.728 87.5278 23.512 87.3358 23.376C87.1518 23.232 86.8598 23.16 86.4598 23.16H84.8878V24.9ZM92.6296 26.688C92.3336 26.688 92.0536 26.664 91.7896 26.616C91.5336 26.56 91.2936 26.484 91.0696 26.388C90.8856 26.308 90.7656 26.192 90.7096 26.04C90.6616 25.88 90.6656 25.728 90.7216 25.584C90.7776 25.432 90.8736 25.32 91.0096 25.248C91.1536 25.176 91.3296 25.176 91.5376 25.248C91.6736 25.304 91.8136 25.348 91.9576 25.38C92.1016 25.404 92.2456 25.416 92.3896 25.416C92.6376 25.416 92.8176 25.38 92.9296 25.308C93.0416 25.228 93.0976 25.12 93.0976 24.984C93.0976 24.88 93.0576 24.804 92.9776 24.756C92.8976 24.708 92.7776 24.684 92.6176 24.684H92.1016C91.9096 24.684 91.7536 24.632 91.6336 24.528C91.5216 24.424 91.4656 24.272 91.4656 24.072C91.4656 23.88 91.5216 23.732 91.6336 23.628C91.7536 23.516 91.9096 23.46 92.1016 23.46H92.4496C92.6096 23.46 92.7296 23.432 92.8096 23.376C92.8896 23.32 92.9296 23.236 92.9296 23.124C92.9296 23.02 92.8776 22.936 92.7736 22.872C92.6776 22.8 92.5216 22.764 92.3056 22.764C92.1856 22.764 92.0656 22.776 91.9456 22.8C91.8256 22.824 91.7176 22.856 91.6216 22.896C91.4296 22.984 91.2616 22.992 91.1176 22.92C90.9736 22.848 90.8736 22.74 90.8176 22.596C90.7616 22.444 90.7616 22.292 90.8176 22.14C90.8736 21.98 91.0016 21.856 91.2016 21.768C91.4176 21.672 91.6456 21.604 91.8856 21.564C92.1336 21.516 92.3856 21.492 92.6416 21.492C93.2336 21.492 93.6976 21.616 94.0336 21.864C94.3696 22.104 94.5376 22.432 94.5376 22.848C94.5376 23.168 94.4216 23.448 94.1896 23.688C93.9656 23.92 93.6816 24.06 93.3376 24.108V23.916C93.7616 23.932 94.0896 24.052 94.3216 24.276C94.5536 24.5 94.6696 24.808 94.6696 25.2C94.6696 25.504 94.5856 25.768 94.4176 25.992C94.2496 26.208 94.0096 26.38 93.6976 26.508C93.3936 26.628 93.0376 26.688 92.6296 26.688Z" fill="white"/>
</svg>
