<svg width="101" height="101" viewBox="0 0 101 101" fill="none" xmlns="http://www.w3.org/2000/svg">
<path d="M16 43.3333V56.6666" stroke="black" stroke-width="4.5" stroke-miterlimit="10" stroke-linecap="round" stroke-linejoin="round"/>
<path d="M27.6665 36.6666V63.3333" stroke="black" stroke-width="4.5" stroke-miterlimit="10" stroke-linecap="round" stroke-linejoin="round"/>
<path d="M39.3335 20V80" stroke="black" stroke-width="4.5" stroke-miterlimit="10" stroke-linecap="round" stroke-linejoin="round"/>
<path d="M51 43.3333V56.6666" stroke="black" stroke-width="4.5" stroke-miterlimit="10" stroke-linecap="round" stroke-linejoin="round"/>
<path d="M62.6665 30V70" stroke="black" stroke-width="4.5" stroke-miterlimit="10" stroke-linecap="round" stroke-linejoin="round"/>
<path d="M74.3335 20V80" stroke="black" stroke-width="4.5" stroke-miterlimit="10" stroke-linecap="round" stroke-linejoin="round"/>
<path d="M86 43.3333V56.6666" stroke="black" stroke-width="4.5" stroke-miterlimit="10" stroke-linecap="round" stroke-linejoin="round"/>
<path d="M83.516 30C83.1087 30 82.7967 29.896 82.58 29.688C82.372 29.4713 82.268 29.1637 82.268 28.765V22.07C82.268 21.6713 82.372 21.368 82.58 21.16C82.7967 20.9433 83.1087 20.835 83.516 20.835H86.688C87.3467 20.835 87.9057 20.9347 88.365 21.134C88.833 21.3247 89.1884 21.5977 89.431 21.953C89.6737 22.3083 89.795 22.7243 89.795 23.201C89.795 23.7383 89.639 24.1977 89.327 24.579C89.0237 24.9603 88.6077 25.2203 88.079 25.359V25.151C88.703 25.2637 89.184 25.515 89.522 25.905C89.8687 26.295 90.042 26.7933 90.042 27.4C90.042 28.206 89.7517 28.843 89.171 29.311C88.599 29.7703 87.8147 30 86.818 30H83.516ZM84.556 28.245H86.493C86.935 28.245 87.2557 28.1627 87.455 27.998C87.663 27.8247 87.767 27.569 87.767 27.231C87.767 26.893 87.663 26.6417 87.455 26.477C87.2557 26.3123 86.935 26.23 86.493 26.23H84.556V28.245ZM84.556 24.475H86.259C86.6924 24.475 87.0087 24.397 87.208 24.241C87.416 24.085 87.52 23.8467 87.52 23.526C87.52 23.2053 87.416 22.9713 87.208 22.824C87.0087 22.668 86.6924 22.59 86.259 22.59H84.556V24.475Z" fill="black"/>
</svg>
