<?xml version="1.0" standalone="no"?>
<!DOCTYPE svg PUBLIC "-//W3C//DTD SVG 20010904//EN"
 "http://www.w3.org/TR/2001/REC-SVG-20010904/DTD/svg10.dtd">
<svg version="1.0" xmlns="http://www.w3.org/2000/svg"
 width="512.000000pt" height="512.000000pt" viewBox="0 0 512.000000 512.000000"
 preserveAspectRatio="xMidYMid meet">

<g transform="translate(0.000000,512.000000) scale(0.100000,-0.100000)"
fill="#ffffff" stroke="none">
<path d="M2649 4606 c-57 -20 -42 -7 -480 -424 l-66 -62 -269 -75 c-286 -79
-338 -99 -383 -150 -47 -54 -251 -439 -251 -474 0 -61 76 -95 118 -53 10 10
62 100 115 199 54 98 103 187 110 197 12 16 16 10 41 -56 39 -100 109 -235
157 -302 76 -107 179 -137 274 -81 50 29 84 71 151 186 62 107 84 129 132 129
82 0 176 -54 216 -123 13 -23 38 -97 54 -164 37 -149 67 -217 123 -278 55 -60
108 -86 185 -93 142 -11 217 49 290 234 45 113 60 120 94 42 13 -29 44 -159
71 -288 26 -129 57 -266 69 -305 58 -184 136 -265 254 -265 73 0 115 20 170
81 56 63 95 146 151 326 26 81 54 172 63 201 l17 52 79 -257 c46 -152 86 -267
98 -279 11 -12 118 -100 238 -195 120 -96 224 -183 230 -193 11 -17 250 -1422
250 -1468 0 -16 -22 -17 -309 -20 -287 -3 -310 -4 -330 -22 -27 -25 -28 -79
-1 -106 20 -20 31 -20 397 -18 l376 3 20 27 20 27 -132 798 c-117 703 -136
804 -159 847 -22 42 -65 81 -252 229 -124 99 -228 184 -232 191 -3 6 -65 207
-138 446 -97 318 -138 440 -154 455 -12 11 -88 58 -170 105 l-149 85 -117 151
c-64 82 -176 247 -249 365 -73 118 -140 222 -149 231 -9 9 -109 49 -221 88
-216 75 -275 84 -352 56z m283 -192 c89 -31 170 -59 178 -64 9 -5 72 -99 139
-209 68 -111 182 -276 255 -371 l131 -170 155 -89 154 -88 18 -59 18 -59 -30
-82 c-16 -45 -57 -173 -90 -285 -90 -295 -138 -388 -200 -388 -70 0 -115 111
-179 438 -48 243 -71 322 -110 385 -40 63 -82 87 -149 87 -98 0 -124 -24 -192
-181 -28 -63 -59 -122 -71 -131 -13 -11 -38 -18 -65 -18 -87 0 -133 70 -186
283 -35 145 -55 185 -124 254 -136 136 -351 165 -451 60 -17 -17 -63 -84 -101
-147 -82 -136 -104 -151 -153 -104 -29 27 -136 232 -173 331 -14 39 -14 42 2
47 9 3 118 33 242 67 l225 63 55 50 c30 28 138 130 240 227 102 96 196 183
210 192 39 27 80 21 252 -39z"/>
<path d="M1075 3210 c-10 -11 -43 -66 -74 -122 l-56 -102 -215 -124 c-118 -68
-227 -135 -241 -148 -14 -14 -35 -44 -47 -67 -13 -27 -97 -408 -233 -1064
l-213 -1023 21 -27 20 -28 2030 -3 c2024 -2 2030 -2 2048 18 28 31 24 79 -9
107 l-27 23 -450 0 c-352 0 -449 3 -449 13 0 6 -16 237 -35 512 -19 275 -35
505 -35 511 0 6 -50 73 -110 150 l-110 139 -77 195 c-43 107 -85 202 -94 211
-9 9 -59 30 -110 47 -424 138 -631 202 -657 202 -18 0 -40 -8 -50 -18 -9 -9
-96 -129 -192 -266 -96 -137 -219 -300 -272 -363 -53 -62 -99 -121 -102 -131
-11 -37 -76 -429 -76 -459 0 -32 37 -73 66 -73 28 0 63 24 73 49 6 14 25 117
44 228 l34 202 85 98 c46 54 160 205 252 336 93 131 173 236 180 234 6 -2 57
-18 114 -36 72 -22 101 -35 96 -44 -36 -62 -210 -298 -296 -399 -105 -126
-106 -129 -118 -200 -7 -40 -54 -311 -104 -603 l-91 -530 -158 -3 -158 -3 6
33 c45 253 72 425 67 437 -17 51 -91 70 -125 33 -10 -11 -30 -98 -56 -250 -23
-128 -41 -237 -41 -242 0 -6 -180 -10 -481 -10 l-481 0 5 23 c3 12 92 438 197
947 106 509 198 939 206 955 16 34 29 43 287 190 150 86 193 115 211 144 55
89 126 231 126 253 0 59 -85 92 -125 48z m1462 -918 l77 -27 72 -182 c75 -192
69 -181 247 -404 l29 -37 34 -483 c18 -266 34 -490 34 -496 0 -10 -135 -13
-640 -13 -352 0 -640 3 -640 8 0 4 43 262 97 573 l97 567 88 102 c48 57 142
181 209 276 l121 172 49 -14 c27 -8 84 -27 126 -42z"/>
</g>
</svg>
