<svg width="101" height="101" viewBox="0 0 101 101" fill="none" xmlns="http://www.w3.org/2000/svg">
<path d="M26.6494 79C26.6494 79 28.0805 76 30.4655 75.5C32.8506 75 35.7127 77.5 35.7127 77.5C35.7127 77.5 38.5747 80.4999 38.0977 82C37.6207 83.5 36.6667 84.5 34.7586 85C32.8506 85.5 27.1264 86.5 25.6954 84.5C24.2644 82.5 26.6494 79 26.6494 79Z" stroke="white" stroke-width="3.5" stroke-linecap="round" stroke-linejoin="round"/>
<path d="M9.54236 77.2597C10.0121 75.6302 11.4211 73.5932 15.1787 72.2948C18.9363 70.9963 22.2241 74.408 22.2241 74.408C22.2241 74.408 24.5726 76.0375 25.0423 78.4818C25.5119 80.9261 25.0423 81.3335 23.6332 82.9631C22.2241 84.5926 17.0574 85 15.1787 85C13.2999 85 10.4817 84.1852 9.54236 82.5557C8.60297 80.9261 9.07266 78.8893 9.54236 77.2597Z" stroke="white" stroke-width="3.5" stroke-linecap="round" stroke-linejoin="round"/>
<path d="M64.3334 81.5C65.7644 79 66.2414 76.5 69.5805 76C72.9196 75.5 73.8736 79.5 73.8736 79.5C73.8736 79.5 74.8276 81.5 74.3506 84.5C73.8736 87.5001 71.0115 88 69.5805 88H69.5804C68.1493 88 64.3333 88 63.3793 86.5C62.4253 85 62.9023 84 64.3334 81.5Z" stroke="white" stroke-width="3.5" stroke-linecap="round" stroke-linejoin="round"/>
<path d="M73.9758 76.3377C74.3925 73.3506 76.8927 69.8656 79.8096 68.3721C82.7265 66.8785 85.6433 70.3634 85.6433 70.3634C85.6433 70.3634 88.1435 72.8527 89.3936 74.8441C90.6437 76.8355 91.4771 78.329 91.8938 80.3204C92.3105 82.3118 91.4771 84.8011 89.8103 85.7968C88.1435 86.7925 85.6433 83.8054 83.5598 83.8054C81.4764 83.8054 79.3929 85.2989 76.8927 84.3032C74.3925 83.3076 73.5592 79.3247 73.9758 76.3377Z" stroke="white" stroke-width="3.5" stroke-linecap="round" stroke-linejoin="round"/>
<path d="M61.5 60L61 56.5C61 56.5 57 46 51.5 46C46 46 42 48.5 38.5 55C35 61.5 34 74.5 34 74.5H64L62.5 66" stroke="white" stroke-width="3.5" stroke-linecap="round" stroke-linejoin="round"/>
<path d="M24 32.5C24.5 30 28 28 28 28C28 28 32 26.5 36.5 22C41 17.5 43 12 49.5 12C56 12 66.5 18.5 70 24.5C73.5 30.5 74.5 34.5 74.5 34.5" stroke="white" stroke-width="3.5" stroke-linecap="round" stroke-linejoin="round"/>
<path d="M76.5 39.5C76.5 39.5 77 41.5 78.5 44C80 46.5 86 52.5 89.5 60C93 67.5 92 85 92 85" stroke="white" stroke-width="3.5" stroke-linecap="round" stroke-linejoin="round"/>
<path d="M22.5 37C22.5 37 21 43.5 19 47.5C17 51.5 14 56.5 13 60.5C12 64.5 11 75 11 75" stroke="white" stroke-width="3.5" stroke-linecap="round" stroke-linejoin="round"/>
</svg>
