<?xml version="1.0" encoding="UTF-8" standalone="no"?>
<svg width="32px" height="32px" viewBox="0 0 32 32" version="1.1" xmlns="http://www.w3.org/2000/svg" xmlns:xlink="http://www.w3.org/1999/xlink" xmlns:sketch="http://www.bohemiancoding.com/sketch/ns">
    <!-- Generator: Sketch 3.0.3 (7891) - http://www.bohemiancoding.com/sketch -->
    <title>icon 36 raindrops</title>
    <desc>Created with Sketch.</desc>
    <defs></defs>
    <g id="Page-1" stroke="none" stroke-width="1" fill="none" fill-rule="evenodd" sketch:type="MSPage">
        <g id="icon-36-raindrops" sketch:type="MSArtboardGroup" fill="#000000">
            <path d="M9,11.5 C9.00000081,9.81578947 11.5105348,7 11.5105348,7 C11.5105348,7 13.9999999,9.81578947 14,11.5 C14,12.7000122 13.1872547,13.9999996 11.5105348,14 C9.83381492,14.0000004 8.99999942,12.7999878 9,11.5 L9,11.5 Z M19,15.5 C19.0000008,13.8157895 21.5105348,11 21.5105348,11 C21.5105348,11 23.9999999,13.8157895 24,15.5 C24,16.7000122 23.1872547,17.9999996 21.5105348,18 C19.8338149,18.0000004 18.9999994,16.7999878 19,15.5 L19,15.5 Z M12,23.5 C12.0000008,21.8157895 14.5105348,19 14.5105348,19 C14.5105348,19 16.9999999,21.8157895 17,23.5 C17,24.7000122 16.1872547,25.9999996 14.5105348,26 C12.8338149,26.0000004 11.9999994,24.7999878 12,23.5 L12,23.5 Z M20,15.5 C19.9999996,14.5 21.5105348,12.6000061 21.5105348,12.6000061 C21.5105348,12.6000061 23.0000001,14.5 23,15.5 C23,16.7000122 22.1872547,16.9999996 21.5105348,17 C20.8338149,17.0000004 20.0000005,16.7000122 20,15.5 L20,15.5 Z M10,11.5 C9.99999956,10.5 11.5105348,8.6000061 11.5105348,8.6000061 C11.5105348,8.6000061 13.0000001,10.5 13,11.5 C13,12.7000122 12.1872547,12.9999996 11.5105348,13 C10.8338149,13.0000004 10.0000005,12.7000122 10,11.5 L10,11.5 Z M13,23.5 C12.9999996,22.5 14.5105348,20.6000061 14.5105348,20.6000061 C14.5105348,20.6000061 16.0000001,22.5 16,23.5 C16,24.7000122 15.1872547,24.9999996 14.5105348,25 C13.8338149,25.0000004 13.0000005,24.7000122 13,23.5 L13,23.5 Z" id="raindrops" sketch:type="MSShapeGroup"></path>
        </g>
    </g>
</svg>