<svg width="101" height="101" viewBox="0 0 101 101" fill="none" xmlns="http://www.w3.org/2000/svg">
<path fill-rule="evenodd" clip-rule="evenodd" d="M21 30C21 23.2632 31.0421 12 31.0421 12C31.0421 12 41 23.2632 41 30C41 34.8 37.749 40 31.0421 40C24.3353 40 21 35.2 21 30ZM61 46C61 39.2632 71.0421 28 71.0421 28C71.0421 28 81 39.2632 81 46C81 50.8 77.749 56 71.0421 56C64.3353 56 61 51.2 61 46ZM33 78C33 71.2632 43.0421 60 43.0421 60C43.0421 60 53 71.2632 53 78C53 82.8 49.749 88 43.0421 88C36.3353 88 33 83.2 33 78ZM65 46C65 42 71.0421 34.4 71.0421 34.4C71.0421 34.4 77 42 77 46C77 50.8 73.749 52 71.0421 52C68.3353 52 65 50.8 65 46ZM25 30C25 26 31.0421 18.4 31.0421 18.4C31.0421 18.4 37 26 37 30C37 34.8 33.749 36 31.0421 36C28.3353 36 25 34.8 25 30ZM37 78C37 74 43.0421 66.4 43.0421 66.4C43.0421 66.4 49 74 49 78C49 82.8 45.749 84 43.0421 84C40.3353 84 37 82.8 37 78Z" fill="black"/>
</svg>
