<svg width="101" height="101" viewBox="0 0 101 101" fill="none" xmlns="http://www.w3.org/2000/svg">
<path d="M79.92 87.0601L55.42 80.0001L79.92 72.9401C80.2865 72.8171 80.5915 72.5573 80.7711 72.215C80.9508 71.8726 80.9913 71.4741 80.8842 71.1026C80.7772 70.731 80.5308 70.4152 80.1965 70.221C79.8622 70.0267 79.4658 69.9691 79.09 70.0601L50 78.4401L20.92 70.0601C20.5442 69.9691 20.1478 70.0267 19.8135 70.221C19.4792 70.4152 19.2328 70.731 19.1257 71.1026C19.0187 71.4741 19.0592 71.8726 19.2388 72.215C19.4185 72.5573 19.7234 72.8171 20.09 72.9401L44.58 80.0001L20.08 87.0601C19.7134 87.183 19.4085 87.4428 19.2288 87.7852C19.0492 88.1275 19.0087 88.526 19.1157 88.8975C19.2228 89.2691 19.4692 89.5849 19.8035 89.7791C20.1378 89.9734 20.5342 90.031 20.91 89.9401L50 81.5601L79.08 89.9401C79.4558 90.031 79.8522 89.9734 80.1865 89.7791C80.5208 89.5849 80.7672 89.2691 80.8742 88.8975C80.9813 88.526 80.9408 88.1275 80.7611 87.7852C80.5815 87.4428 80.2765 87.183 79.91 87.0601H79.92Z" fill="white"/>
<path d="M33.92 69.83C34.0947 69.9324 34.2884 69.9983 34.4893 70.0239C34.6903 70.0494 34.8943 70.034 35.0891 69.9785C35.2839 69.9231 35.4655 69.8288 35.6229 69.7012C35.7802 69.5737 35.9101 69.4156 36.0047 69.2365C36.0994 69.0574 36.1567 68.861 36.1734 68.6592C36.19 68.4573 36.1656 68.2542 36.1016 68.062C36.0377 67.8698 35.9354 67.6926 35.8011 67.541C35.6667 67.3894 35.5031 67.2666 35.32 67.18C31.7024 65.0009 28.7124 61.9203 26.6423 58.2393C24.5721 54.5583 23.4929 50.4031 23.51 46.18C23.51 30.42 34.84 14.77 50.43 8.27995C47.3 14.12 42.11 25.6899 45.54 32.9199C47.17 36.3499 50.44 38.3899 55.26 38.9199C56.7482 39.1733 58.2754 39.0688 59.7152 38.6149C61.155 38.1611 62.4661 37.371 63.54 36.31C67.17 32.68 67.96 26.1099 68.02 21.4699C71.81 27.4899 77.82 39 76.24 50C75.24 56.88 71.44 62.68 64.89 67.23C64.717 67.3373 64.5677 67.4787 64.4512 67.6456C64.3346 67.8125 64.2533 68.0013 64.2121 68.2006C64.1708 68.4 64.1706 68.6056 64.2114 68.805C64.2522 69.0044 64.3331 69.1935 64.4493 69.3606C64.5655 69.5277 64.7145 69.6695 64.8872 69.7772C65.0599 69.8849 65.2527 69.9563 65.4539 69.9872C65.6551 70.018 65.8605 70.0075 66.0575 69.9564C66.2545 69.9053 66.4391 69.8147 66.6 69.69C73.86 64.69 78.1 58.1699 79.21 50.4199C81.66 33.3499 68 16.24 67.45 15.52C67.246 15.2651 66.9644 15.0837 66.648 15.0033C66.3316 14.9229 65.9976 14.948 65.6967 15.0747C65.3958 15.2014 65.1445 15.4228 64.9809 15.7053C64.8172 15.9878 64.7502 16.3159 64.79 16.64C65.22 20.17 65.44 30.2099 61.4 34.2599C60.6432 34.9932 59.7213 35.534 58.712 35.8368C57.7027 36.1396 56.6354 36.1955 55.6 36C51.82 35.55 49.41 34.13 48.24 31.65C45 24.78 52 11 55 6.29995C55.1656 6.04079 55.2476 5.73696 55.2348 5.42964C55.222 5.12232 55.1151 4.82637 54.9284 4.58188C54.7418 4.33739 54.4845 4.15619 54.1914 4.06283C53.8983 3.96947 53.5836 3.96846 53.29 4.05995C34.31 9.89995 20.5 27.62 20.5 46.2C20.4575 50.9717 21.6761 55.67 24.0327 59.8194C26.3893 63.9688 29.8001 67.4222 33.92 69.83V69.83Z" fill="white"/>
<path d="M49.65 51.87C49.8506 51.9582 50.068 52.0014 50.2871 51.9965C50.5061 51.9917 50.7215 51.9389 50.9179 51.8419C51.1144 51.7449 51.2872 51.606 51.4243 51.4351C51.5613 51.2641 51.6592 51.0652 51.7111 50.8523C51.7631 50.6395 51.7677 50.4178 51.7248 50.203C51.6818 49.9881 51.5923 49.7853 51.4626 49.6087C51.3329 49.4321 51.166 49.2861 50.9738 49.181C50.7816 49.0758 50.5687 49.014 50.35 49C35.14 45.26 37.49 30.39 37.6 29.76C37.6561 29.4255 37.5973 29.0819 37.433 28.7851C37.2687 28.4884 37.0087 28.2561 36.6954 28.1262C36.3821 27.9962 36.0341 27.9763 35.708 28.0696C35.3819 28.1629 35.0971 28.364 34.9 28.64C34.72 28.89 30.5 35 30.5 45.89C30.5 58.53 41.21 65.48 41.67 65.77C42.0052 65.9704 42.4054 66.0322 42.7855 65.9421C43.1656 65.8521 43.4955 65.6174 43.7052 65.2878C43.9149 64.9583 43.9878 64.56 43.9084 64.1776C43.829 63.7952 43.6035 63.4588 43.28 63.24C43.18 63.18 33.5 56.91 33.5 45.9C33.4835 42.6787 33.9177 39.471 34.79 36.37C35.74 42 39.07 49.3 49.65 51.87Z" fill="white"/>
</svg>
