<svg width="101" height="101" viewBox="0 0 101 101" fill="none" xmlns="http://www.w3.org/2000/svg">
<path d="M78.1347 11.1036C77.5409 10.8691 76.8525 11.0422 76.4318 11.5283C76.4117 11.5504 74.3867 13.833 66.2003 18.1658C57.8921 22.567 34.6542 36.8918 33.5904 37.551C26.1226 42.8298 22.126 51.6724 23.1616 60.6298C23.9174 67.1466 27.1552 72.7726 31.806 76.7088L25.2782 86.2832C24.8081 86.9726 24.9863 87.9106 25.6747 88.3806C25.9354 88.5587 26.2313 88.6433 26.5241 88.6433C27.0062 88.6433 27.4803 88.4128 27.7731 87.9841L34.2305 78.5144C38.1768 81.109 42.8628 82.6187 47.8266 82.6187C48.7777 82.6187 49.7378 82.5643 50.705 82.4526C59.4752 81.4371 67.0658 75.7235 70.5914 67.5099C70.6669 67.4304 70.7454 67.3328 70.8068 67.221C75.1768 60.1256 78.0291 40.8994 78.2233 35.53C78.3934 30.4143 79.0909 12.737 79.0979 12.5589C79.1221 11.9178 78.7316 11.3401 78.1347 11.1036ZM26.1608 60.2836C25.252 52.4243 28.7665 44.6595 35.2541 40.0701C35.4946 39.9222 59.3917 25.1898 67.6133 20.8349C69.0043 20.0982 70.218 19.4208 71.2949 18.7938L33.5069 74.2148C29.5485 70.7668 26.811 65.8946 26.1608 60.2836ZM68.3229 65.49C68.2675 65.5423 68.2051 65.6077 68.1417 65.6872C68.0542 65.7969 67.9827 65.9187 67.9284 66.0495C64.8798 73.4137 58.1467 78.5506 50.3558 79.4514C45.0921 80.0613 40.0417 78.7338 35.9183 76.0365L75.8843 17.423C75.6619 23.0994 75.3177 32.0246 75.205 35.4244C74.9896 41.3191 72.1182 59.0406 68.3229 65.49Z" fill="white"/>
</svg>
