<svg width="101" height="101" viewBox="0 0 101 101" fill="none" xmlns="http://www.w3.org/2000/svg">
<path d="M91.9994 25.9646L88.611 30.7495C87.7945 31.9241 86.8101 32.8599 85.7179 33.4995C84.6257 34.1391 83.4488 34.4689 82.2594 34.4689C81.07 34.4689 79.8931 34.1391 78.8009 33.4995C77.7087 32.8599 76.7242 31.9241 75.9077 30.7495C74.6494 28.952 73.1356 27.5199 71.458 26.5399C69.7803 25.5599 67.9737 25.0523 66.1474 25.048C64.3212 25.0523 62.5145 25.5599 60.8369 26.5399C59.1592 27.5199 57.6454 28.952 56.3871 30.7495C55.5707 31.9241 54.5862 32.8599 53.494 33.4995C52.4018 34.1391 51.2249 34.4689 50.0355 34.4689C48.8461 34.4689 47.6692 34.1391 46.577 33.4995C45.4848 32.8599 44.5003 31.9241 43.6839 30.7495C42.4894 29.0398 41.0511 27.6783 39.4567 26.7478C37.8622 25.8174 36.145 25.3376 34.4095 25.3376C32.6741 25.3376 30.9569 25.8174 29.3624 26.7478C27.7679 27.6783 26.3297 29.0398 25.1352 30.7495C24.3182 31.9357 23.3304 32.8813 22.2332 33.5279C21.136 34.1744 19.9527 34.508 18.7566 34.508C17.5605 34.508 16.3772 34.1744 15.28 33.5279C14.1828 32.8813 13.195 31.9357 12.378 30.7495C12.378 30.7495 10.299 27.9996 8.89504 26.038C8.51862 25.5378 8.01355 25.2565 7.48695 25.2537C6.96036 25.2509 6.45367 25.5267 6.07435 26.0228C5.69503 26.5188 5.47292 27.196 5.45514 27.9108C5.43735 28.6255 5.62529 29.3215 5.97909 29.8512C7.39657 31.8495 9.50253 34.6361 9.50253 34.6361C10.697 36.3458 12.1352 37.7073 13.7297 38.6377C15.3242 39.5681 17.0414 40.048 18.7768 40.048C20.5123 40.048 22.2295 39.5681 23.824 38.6377C25.4184 37.7073 26.8567 36.3458 28.0512 34.6361C28.8676 33.4614 29.8521 32.5257 30.9443 31.8861C32.0365 31.2465 33.2134 30.9166 34.4028 30.9166C35.5922 30.9166 36.7691 31.2465 37.8613 31.8861C38.9535 32.5257 39.938 33.4614 40.7544 34.6361C41.9489 36.3458 43.3871 37.7073 44.9816 38.6377C46.5761 39.5681 48.2933 40.048 50.0287 40.048C51.7642 40.048 53.4814 39.5681 55.0759 38.6377C56.6703 37.7073 58.1086 36.3458 59.3031 34.6361C60.1857 33.377 61.2475 32.3745 62.424 31.6896C63.6006 31.0046 64.8673 30.6514 66.1474 30.6514C67.4275 30.6514 68.6943 31.0046 69.8708 31.6896C71.0474 32.3745 72.1092 33.377 72.9918 34.6361C74.1862 36.3458 75.6245 37.7073 77.219 38.6377C78.8134 39.5681 80.5307 40.048 82.2661 40.048C84.0015 40.048 85.7188 39.5681 87.3133 38.6377C88.9077 37.7073 90.346 36.3458 91.5404 34.6361L94.9289 29.8512C95.2827 29.3215 95.4706 28.6255 95.4528 27.9108C95.435 27.196 95.2129 26.5188 94.8336 26.0228C94.4543 25.5267 93.9476 25.2509 93.421 25.2537C92.8944 25.2565 92.3893 25.5378 92.0129 26.038L91.9994 25.9646Z" fill="white"/>
<path d="M91.9994 61.9727L88.611 66.7576C87.7945 67.9322 86.8101 68.8679 85.7179 69.5075C84.6257 70.1471 83.4488 70.477 82.2594 70.477C81.07 70.477 79.8931 70.1471 78.8009 69.5075C77.7087 68.8679 76.7242 67.9322 75.9077 66.7576C74.6494 64.9601 73.1356 63.528 71.458 62.548C69.7803 61.5679 67.9737 61.0604 66.1474 61.056C64.3212 61.0604 62.5145 61.5679 60.8369 62.548C59.1592 63.528 57.6454 64.9601 56.3871 66.7576C55.5707 67.9322 54.5862 68.8679 53.494 69.5075C52.4018 70.1471 51.2249 70.477 50.0355 70.477C48.8461 70.477 47.6692 70.1471 46.577 69.5075C45.4848 68.8679 44.5003 67.9322 43.6839 66.7576C42.4894 65.0479 41.0511 63.6863 39.4567 62.7559C37.8622 61.8255 36.145 61.3456 34.4095 61.3456C32.6741 61.3456 30.9569 61.8255 29.3624 62.7559C27.7679 63.6863 26.3297 65.0479 25.1352 66.7576C24.3182 67.9437 23.3304 68.8894 22.2332 69.5359C21.136 70.1824 19.9527 70.516 18.7566 70.516C17.5605 70.516 16.3772 70.1824 15.28 69.5359C14.1828 68.8894 13.195 67.9437 12.378 66.7576C12.378 66.7576 10.299 64.0076 8.89504 62.046C8.51862 61.5459 8.01355 61.2646 7.48695 61.2618C6.96036 61.2589 6.45367 61.5348 6.07435 62.0308C5.69503 62.5269 5.47292 63.2041 5.45514 63.9188C5.43735 64.6335 5.62529 65.3296 5.97909 65.8592C7.39657 67.8575 9.50253 70.6441 9.50253 70.6441C10.697 72.3538 12.1352 73.7153 13.7297 74.6458C15.3242 75.5762 17.0414 76.056 18.7768 76.056C20.5123 76.056 22.2295 75.5762 23.824 74.6458C25.4184 73.7153 26.8567 72.3538 28.0512 70.6441C28.8676 69.4695 29.8521 68.5337 30.9443 67.8942C32.0365 67.2546 33.2134 66.9247 34.4028 66.9247C35.5922 66.9247 36.7691 67.2546 37.8613 67.8942C38.9535 68.5337 39.938 69.4695 40.7544 70.6441C41.9489 72.3538 43.3871 73.7153 44.9816 74.6458C46.5761 75.5762 48.2933 76.056 50.0287 76.056C51.7642 76.056 53.4814 75.5762 55.0759 74.6458C56.6703 73.7153 58.1086 72.3538 59.3031 70.6441C60.1857 69.385 61.2475 68.3826 62.424 67.6976C63.6006 67.0127 64.8673 66.6595 66.1474 66.6595C67.4275 66.6595 68.6943 67.0127 69.8708 67.6976C71.0474 68.3826 72.1092 69.385 72.9918 70.6441C74.1862 72.3538 75.6245 73.7153 77.219 74.6458C78.8134 75.5762 80.5307 76.056 82.2661 76.056C84.0015 76.056 85.7188 75.5762 87.3133 74.6458C88.9077 73.7153 90.346 72.3538 91.5404 70.6441L94.9289 65.8592C95.2827 65.3296 95.4706 64.6335 95.4528 63.9188C95.435 63.2041 95.2129 62.5269 94.8336 62.0308C94.4543 61.5348 93.9476 61.2589 93.421 61.2618C92.8944 61.2646 92.3893 61.5459 92.0129 62.046L91.9994 61.9727Z" fill="white"/>
</svg>
