<svg width="48" height="48" viewBox="0 0 48 48" fill="none" xmlns="http://www.w3.org/2000/svg">
<path d="M46.1576 12.4889L44.3504 15.0408C43.915 15.6673 43.3899 16.1664 42.8074 16.5075C42.2249 16.8486 41.5972 17.0245 40.9629 17.0245C40.3285 17.0245 39.7008 16.8486 39.1183 16.5075C38.5358 16.1664 38.0108 15.6673 37.5753 15.0408C36.9042 14.0821 36.0969 13.3184 35.2021 12.7957C34.3074 12.273 33.3439 12.0023 32.3698 12C31.3958 12.0023 30.4323 12.273 29.5375 12.7957C28.6428 13.3184 27.8354 14.0821 27.1643 15.0408C26.7289 15.6673 26.2038 16.1664 25.6213 16.5075C25.0388 16.8486 24.4112 17.0245 23.7768 17.0245C23.1425 17.0245 22.5148 16.8486 21.9323 16.5075C21.3498 16.1664 20.8247 15.6673 20.3893 15.0408C19.7522 14.129 18.9852 13.4028 18.1348 12.9066C17.2844 12.4104 16.3685 12.1545 15.443 12.1545C14.5174 12.1545 13.6015 12.4104 12.7512 12.9066C11.9008 13.4028 11.1337 14.129 10.4967 15.0408C10.0609 15.6734 9.53409 16.1778 8.94891 16.5226C8.36372 16.8674 7.73262 17.0453 7.09473 17.0453C6.45683 17.0453 5.82574 16.8674 5.24055 16.5226C4.65536 16.1778 4.12856 15.6734 3.69279 15.0408C3.69279 15.0408 2.58402 13.5742 1.83523 12.528C1.63447 12.2613 1.3651 12.1112 1.08425 12.1097C0.803402 12.1082 0.533166 12.2553 0.330862 12.5199C0.128558 12.7845 0.0101006 13.1456 0.000616567 13.5268C-0.00886744 13.908 0.0913677 14.2792 0.280061 14.5617C1.03605 15.6275 2.15922 17.1136 2.15922 17.1136C2.79627 18.0255 3.56334 18.7516 4.41372 19.2479C5.2641 19.7441 6.17997 20 7.10553 20C8.03109 20 8.94696 19.7441 9.79734 19.2479C10.6477 18.7516 11.4148 18.0255 12.0518 17.1136C12.4873 16.4872 13.0123 15.9881 13.5948 15.647C14.1773 15.3059 14.805 15.1299 15.4394 15.1299C16.0737 15.1299 16.7014 15.3059 17.2839 15.647C17.8664 15.9881 18.3915 16.4872 18.8269 17.1136C19.4639 18.0255 20.231 18.7516 21.0814 19.2479C21.9318 19.7441 22.8476 20 23.7732 20C24.6988 20 25.6146 19.7441 26.465 19.2479C27.3154 18.7516 28.0825 18.0255 28.7195 17.1136C29.1902 16.4421 29.7565 15.9075 30.384 15.5422C31.0115 15.1769 31.6871 14.9885 32.3698 14.9885C33.0526 14.9885 33.7282 15.1769 34.3556 15.5422C34.9831 15.9075 35.5494 16.4421 36.0202 17.1136C36.6572 18.0255 37.4243 18.7516 38.2747 19.2479C39.125 19.7441 40.0409 20 40.9665 20C41.892 20 42.8079 19.7441 43.6583 19.2479C44.5087 18.7516 45.2757 18.0255 45.9128 17.1136L47.7199 14.5617C47.9086 14.2792 48.0089 13.908 47.9994 13.5268C47.9899 13.1456 47.8714 12.7845 47.6691 12.5199C47.4668 12.2553 47.1966 12.1082 46.9158 12.1097C46.6349 12.1112 46.3655 12.2613 46.1648 12.528L46.1576 12.4889Z" fill="black"/>
<path d="M46.1576 27.6176L44.3504 30.1695C43.915 30.796 43.3899 31.2951 42.8074 31.6362C42.2249 31.9773 41.5972 32.1532 40.9629 32.1532C40.3285 32.1532 39.7008 31.9773 39.1183 31.6362C38.5358 31.2951 38.0108 30.796 37.5753 30.1695C36.9042 29.2109 36.0969 28.4471 35.2021 27.9244C34.3074 27.4017 33.3439 27.1311 32.3698 27.1287C31.3958 27.1311 30.4323 27.4017 29.5375 27.9244C28.6428 28.4471 27.8354 29.2109 27.1643 30.1695C26.7289 30.796 26.2038 31.2951 25.6213 31.6362C25.0388 31.9773 24.4112 32.1532 23.7768 32.1532C23.1425 32.1532 22.5148 31.9773 21.9323 31.6362C21.3498 31.2951 20.8247 30.796 20.3893 30.1695C19.7522 29.2577 18.9852 28.5315 18.1348 28.0353C17.2844 27.5391 16.3685 27.2832 15.443 27.2832C14.5174 27.2832 13.6015 27.5391 12.7512 28.0353C11.9008 28.5315 11.1337 29.2577 10.4967 30.1695C10.0609 30.8022 9.53409 31.3065 8.94891 31.6513C8.36372 31.9961 7.73262 32.1741 7.09473 32.1741C6.45683 32.1741 5.82574 31.9961 5.24055 31.6513C4.65536 31.3065 4.12856 30.8022 3.69279 30.1695C3.69279 30.1695 2.58402 28.7029 1.83523 27.6567C1.63447 27.39 1.3651 27.24 1.08425 27.2385C0.803402 27.2369 0.533166 27.3841 0.330862 27.6486C0.128558 27.9132 0.0101006 28.2744 0.000616567 28.6555C-0.00886744 29.0367 0.0913677 29.4079 0.280061 29.6904C1.03605 30.7562 2.15922 32.2424 2.15922 32.2424C2.79627 33.1542 3.56334 33.8804 4.41372 34.3766C5.2641 34.8728 6.17997 35.1287 7.10553 35.1287C8.03109 35.1287 8.94696 34.8728 9.79734 34.3766C10.6477 33.8804 11.4148 33.1542 12.0518 32.2424C12.4873 31.6159 13.0123 31.1168 13.5948 30.7757C14.1773 30.4346 14.805 30.2587 15.4394 30.2587C16.0737 30.2587 16.7014 30.4346 17.2839 30.7757C17.8664 31.1168 18.3915 31.6159 18.8269 32.2424C19.4639 33.1542 20.231 33.8804 21.0814 34.3766C21.9318 34.8728 22.8476 35.1287 23.7732 35.1287C24.6988 35.1287 25.6146 34.8728 26.465 34.3766C27.3154 33.8804 28.0825 33.1542 28.7195 32.2424C29.1902 31.5709 29.7565 31.0362 30.384 30.6709C31.0115 30.3056 31.6871 30.1172 32.3698 30.1172C33.0526 30.1172 33.7282 30.3056 34.3556 30.6709C34.9831 31.0362 35.5494 31.5709 36.0202 32.2424C36.6572 33.1542 37.4243 33.8804 38.2747 34.3766C39.125 34.8728 40.0409 35.1287 40.9665 35.1287C41.892 35.1287 42.8079 34.8728 43.6583 34.3766C44.5087 33.8804 45.2757 33.1542 45.9128 32.2424L47.7199 29.6904C47.9086 29.4079 48.0089 29.0367 47.9994 28.6555C47.9899 28.2744 47.8714 27.9132 47.6691 27.6486C47.4668 27.3841 47.1966 27.2369 46.9158 27.2385C46.6349 27.24 46.3655 27.39 46.1648 27.6567L46.1576 27.6176Z" fill="black"/>
</svg>
