<svg width="101" height="101" viewBox="0 0 101 101" fill="none" xmlns="http://www.w3.org/2000/svg">
<path d="M65.7776 75.7143H35.2222C28.5 75.7143 23 70.5714 23 64.2857V21.4286C23 15.1429 28.5 10 35.2222 10H65.7776C72.4998 10 77.9998 15.1429 77.9998 21.4286V64.2857C77.9998 70.5714 72.4998 75.7143 65.7776 75.7143Z" stroke="white" stroke-width="3.5" stroke-miterlimit="10" stroke-linecap="round" stroke-linejoin="round"/>
<path d="M23 89.9999L38.2777 75.7142" stroke="white" stroke-width="3.5" stroke-miterlimit="10" stroke-linecap="round" stroke-linejoin="round"/>
<path d="M78 89.9999L62.7223 75.7142" stroke="white" stroke-width="3.5" stroke-miterlimit="10" stroke-linecap="round" stroke-linejoin="round"/>
<path d="M68.8328 12.8572V38.5715C68.8328 44.8572 63.3328 50 56.6106 50H44.3884C37.6662 50 32.1663 44.8572 32.1663 38.5715V12.8572" stroke="white" stroke-width="3.5" stroke-miterlimit="10" stroke-linecap="round" stroke-linejoin="round"/>
<path d="M36.7496 67.1428C39.2809 67.1428 41.3329 65.2241 41.3329 62.8571C41.3329 60.4902 39.2809 58.5714 36.7496 58.5714C34.2183 58.5714 32.1663 60.4902 32.1663 62.8571C32.1663 65.2241 34.2183 67.1428 36.7496 67.1428Z" stroke="white" stroke-width="3.5" stroke-miterlimit="10" stroke-linecap="round" stroke-linejoin="round"/>
<path d="M64.25 67.1428C66.7813 67.1428 68.8333 65.2241 68.8333 62.8571C68.8333 60.4902 66.7813 58.5714 64.25 58.5714C61.7187 58.5714 59.6667 60.4902 59.6667 62.8571C59.6667 65.2241 61.7187 67.1428 64.25 67.1428Z" stroke="white" stroke-width="3.5" stroke-miterlimit="10" stroke-linecap="round" stroke-linejoin="round"/>
<path d="M29.1112 84.2858H71.8888" stroke="white" stroke-width="3.5" stroke-miterlimit="10" stroke-linecap="round" stroke-linejoin="round"/>
</svg>
