<svg width="101" height="101" viewBox="0 0 101 101" fill="none" xmlns="http://www.w3.org/2000/svg">
<path d="M65.7776 75.7143H35.2222C28.5 75.7143 23 70.5714 23 64.2857V21.4286C23 15.1429 28.5 10 35.2222 10H65.7776C72.4998 10 77.9998 15.1429 77.9998 21.4286V64.2857C77.9998 70.5714 72.4998 75.7143 65.7776 75.7143Z" stroke="black" stroke-width="3.5" stroke-miterlimit="10" stroke-linecap="round" stroke-linejoin="round"/>
<path d="M23 89.9999L38.2777 75.7142" stroke="black" stroke-width="3.5" stroke-miterlimit="10" stroke-linecap="round" stroke-linejoin="round"/>
<path d="M77.9999 89.9999L62.7222 75.7142" stroke="black" stroke-width="3.5" stroke-miterlimit="10" stroke-linecap="round" stroke-linejoin="round"/>
<path d="M68.833 12.8572V38.5715C68.833 44.8572 63.333 50 56.6108 50H44.3887C37.6665 50 32.1665 44.8572 32.1665 38.5715V12.8572" stroke="black" stroke-width="3.5" stroke-miterlimit="10" stroke-linecap="round" stroke-linejoin="round"/>
<path d="M36.7498 67.1428C39.2811 67.1428 41.3331 65.2241 41.3331 62.8571C41.3331 60.4902 39.2811 58.5714 36.7498 58.5714C34.2185 58.5714 32.1665 60.4902 32.1665 62.8571C32.1665 65.2241 34.2185 67.1428 36.7498 67.1428Z" stroke="black" stroke-width="3.5" stroke-miterlimit="10" stroke-linecap="round" stroke-linejoin="round"/>
<path d="M64.2498 67.1428C66.7811 67.1428 68.8331 65.2241 68.8331 62.8571C68.8331 60.4902 66.7811 58.5714 64.2498 58.5714C61.7185 58.5714 59.6665 60.4902 59.6665 62.8571C59.6665 65.2241 61.7185 67.1428 64.2498 67.1428Z" stroke="black" stroke-width="3.5" stroke-miterlimit="10" stroke-linecap="round" stroke-linejoin="round"/>
<path d="M29.1113 84.2858H71.8889" stroke="black" stroke-width="3.5" stroke-miterlimit="10" stroke-linecap="round" stroke-linejoin="round"/>
</svg>
