<svg width="101" height="101" viewBox="0 0 101 101" fill="none" xmlns="http://www.w3.org/2000/svg">
<path fill-rule="evenodd" clip-rule="evenodd" d="M50.5 66.2812H56.8125V56.8125H34.7188V66.2812H41.0312C41.0312 78.4833 41.0312 66.2812 41.0312 66.2812C41.0312 80.2264 52.3644 91.5312 66.2812 91.5312C80.2264 91.5312 91.5312 80.2259 91.5312 66.2936V12.625H82.0625V66.3061C82.0625 75.0081 74.9793 82.0625 66.2812 82.0625C57.5655 82.0625 50.5 74.9741 50.5 66.2812C50.5 72.5142 50.5 66.2812 50.5 66.2812ZM85.2188 66.3016C85.2188 76.7492 76.7189 85.2188 66.2812 85.2188C55.8224 85.2188 47.3438 76.7399 47.3438 66.2905V63.125H53.6562V59.9688H37.875V63.125H44.1875V66.2719C44.1875 78.4791 54.0689 88.375 66.2812 88.375C66.2812 88.375 57.1949 88.375 66.2812 88.375C78.4833 88.375 88.375 78.479 88.375 66.2878V31.5625H85.2188V66.3016ZM85.2188 28.4062V15.7812H88.375V28.4062H85.2188ZM12.625 36.2969V37.8715C12.625 46.5892 19.6763 53.6562 28.3876 53.6562H31.5533C33.3015 53.6562 35.5132 52.5213 36.5429 51.0503L42.1485 43.0424C44.1462 40.1885 47.3896 40.2036 49.3694 43.0424L54.9542 51.0503C55.958 52.4895 58.1563 53.6562 59.943 53.6562H63.1145C71.8361 53.6562 78.9062 46.5885 78.9062 37.8715V36.2969C78.9062 26.7096 71.108 18.9375 61.5782 18.9375H29.953C20.383 18.9375 12.625 26.7291 12.625 36.2969ZM61.5782 22.0938C69.3786 22.0938 75.75 28.4664 75.75 36.2969V37.8715C75.75 44.8453 70.093 50.5 63.1145 50.5H59.943C59.2033 50.5 57.9652 49.8501 57.5431 49.2448L51.9583 41.2369C48.7206 36.5945 42.8152 36.586 39.5628 41.2324L33.9572 49.2403C33.5265 49.8557 32.2861 50.5 31.5533 50.5H28.3876C21.4227 50.5 15.7812 44.8492 15.7812 37.8715V36.2969C15.7812 28.4637 22.1347 22.0938 29.953 22.0938H61.5782Z" fill="white"/>
</svg>
