<svg width="101" height="101" viewBox="0 0 101 101" fill="none" xmlns="http://www.w3.org/2000/svg">
<rect x="16" y="13" width="70" height="75" rx="8" stroke="white" stroke-width="3.5"/>
<path d="M50.4999 77C60.1649 77 67.9999 69.165 67.9999 59.5C67.9999 49.835 60.1649 42 50.4999 42C40.835 42 33 49.835 33 59.5C33 69.165 40.835 77 50.4999 77Z" stroke="white" stroke-width="3.5" stroke-miterlimit="10" stroke-linecap="round" stroke-linejoin="round"/>
<path d="M33.2504 57L40.5003 59.75C43.7503 61 47.5003 61 50.7503 59.25C54.0003 57.75 57.7503 57.5 61.0002 58.75L68.0002 61.5" stroke="white" stroke-width="3.5" stroke-miterlimit="10" stroke-linecap="round" stroke-linejoin="round"/>
<path d="M69.1465 29.5C68.8215 29.5 68.1715 29.5 67.8465 29.1757C67.5215 28.8513 67.1965 28.8513 66.8715 28.527C66.2215 27.8783 65.8965 27.2296 65.8965 26.2566C65.8965 25.2835 66.2215 24.6349 66.8715 23.9862C67.1965 23.6618 67.5215 23.3375 67.8465 23.3375C69.1465 22.6888 70.4465 23.0131 71.4215 23.9862C72.0715 24.6349 72.3965 25.2835 72.3965 26.2566C72.3965 26.5809 72.3965 26.5809 72.3965 26.9053C72.3965 27.2296 72.3965 27.2296 72.0715 27.5539C72.0715 27.8783 71.7465 27.8783 71.7465 28.2026L71.4215 28.527C70.7715 29.1757 70.1215 29.5 69.1465 29.5Z" fill="white"/>
<path d="M60.7295 29.5C60.4045 29.5 59.7545 29.5 59.4295 29.1757C59.1045 28.8513 58.7795 28.8513 58.4545 28.527C57.8045 27.8783 57.4795 27.2296 57.4795 26.2566C57.4795 25.2835 57.8045 24.6349 58.4545 23.9862C58.7795 23.6618 59.1045 23.3375 59.4295 23.3375C60.7295 22.6888 62.0295 23.0131 63.0045 23.9862C63.6545 24.6349 63.9795 25.2835 63.9795 26.2566C63.9795 26.5809 63.9795 26.5809 63.9795 26.9053C63.9795 27.2296 63.9795 27.2296 63.6545 27.5539C63.6545 27.8783 63.3295 27.8783 63.3295 28.2026L63.0045 28.527C62.3545 29.1757 61.7045 29.5 60.7295 29.5Z" fill="white"/>
<path d="M52.3125 29.5C51.9875 29.5 51.3375 29.5 51.0125 29.1757C50.6875 28.8513 50.3625 28.8513 50.0375 28.527C49.3875 27.8783 49.0625 27.2296 49.0625 26.2566C49.0625 25.2835 49.3875 24.6349 50.0375 23.9862C50.3625 23.6618 50.6875 23.3375 51.0125 23.3375C52.3125 22.6888 53.6125 23.0131 54.5875 23.9862C55.2375 24.6349 55.5625 25.2835 55.5625 26.2566C55.5625 26.5809 55.5625 26.5809 55.5625 26.9053C55.5625 27.2296 55.5625 27.2296 55.2375 27.5539C55.2375 27.8783 54.9125 27.8783 54.9125 28.2026L54.5875 28.527C53.9375 29.1757 53.2875 29.5 52.3125 29.5Z" fill="white"/>
</svg>
