<svg width="64" height="64" viewBox="0 0 64 64" fill="none" xmlns="http://www.w3.org/2000/svg">
<path d="M48.6667 57H15.3333C13.5 57 12 55.5 12 53.6667V10.3333C12 8.5 13.5 7 15.3333 7H48.6667C50.5 7 52 8.5 52 10.3333V53.6667C52 55.5 50.5 57 48.6667 57Z" stroke="black" stroke-width="2" stroke-miterlimit="10" stroke-linecap="round" stroke-linejoin="round"/>
<path d="M22.0001 20.3333C23.841 20.3333 25.3334 18.8409 25.3334 17C25.3334 15.159 23.841 13.6666 22.0001 13.6666C20.1591 13.6666 18.6667 15.159 18.6667 17C18.6667 18.8409 20.1591 20.3333 22.0001 20.3333Z" stroke="black" stroke-width="2" stroke-miterlimit="10" stroke-linecap="round" stroke-linejoin="round"/>
<path d="M31.9999 50.3333C38.4432 50.3333 43.6666 45.11 43.6666 38.6667C43.6666 32.2233 38.4432 27 31.9999 27C25.5566 27 20.3333 32.2233 20.3333 38.6667C20.3333 45.11 25.5566 50.3333 31.9999 50.3333Z" stroke="black" stroke-width="2" stroke-miterlimit="10" stroke-linecap="round" stroke-linejoin="round"/>
<path d="M45.3334 18.6667C45.1667 18.6667 44.8334 18.6667 44.6667 18.5001C44.5001 18.3334 44.3334 18.3334 44.1667 18.1667C43.8334 17.8334 43.6667 17.5001 43.6667 17.0001C43.6667 16.5001 43.8334 16.1667 44.1667 15.8334C44.3334 15.6667 44.5001 15.5001 44.6667 15.5001C45.3334 15.1667 46.0001 15.3334 46.5001 15.8334C46.8334 16.1667 47.0001 16.5001 47.0001 17.0001C47.0001 17.1667 47.0001 17.1667 47.0001 17.3334C47.0001 17.5001 47.0001 17.5001 46.8334 17.6667C46.8334 17.8334 46.6667 17.8334 46.6667 18.0001L46.5001 18.1667C46.1667 18.5001 45.8334 18.6667 45.3334 18.6667Z" fill="black"/>
<path d="M40.3334 18.6667C40.1667 18.6667 39.8334 18.6667 39.6667 18.5001C39.5001 18.3334 39.3334 18.3334 39.1667 18.1667C38.8334 17.8334 38.6667 17.5001 38.6667 17.0001C38.6667 16.5001 38.8334 16.1667 39.1667 15.8334C39.3334 15.6667 39.5001 15.5001 39.6667 15.5001C40.3334 15.1667 41.0001 15.3334 41.5001 15.8334C41.8334 16.1667 42.0001 16.5001 42.0001 17.0001C42.0001 17.1667 42.0001 17.1667 42.0001 17.3334C42.0001 17.5001 42.0001 17.5001 41.8334 17.6667C41.8334 17.8334 41.6667 17.8334 41.6667 18.0001L41.5001 18.1667C41.1667 18.5001 40.8334 18.6667 40.3334 18.6667Z" fill="black"/>
<path d="M35.3334 18.6667C35.1667 18.6667 34.8334 18.6667 34.6667 18.5001C34.5001 18.3334 34.3334 18.3334 34.1667 18.1667C33.8334 17.8334 33.6667 17.5001 33.6667 17.0001C33.6667 16.5001 33.8334 16.1667 34.1667 15.8334C34.3334 15.6667 34.5001 15.5001 34.6667 15.5001C35.3334 15.1667 36.0001 15.3334 36.5001 15.8334C36.8334 16.1667 37.0001 16.5001 37.0001 17.0001C37.0001 17.1667 37.0001 17.1667 37.0001 17.3334C37.0001 17.5001 37.0001 17.5001 36.8334 17.6667C36.8334 17.8334 36.6667 17.8334 36.6667 18.0001L36.5001 18.1667C36.1667 18.5001 35.8334 18.6667 35.3334 18.6667Z" fill="black"/>
<path d="M20.5 37L25.3333 38.8333C27.5 39.6667 30 39.6667 32.1667 38.5C34.3333 37.5 36.8333 37.3333 39 38.1667L43.6667 40" stroke="black" stroke-width="2" stroke-miterlimit="10" stroke-linecap="round" stroke-linejoin="round"/>
</svg>
