<svg width="101" height="101" viewBox="0 0 101 101" fill="none" xmlns="http://www.w3.org/2000/svg">
<path d="M24.253 10.0859C22.8687 10.1718 22.4604 10.2749 21.2358 10.8591C18.68 12.079 16.7099 14.4845 16.3372 16.8557C16.2485 17.457 16.142 31.3917 16.0887 48.6768L16 79.4328L16.426 79.931C16.7987 80.3778 16.9939 80.4465 17.9878 80.5152L19.1237 80.584L19.4255 81.7695C19.9757 83.986 21.6263 86.5118 23.2769 87.663C24.3418 88.4018 25.9746 89.1922 27.1993 89.553C28.3174 89.8966 32.6126 90.12 34.1744 89.931C35.3991 89.7764 35.7186 89.5014 35.7186 88.6252C35.7186 87.5771 35.4168 87.474 31.9026 87.3537C28.6724 87.2506 27.6785 87.0616 26.1344 86.3056C24.9452 85.7214 23.3124 84.1406 22.7799 83.0582C21.4843 80.498 21.5908 77.4225 23.0284 75.2231C24.324 73.23 26.5958 71.7696 28.9741 71.3744C30.5715 71.1166 30.749 70.9276 31.2637 68.9517C32.0269 65.9792 33.4468 63.6768 35.8251 61.4947C37.6531 59.8108 39.2505 58.8658 41.5401 58.1098C43.2262 57.5428 43.3149 57.5256 46.2967 57.5256C48.8879 57.5256 49.5269 57.5772 50.5563 57.8864C52.0649 58.3332 54.2835 59.3813 55.4194 60.1888C56.999 61.3057 59.0046 63.5393 59.9985 65.2919L60.9391 66.9242L60.1227 68.5393C59.2885 70.2232 58.7916 71.9929 58.7916 73.3675C58.7916 74.0376 58.8626 74.2266 59.3418 74.6046C60.4954 75.5496 61.1699 75.0341 61.5603 72.9207C62.0396 70.1888 62.785 68.7799 64.5421 67.1819C65.8022 66.0479 67.3996 65.206 68.926 64.8967C70.1861 64.639 72.6176 64.7936 73.9133 65.2404C78.8296 66.8898 81.4209 72.4568 79.4153 77.1132C78.1019 80.12 75.2444 82.2162 71.8545 82.6458C70.0441 82.8692 69.6182 83.1269 69.6182 84.0547C69.6182 85.1028 70.4523 85.498 72.2627 85.2747C74.9427 84.9482 77.2855 83.797 79.4686 81.7523L80.711 80.584L82.9118 80.5152C85.0771 80.4465 85.1126 80.4293 85.5563 79.931L86 79.4328L85.8935 48.4191C85.7693 14.4673 85.8403 16.4776 84.7399 14.5017C83.9767 13.11 82.1308 11.4433 80.5157 10.6873L79.1136 10.0172L52.4909 10C37.8484 10 25.1405 10.0344 24.253 10.0859ZM33.2338 36.237V59.9655L32.0801 61.4431C30.7667 63.1098 29.0984 66.2369 28.7257 67.663L28.4949 68.608L26.7378 69.2094C25.7794 69.5531 24.6435 70.0342 24.2353 70.2919C23.1349 70.9792 21.7328 72.4225 20.4371 74.1922C19.8159 75.0685 19.2125 75.8932 19.0882 76.0479C18.822 76.4087 18.751 19.9828 19.035 17.7148C19.1237 16.9416 19.3367 16.0825 19.4965 15.8247C20.0821 14.9313 21.431 13.677 22.3185 13.2474C23.5076 12.646 24.4305 12.5601 29.2049 12.5258L33.2338 12.5086V36.237ZM66.033 37.7147L65.9797 62.9208L64.4888 63.8314C63.6724 64.3297 62.9447 64.7077 62.8737 64.6562C62.8205 64.6218 62.3413 63.9345 61.8266 63.1098C61.3119 62.3022 60.2115 60.9448 59.324 60.0342L57.7267 58.4191V49.1064V39.7937L57.1942 39.2782C56.7505 38.8659 56.5553 38.78 56.1648 38.8831C55.8986 38.9346 55.5791 39.1064 55.4371 39.2267C55.0467 39.6047 54.9047 42.2164 54.8869 49.6562C54.8869 53.4191 54.8337 56.4947 54.7627 56.4947C54.6739 56.4947 53.8575 56.2198 52.9168 55.9105C50.0771 54.9311 48.6395 54.7078 45.569 54.828C42.392 54.9483 41.5578 55.1545 38.4873 56.5119C37.2272 57.0789 36.1445 57.4912 36.0913 57.4225C36.038 57.371 35.967 47.2335 35.9315 34.914L35.896 12.5086H50.9823H66.0685L66.033 37.7147ZM79.0781 12.921C80.285 13.3505 81.9001 14.8625 82.5745 16.1512L83.107 17.1993V43.9346V70.6699L82.4326 69.6218C81.1902 67.663 80.1253 66.3744 78.7941 65.1373C76.5046 63.0411 74.002 62.096 70.6476 62.096L68.7307 62.0789V37.2851V12.4742L73.4873 12.5429C77.4807 12.6117 78.3504 12.6632 79.0781 12.921Z" fill="black" stroke="black" stroke-width="0.8" stroke-linejoin="round"/>
<path d="M55.7574 21.0652L55.154 21.3573L55.1007 26.2713C55.0652 31.0308 55.0652 31.2026 55.4379 31.6321C55.9171 32.2335 56.6981 32.2507 57.2838 31.6665L57.7275 31.2541V26.4603C57.7275 21.7181 57.7275 21.6665 57.337 21.3229C56.7336 20.8074 56.4141 20.7559 55.7574 21.0652Z" fill="black" stroke="black" stroke-width="0.8" stroke-linejoin="round"/>
<path d="M44.6815 25.1375L44.2378 25.5498V36.9416V48.3504L44.7525 48.6425C45.4092 49.0205 45.9949 49.0034 46.5096 48.6254L46.9001 48.3333L46.8646 36.8728C46.8113 25.8935 46.7936 25.4124 46.4741 25.0687C46.0126 24.5705 45.214 24.6048 44.6815 25.1375Z" fill="black" stroke="black" stroke-width="0.8" stroke-linejoin="round"/>
<path d="M46.3315 74.3468C41.4684 75.8588 39.0901 81.1337 41.2909 85.4464C42.0896 86.9928 43.5982 88.4361 45.2133 89.1578C46.7929 89.8794 48.3725 90.034 53.3244 89.9653C57.371 89.9138 57.4065 89.9138 57.7437 89.5014C58.1875 88.9859 58.1697 88.1956 57.726 87.766C57.3888 87.4395 57.1225 87.4224 53.8746 87.4224C49.3487 87.4052 47.1656 87.2162 46.2427 86.7694C45.1601 86.2196 44.4501 85.5839 43.8822 84.6045C43.403 83.7969 43.3497 83.5908 43.3497 82.0444C43.3497 80.0856 43.5805 79.5186 44.8051 78.3159C45.6925 77.4568 46.9882 76.821 48.1951 76.6664C48.8163 76.5805 49.1357 76.443 49.331 76.1337C49.7569 75.5152 49.6682 74.8623 49.1357 74.4155C48.55 73.9344 47.7513 73.9173 46.3315 74.3468Z" fill="black" stroke="black" stroke-width="0.8" stroke-linejoin="round"/>
</svg>
