<?xml version="1.0" standalone="no"?>
<!DOCTYPE svg PUBLIC "-//W3C//DTD SVG 20010904//EN"
 "http://www.w3.org/TR/2001/REC-SVG-20010904/DTD/svg10.dtd">
<svg version="1.0" xmlns="http://www.w3.org/2000/svg"
 width="517.000000pt" height="517.000000pt" viewBox="0 0 517.000000 517.000000"
 preserveAspectRatio="xMidYMid meet">

<g transform="translate(0.000000,517.000000) scale(0.100000,-0.100000)"
fill="#000000" stroke="none">
<path d="M1074 4911 c-78 -5 -101 -11 -170 -45 -144 -71 -255 -211 -276 -349
-5 -35 -11 -846 -14 -1852 l-5 -1790 24 -29 c21 -26 32 -30 88 -34 l64 -4 17
-69 c31 -129 124 -276 217 -343 60 -43 152 -89 221 -110 63 -20 305 -33 393
-22 69 9 87 25 87 76 0 61 -17 67 -215 74 -182 6 -238 17 -325 61 -67 34 -159
126 -189 189 -73 149 -67 328 14 456 73 116 201 201 335 224 90 15 100 26 129
141 43 173 123 307 257 434 103 98 193 153 322 197 95 33 100 34 268 34 146 0
182 -3 240 -21 85 -26 210 -87 274 -134 89 -65 202 -195 258 -297 l53 -95 -46
-94 c-47 -98 -75 -201 -75 -281 0 -39 4 -50 31 -72 65 -55 103 -25 125 98 27
159 69 241 168 334 71 66 161 115 247 133 71 15 208 6 281 -20 277 -96 423
-420 310 -691 -74 -175 -235 -297 -426 -322 -102 -13 -126 -28 -126 -82 0 -61
47 -84 149 -71 151 19 283 86 406 205 l70 68 124 4 c122 4 124 5 149 34 l25
29 -6 1805 c-7 1976 -3 1859 -65 1974 -43 81 -147 178 -238 222 l-79 39 -1500
1 c-825 0 -1541 -2 -1591 -5z m506 -1522 l0 -1381 -65 -86 c-74 -97 -168 -279
-189 -362 l-13 -55 -99 -35 c-54 -20 -118 -48 -141 -63 -62 -40 -141 -124
-214 -227 -35 -51 -69 -99 -76 -108 -15 -21 -19 3263 -3 3395 5 45 17 95 26
110 33 52 109 125 159 150 67 35 119 40 388 42 l227 1 0 -1381z m1848 -86 l-3
-1467 -84 -53 c-46 -29 -87 -51 -91 -48 -3 2 -30 42 -59 90 -29 47 -91 126
-141 179 l-90 94 0 542 0 542 -30 30 c-25 24 -36 29 -58 23 -15 -3 -33 -13
-41 -20 -22 -22 -30 -174 -31 -607 0 -219 -3 -398 -7 -398 -5 0 -51 16 -104
34 -160 57 -241 70 -414 63 -179 -7 -226 -19 -399 -98 -71 -33 -132 -57 -135
-53 -3 3 -7 593 -9 1310 l-2 1304 850 0 850 0 -2 -1467z m735 1443 c68 -25
159 -113 197 -188 l30 -61 0 -1556 0 -1556 -38 61 c-70 114 -130 189 -205 261
-129 122 -270 177 -459 177 l-108 1 0 1443 0 1444 268 -4 c225 -4 274 -7 315
-22z"/>
<path d="M2849 4272 l-34 -17 -3 -286 c-2 -277 -2 -287 19 -312 27 -35 71 -36
104 -2 l25 24 0 279 c0 276 0 279 -22 299 -34 30 -52 33 -89 15z"/>
<path d="M2225 4035 l-25 -24 0 -663 0 -664 29 -17 c37 -22 70 -21 99 1 l22
17 -2 667 c-3 639 -4 667 -22 687 -26 29 -71 27 -101 -4z"/>
<path d="M2318 1171 c-274 -88 -408 -395 -284 -646 45 -90 130 -174 221 -216
89 -42 178 -51 457 -47 228 3 230 3 249 27 25 30 24 76 -1 101 -19 19 -34 20
-217 20 -255 1 -378 12 -430 38 -61 32 -101 69 -133 126 -27 47 -30 59 -30
149 0 114 13 147 82 217 50 50 123 87 191 96 35 5 53 13 64 31 24 36 19 74
-11 100 -33 28 -78 29 -158 4z"/>
</g>
</svg>
