<svg width="101" height="101" viewBox="0 0 101 101" fill="none" xmlns="http://www.w3.org/2000/svg">
<path d="M89.9733 89.0297L87.068 91.8711C86.368 92.5686 85.5239 93.1243 84.5874 93.5041C83.651 93.8839 82.6419 94.0798 81.6221 94.0798C80.6023 94.0798 79.5933 93.8839 78.6568 93.5041C77.7204 93.1243 76.8762 92.5686 76.1762 91.8711C75.0974 90.8037 73.7994 89.9533 72.361 89.3713C70.9226 88.7893 69.3736 88.4879 67.8077 88.4854C66.2419 88.4879 64.6929 88.7893 63.2544 89.3713C61.816 89.9533 60.5181 90.8037 59.4392 91.8711C58.7392 92.5686 57.8951 93.1243 56.9586 93.5041C56.0222 93.8839 55.0131 94.0798 53.9933 94.0798C52.9735 94.0798 51.9644 93.8839 51.028 93.5041C50.0915 93.1243 49.2474 92.5686 48.5474 91.8711C47.5233 90.8558 46.2901 90.0473 44.923 89.4948C43.5559 88.9423 42.0836 88.6573 40.5956 88.6573C39.1076 88.6573 37.6353 88.9423 36.2682 89.4948C34.9011 90.0473 33.6679 90.8558 32.6438 91.8711C31.9432 92.5755 31.0963 93.1371 30.1556 93.521C29.2148 93.9049 28.2002 94.103 27.1747 94.103C26.1492 94.103 25.1347 93.9049 24.1939 93.521C23.2531 93.1371 22.4062 92.5755 21.7057 91.8711C21.7057 91.8711 19.9232 90.2381 18.7194 89.0732C18.3967 88.7763 17.9636 88.6092 17.5121 88.6075C17.0606 88.6059 16.6262 88.7697 16.3009 89.0642C15.9757 89.3588 15.7853 89.7609 15.77 90.1854C15.7548 90.6098 15.9159 91.0231 16.2193 91.3377C17.4346 92.5243 19.2403 94.1791 19.2403 94.1791C20.2644 95.1944 21.4976 96.0029 22.8647 96.5554C24.2318 97.1079 25.7041 97.3929 27.1921 97.3929C28.6801 97.3929 30.1524 97.1079 31.5195 96.5554C32.8866 96.0029 34.1198 95.1944 35.1439 94.1791C35.8439 93.4816 36.688 92.9259 37.6245 92.5461C38.5609 92.1663 39.57 91.9703 40.5898 91.9703C41.6096 91.9703 42.6187 92.1663 43.5551 92.5461C44.4916 92.9259 45.3357 93.4816 46.0357 94.1791C47.0598 95.1944 48.293 96.0029 49.6601 96.5554C51.0272 97.1079 52.4996 97.3929 53.9875 97.3929C55.4755 97.3929 56.9479 97.1079 58.315 96.5554C59.682 96.0029 60.9152 95.1944 61.9393 94.1791C62.6961 93.4314 63.6065 92.8361 64.6153 92.4294C65.624 92.0226 66.7102 91.8129 67.8077 91.8129C68.9053 91.8129 69.9914 92.0226 71.0002 92.4294C72.0089 92.8361 72.9193 93.4314 73.6761 94.1791C74.7002 95.1944 75.9334 96.0029 77.3005 96.5554C78.6676 97.1079 80.14 97.3929 81.6279 97.3929C83.1159 97.3929 84.5882 97.1079 85.9553 96.5554C87.3224 96.0029 88.5556 95.1944 89.5797 94.1791L92.485 91.3377C92.7883 91.0231 92.9495 90.6098 92.9342 90.1854C92.919 89.7609 92.7285 89.3588 92.4033 89.0642C92.0781 88.7697 91.6436 88.6059 91.1921 88.6075C90.7406 88.6092 90.3076 88.7763 89.9848 89.0732L89.9733 89.0297Z" fill="black"/>
<path d="M93.526 25.5983C93.4334 25.4459 83.6297 10.923 63.4318 17.7599C61.8924 11.9246 56.487 3.60718 43.7548 3.60718H43.2803C42.9635 3.61757 42.6559 3.70929 42.3907 3.87241C42.1254 4.03553 41.9127 4.26383 41.7756 4.53255C41.7756 4.63053 38.0601 12.5343 44.4725 19.0663C41.8807 19.0221 39.306 19.4701 36.9026 20.3836C32.157 22.2452 28.5804 25.9576 26.2423 31.4445C26.1497 31.6496 26.1028 31.8704 26.1043 32.0932C26.1059 32.316 26.1559 32.5362 26.2513 32.7402C26.3468 32.9441 26.4855 33.1276 26.6592 33.2792C26.8328 33.4308 27.0376 33.5474 27.2609 33.6218C27.7239 33.7851 36.7637 36.8116 45.5721 35.2875C39.7847 43.0388 37.1341 51.6175 36.9489 62.907H36.7869C26.8922 62.9062 17.1534 65.2261 8.452 69.6567C8.20539 69.7263 7.97832 69.8465 7.78721 70.0088C7.5961 70.171 7.44575 70.3712 7.34704 70.5949C7.24833 70.8185 7.20374 71.06 7.21649 71.3018C7.22923 71.5437 7.299 71.7798 7.42075 71.9932C7.54249 72.2066 7.71315 72.3918 7.92039 72.5355C8.12762 72.6791 8.36623 72.7777 8.61893 72.8239C8.87164 72.8702 9.13212 72.863 9.38151 72.8029C9.6309 72.7428 9.86296 72.6313 10.0609 72.4764C21.5643 66.6218 34.8837 64.7393 47.7085 67.1554C60.5333 69.5714 72.0543 76.1337 80.273 85.7037C80.5631 86.0401 80.9834 86.2543 81.4414 86.2992C81.8994 86.3441 82.3576 86.2161 82.7153 85.9432C83.0729 85.6704 83.3006 85.2751 83.3484 84.8443C83.3961 84.4135 83.26 83.9825 82.9699 83.6461C75.1565 74.5227 64.4845 67.9477 52.4706 64.8557C52.4706 61.7421 52.9336 49.3857 56.9268 39.555C58.9061 44.171 63.154 49.6797 72.1939 52.6191C72.5796 52.7441 72.9999 52.7373 73.3809 52.5999C73.7618 52.4626 74.0792 52.2034 74.2773 51.8679C74.3583 51.7373 80.5161 40.9812 73.2124 31.5533C78.9998 32.642 87.1021 32.7291 93.1904 27.6885C93.5007 27.4341 93.7048 27.0843 93.7663 26.7014C93.8278 26.3185 93.7426 25.9276 93.526 25.5983V25.5983ZM67.5756 26.4257C67.2004 26.1976 66.7461 26.1144 66.3073 26.1932C65.8685 26.2721 65.479 26.507 65.2196 26.8491C64.9602 27.1912 64.851 27.6141 64.9147 28.03C64.9784 28.4459 65.2101 28.8227 65.5616 29.082V29.082C76.2103 36.0278 73.3745 45.5536 71.8813 48.972C62.9804 45.5754 59.9478 39.3046 58.9871 34.5363C58.9215 34.203 58.7473 33.8972 58.4887 33.6612C58.23 33.4253 57.8996 33.2709 57.5435 33.2194C57.1873 33.168 56.8229 33.222 56.5009 33.3741C56.1789 33.5262 55.9151 33.7687 55.7462 34.0681C49.9589 44.367 49.1255 59.2055 49.0213 64.0392C46.1752 63.4787 43.2892 63.1149 40.3866 62.9505C40.6181 50.3764 44.0095 41.4058 51.7182 33.121C51.9837 32.8363 52.1358 32.4736 52.1483 32.095C52.1609 31.7165 52.0331 31.3456 51.7869 31.0459C51.5408 30.7461 51.1915 30.5362 50.7989 30.452C50.4062 30.3679 49.9947 30.4146 49.6348 30.5844C42.8867 33.7633 33.9511 31.9997 30.1893 31.0199C31.7492 27.6363 34.592 24.9198 38.1642 23.3992C44.4725 20.917 51.2552 23.5298 51.3131 23.5516C51.7283 23.6985 52.1876 23.6903 52.5966 23.5288C53.0056 23.3672 53.3333 23.0645 53.5125 22.6828C53.6918 22.3011 53.7088 21.8694 53.5603 21.4762C53.4117 21.0831 53.1088 20.7583 52.7136 20.5686C42.771 16.2793 43.7548 9.38801 44.5303 6.82964C58.6052 7.28688 60.2951 19.6433 60.4108 20.1876C60.4419 20.4391 60.5348 20.6803 60.682 20.8922C60.8292 21.1042 61.0268 21.281 61.2592 21.4087C61.4916 21.5365 61.7524 21.6117 62.021 21.6284C62.2895 21.6451 62.5586 21.6028 62.8068 21.5049C78.3516 15.343 86.9169 23.0399 89.6601 26.1426C81.3379 31.586 69.0224 27.2857 67.5756 26.4257Z" fill="black"/>
</svg>
