<svg width="700" height="700" viewBox="0 0 700 700" fill="none" xmlns="http://www.w3.org/2000/svg">
<path d="M623.576 617.037L603.44 636.73C598.589 641.565 592.738 645.416 586.248 648.048C579.758 650.681 572.764 652.038 565.696 652.038C558.628 652.038 551.635 650.681 545.145 648.048C538.654 645.416 532.804 641.565 527.953 636.73C520.475 629.332 511.48 623.438 501.51 619.405C491.541 615.372 480.805 613.283 469.953 613.265C459.101 613.283 448.365 615.372 438.396 619.405C428.426 623.438 419.431 629.332 411.953 636.73C407.102 641.565 401.252 645.416 394.761 648.048C388.271 650.681 381.278 652.038 374.21 652.038C367.142 652.038 360.148 650.681 353.658 648.048C347.168 645.416 341.317 641.565 336.466 636.73C329.368 629.694 320.821 624.09 311.346 620.261C301.871 616.431 291.667 614.457 281.354 614.457C271.042 614.457 260.837 616.431 251.362 620.261C241.887 624.09 233.341 629.694 226.243 636.73C221.387 641.612 215.518 645.504 208.998 648.165C202.477 650.826 195.446 652.199 188.338 652.199C181.231 652.199 174.199 650.826 167.679 648.165C161.159 645.504 155.289 641.612 150.434 636.73C150.434 636.73 138.08 625.412 129.737 617.339C127.5 615.281 124.499 614.123 121.37 614.111C118.241 614.1 115.23 615.235 112.976 617.277C110.721 619.318 109.402 622.105 109.296 625.047C109.19 627.989 110.307 630.853 112.409 633.033C120.833 641.257 133.347 652.726 133.347 652.726C140.445 659.763 148.992 665.366 158.467 669.196C167.942 673.025 178.146 675 188.459 675C198.771 675 208.976 673.025 218.451 669.196C227.926 665.366 236.472 659.763 243.57 652.726C248.422 647.892 254.272 644.041 260.762 641.408C267.253 638.776 274.246 637.418 281.314 637.418C288.382 637.418 295.376 638.776 301.866 641.408C308.356 644.041 314.206 647.892 319.058 652.726C326.156 659.763 334.703 665.366 344.177 669.196C353.652 673.025 363.857 675 374.17 675C384.482 675 394.687 673.025 404.162 669.196C413.636 665.366 422.183 659.763 429.281 652.726C434.526 647.544 440.836 643.418 447.827 640.599C454.819 637.78 462.346 636.327 469.953 636.327C477.56 636.327 485.087 637.78 492.079 640.599C499.07 643.418 505.38 647.544 510.625 652.726C517.723 659.763 526.27 665.366 535.744 669.196C545.219 673.025 555.424 675 565.736 675C576.049 675 586.254 673.025 595.729 669.196C605.203 665.366 613.75 659.763 620.848 652.726L640.983 633.033C643.086 630.853 644.203 627.989 644.097 625.047C643.991 622.105 642.672 619.318 640.417 617.277C638.163 615.235 635.152 614.1 632.023 614.111C628.894 614.123 625.893 615.281 623.656 617.339L623.576 617.037Z" fill="black"/>
<path d="M648.2 177.414C647.558 176.357 579.611 75.704 439.626 123.088C428.957 82.6456 391.493 25 303.251 25H299.962C297.767 25.072 295.634 25.7077 293.796 26.8383C291.958 27.9688 290.483 29.551 289.533 31.4134C289.533 32.0925 263.782 86.8709 308.224 132.142C290.262 131.836 272.417 134.941 255.76 141.272C222.87 154.174 198.081 179.904 181.877 217.932C181.235 219.353 180.91 220.883 180.921 222.428C180.931 223.972 181.278 225.498 181.939 226.912C182.601 228.325 183.563 229.597 184.766 230.648C185.969 231.698 187.388 232.506 188.936 233.022C192.145 234.154 254.797 255.13 315.845 244.566C275.735 298.288 257.365 357.745 256.081 435.989H254.958C186.381 435.983 118.885 452.062 58.5777 482.769C56.8686 483.251 55.2948 484.085 53.9703 485.209C52.6458 486.334 51.6037 487.721 50.9196 489.271C50.2355 490.821 49.9264 492.495 50.0148 494.171C50.1031 495.847 50.5867 497.484 51.4304 498.962C52.2742 500.441 53.457 501.725 54.8933 502.721C56.3295 503.716 57.9833 504.399 59.7347 504.72C61.4861 505.041 63.2914 504.991 65.0199 504.574C66.7483 504.158 68.3567 503.385 69.7284 502.311C149.455 461.735 241.768 448.688 330.652 465.433C419.537 482.178 499.386 527.659 556.347 593.986C558.358 596.317 561.27 597.802 564.445 598.113C567.619 598.425 570.795 597.537 573.274 595.646C575.752 593.755 577.331 591.015 577.662 588.03C577.993 585.044 577.049 582.057 575.038 579.726C520.886 516.493 446.922 470.924 363.657 449.495C363.657 427.915 366.866 342.277 394.542 274.144C408.26 306.135 437.701 344.314 500.353 364.686C503.027 365.553 505.939 365.506 508.58 364.554C511.22 363.602 513.42 361.806 514.793 359.48C515.354 358.575 558.032 284.028 507.412 218.686C547.523 226.231 603.677 226.835 645.873 191.901C648.024 190.137 649.439 187.712 649.865 185.059C650.291 182.405 649.701 179.696 648.2 177.414V177.414ZM468.345 183.148C465.745 181.567 462.596 180.99 459.555 181.537C456.514 182.083 453.814 183.711 452.016 186.082C450.219 188.453 449.462 191.385 449.903 194.267C450.345 197.15 451.95 199.761 454.386 201.558V201.558C528.19 249.697 508.535 315.718 498.187 339.41C436.497 315.869 415.479 272.408 408.821 239.36C408.367 237.05 407.159 234.931 405.366 233.295C403.574 231.66 401.284 230.59 398.816 230.233C396.347 229.877 393.822 230.251 391.59 231.305C389.358 232.359 387.53 234.041 386.359 236.116C346.249 307.494 340.473 410.335 339.751 443.836C320.025 439.951 300.024 437.429 279.907 436.291C281.511 349.143 305.016 286.971 358.443 229.551C360.283 227.578 361.337 225.064 361.424 222.44C361.51 219.817 360.625 217.246 358.919 215.169C357.213 213.092 354.792 211.637 352.071 211.053C349.35 210.47 346.498 210.794 344.003 211.971C297.234 234.003 235.304 221.78 209.232 214.989C220.044 191.539 239.746 172.711 264.504 162.172C308.224 144.969 355.234 163.078 355.635 163.229C358.513 164.247 361.696 164.19 364.53 163.07C367.365 161.951 369.636 159.853 370.878 157.207C372.121 154.562 372.239 151.57 371.209 148.845C370.18 146.12 368.08 143.869 365.342 142.555C296.432 112.827 303.251 65.0652 308.626 47.3339C406.174 50.5029 417.886 136.141 418.688 139.914C418.904 141.657 419.547 143.329 420.568 144.797C421.588 146.266 422.958 147.492 424.568 148.377C426.179 149.263 427.986 149.784 429.848 149.899C431.709 150.015 433.574 149.722 435.294 149.044C543.03 106.338 602.394 159.682 621.406 181.186C563.727 218.913 478.372 189.109 468.345 183.148Z" fill="black"/>
</svg>
