<svg width="101" height="101" viewBox="0 0 101 101" fill="none" xmlns="http://www.w3.org/2000/svg">
<path d="M89.973 89.0297L87.0678 91.8711C86.3678 92.5686 85.5236 93.1243 84.5872 93.5041C83.6507 93.8839 82.6417 94.0798 81.6219 94.0798C80.6021 94.0798 79.593 93.8839 78.6566 93.5041C77.7201 93.1243 76.876 92.5686 76.176 91.8711C75.0971 90.8037 73.7992 89.9533 72.3608 89.3713C70.9223 88.7893 69.3733 88.4879 67.8075 88.4854C66.2416 88.4879 64.6926 88.7893 63.2542 89.3713C61.8158 89.9533 60.5178 90.8037 59.439 91.8711C58.7389 92.5686 57.8948 93.1243 56.9584 93.5041C56.0219 93.8839 55.0129 94.0798 53.9931 94.0798C52.9733 94.0798 51.9642 93.8839 51.0278 93.5041C50.0913 93.1243 49.2472 92.5686 48.5472 91.8711C47.523 90.8558 46.2899 90.0473 44.9228 89.4948C43.5557 88.9423 42.0833 88.6573 40.5954 88.6573C39.1074 88.6573 37.635 88.9423 36.2679 89.4948C34.9008 90.0473 33.6677 90.8558 32.6435 91.8711C31.943 92.5755 31.0961 93.1371 30.1553 93.521C29.2146 93.9049 28.2 94.103 27.1745 94.103C26.149 94.103 25.1344 93.9049 24.1937 93.521C23.2529 93.1371 22.406 92.5755 21.7054 91.8711C21.7054 91.8711 19.9229 90.2381 18.7192 89.0732C18.3964 88.7763 17.9634 88.6092 17.5119 88.6075C17.0604 88.6059 16.6259 88.7697 16.3007 89.0642C15.9755 89.3588 15.785 89.7609 15.7698 90.1854C15.7545 90.6098 15.9157 91.0231 16.219 91.3377C17.4344 92.5243 19.24 94.1791 19.24 94.1791C20.2642 95.1944 21.4973 96.0029 22.8644 96.5554C24.2315 97.1079 25.7039 97.3929 27.1918 97.3929C28.6798 97.3929 30.1522 97.1079 31.5193 96.5554C32.8864 96.0029 34.1195 95.1944 35.1437 94.1791C35.8437 93.4816 36.6878 92.9259 37.6242 92.5461C38.5607 92.1663 39.5698 91.9703 40.5896 91.9703C41.6094 91.9703 42.6184 92.1663 43.5549 92.5461C44.4913 92.9259 45.3354 93.4816 46.0355 94.1791C47.0596 95.1944 48.2928 96.0029 49.6599 96.5554C51.0269 97.1079 52.4993 97.3929 53.9873 97.3929C55.4752 97.3929 56.9476 97.1079 58.3147 96.5554C59.6818 96.0029 60.915 95.1944 61.9391 94.1791C62.6959 93.4314 63.6063 92.8361 64.615 92.4294C65.6238 92.0226 66.7099 91.8129 67.8075 91.8129C68.905 91.8129 69.9911 92.0226 70.9999 92.4294C72.0087 92.8361 72.9191 93.4314 73.6758 94.1791C74.7 95.1944 75.9332 96.0029 77.3002 96.5554C78.6673 97.1079 80.1397 97.3929 81.6277 97.3929C83.1156 97.3929 84.588 97.1079 85.9551 96.5554C87.3222 96.0029 88.5554 95.1944 89.5795 94.1791L92.4847 91.3377C92.7881 91.0231 92.9492 90.6098 92.934 90.1854C92.9187 89.7609 92.7283 89.3588 92.4031 89.0642C92.0778 88.7697 91.6434 88.6059 91.1919 88.6075C90.7404 88.6092 90.3073 88.7763 89.9846 89.0732L89.973 89.0297Z" fill="white"/>
<path d="M93.5259 25.5983C93.4333 25.4459 83.6295 10.923 63.4317 17.7599C61.8923 11.9246 56.4869 3.60718 43.7547 3.60718H43.2801C42.9634 3.61757 42.6558 3.70929 42.3905 3.87241C42.1253 4.03553 41.9126 4.26383 41.7754 4.53255C41.7754 4.63053 38.06 12.5343 44.4723 19.0663C41.8805 19.0221 39.3059 19.4701 36.9025 20.3836C32.1569 22.2452 28.5803 25.9576 26.2422 31.4445C26.1496 31.6496 26.1027 31.8703 26.1042 32.0932C26.1058 32.316 26.1558 32.5362 26.2512 32.7402C26.3466 32.9441 26.4854 33.1276 26.659 33.2792C26.8327 33.4308 27.0374 33.5474 27.2608 33.6218C27.7237 33.7851 36.7636 36.8116 45.5719 35.2875C39.7846 43.0388 37.134 51.6175 36.9488 62.907H36.7867C26.892 62.9062 17.1533 65.2261 8.45188 69.6567C8.20527 69.7263 7.97819 69.8465 7.78709 70.0088C7.59598 70.171 7.44563 70.3712 7.34692 70.5949C7.24821 70.8185 7.20362 71.06 7.21636 71.3018C7.22911 71.5437 7.29888 71.7798 7.42062 71.9932C7.54237 72.2066 7.71303 72.3918 7.92026 72.5355C8.12749 72.6791 8.3661 72.7777 8.61881 72.8239C8.87152 72.8702 9.132 72.863 9.38139 72.8029C9.63078 72.7428 9.86284 72.6313 10.0608 72.4764C21.5642 66.6218 34.8836 64.7393 47.7084 67.1554C60.5332 69.5714 72.0542 76.1337 80.2729 85.7037C80.563 86.0401 80.9833 86.2543 81.4413 86.2992C81.8993 86.3441 82.3575 86.2161 82.7151 85.9432C83.0728 85.6704 83.3005 85.2751 83.3483 84.8443C83.396 84.4135 83.2599 83.9825 82.9698 83.6461C75.1564 74.5227 64.4843 67.9477 52.4705 64.8557C52.4705 61.7421 52.9334 49.3857 56.9267 39.555C58.906 44.171 63.1539 49.6797 72.1937 52.6191C72.5795 52.7441 72.9998 52.7373 73.3807 52.5999C73.7617 52.4626 74.0791 52.2034 74.2772 51.8679C74.3582 51.7373 80.516 40.9812 73.2123 31.5533C78.9997 32.642 87.102 32.7291 93.1902 27.6885C93.5006 27.4341 93.7047 27.0843 93.7662 26.7014C93.8277 26.3185 93.7425 25.9276 93.5259 25.5983ZM67.5754 26.4257C67.2002 26.1976 66.746 26.1144 66.3072 26.1932C65.8684 26.2721 65.4788 26.507 65.2195 26.8491C64.9601 27.1912 64.8509 27.6141 64.9146 28.03C64.9783 28.4459 65.2099 28.8227 65.5614 29.082C76.2102 36.0278 73.3744 45.5536 71.8812 48.972C62.9803 45.5754 59.9477 39.3046 58.987 34.5363C58.9214 34.203 58.7472 33.8972 58.4885 33.6612C58.2299 33.4253 57.8995 33.2709 57.5433 33.2194C57.1872 33.168 56.8228 33.222 56.5008 33.3741C56.1787 33.5262 55.915 33.7687 55.7461 34.0681C49.9587 44.367 49.1254 59.2055 49.0212 64.0392C46.175 63.4787 43.2891 63.1149 40.3865 62.9505C40.618 50.3764 44.0093 41.4058 51.7181 33.121C51.9836 32.8363 52.1357 32.4736 52.1482 32.095C52.1607 31.7165 52.033 31.3456 51.7868 31.0459C51.5406 30.7461 51.1913 30.5362 50.7987 30.452C50.4061 30.3679 49.9946 30.4146 49.6347 30.5844C42.8866 33.7633 33.9509 31.9997 30.1892 31.0199C31.7491 27.6363 34.5919 24.9198 38.1641 23.3992C44.4723 20.917 51.2551 23.5298 51.313 23.5516C51.7282 23.6985 52.1875 23.6903 52.5965 23.5288C53.0055 23.3672 53.3332 23.0645 53.5124 22.6828C53.6916 22.3011 53.7087 21.8694 53.5601 21.4762C53.4116 21.0831 53.1086 20.7583 52.7135 20.5686C42.7709 16.2793 43.7547 9.38801 44.5302 6.82964C58.605 7.28688 60.2949 19.6433 60.4107 20.1876C60.4418 20.4391 60.5346 20.6803 60.6819 20.8922C60.8291 21.1042 61.0267 21.281 61.2591 21.4087C61.4915 21.5365 61.7523 21.6117 62.0208 21.6284C62.2894 21.6451 62.5584 21.6028 62.8067 21.5049C78.3515 15.343 86.9168 23.0399 89.66 26.1426C81.3378 31.586 69.0223 27.2857 67.5754 26.4257Z" fill="white"/>
</svg>
