<svg width="101" height="101" viewBox="0 0 101 101" fill="none" xmlns="http://www.w3.org/2000/svg">
<path d="M84.7099 25.24C84.6299 25.1 76.1599 11.76 58.7099 18.04C57.3799 12.68 52.7099 5.04004 41.7099 5.04004H41.2999C41.0263 5.04958 40.7605 5.13384 40.5313 5.28367C40.3021 5.43351 40.1184 5.64321 39.9999 5.89004C39.9999 5.98004 36.7899 13.24 42.3299 19.24C40.0907 19.1994 37.8663 19.611 35.7899 20.45C31.6899 22.16 28.5999 25.57 26.5799 30.61C26.4999 30.7985 26.4594 31.0012 26.4607 31.2059C26.462 31.4106 26.5053 31.6129 26.5877 31.8002C26.6701 31.9876 26.79 32.1561 26.94 32.2953C27.09 32.4346 27.2669 32.5417 27.4599 32.61C27.8599 32.76 35.6699 35.54 43.2799 34.14C38.2799 41.26 35.9899 49.14 35.8299 59.51H35.6899C27.1413 59.5093 18.7275 61.6402 11.2099 65.71C10.9968 65.7739 10.8007 65.8844 10.6355 66.0334C10.4704 66.1824 10.3405 66.3663 10.2553 66.5717C10.17 66.7772 10.1315 66.999 10.1425 67.2211C10.1535 67.4433 10.2138 67.6602 10.3189 67.8562C10.4241 68.0522 10.5716 68.2223 10.7506 68.3543C10.9296 68.4863 11.1358 68.5768 11.3541 68.6192C11.5724 68.6617 11.7975 68.6551 12.0129 68.5999C12.2284 68.5447 12.4289 68.4423 12.5999 68.3C22.5383 62.9223 34.0456 61.1931 45.1257 63.4124C56.2057 65.6317 66.1593 71.6594 73.2599 80.45C73.5105 80.759 73.8736 80.9558 74.2693 80.997C74.665 81.0383 75.0609 80.9207 75.3699 80.67C75.6789 80.4194 75.8756 80.0563 75.9169 79.6606C75.9581 79.2649 75.8405 78.869 75.5899 78.56C68.8395 70.1796 59.6193 64.1402 49.2399 61.3C49.2399 58.44 49.6399 47.09 53.0899 38.06C54.7999 42.3 58.4699 47.36 66.2799 50.06C66.6132 50.1749 66.9762 50.1686 67.3054 50.0425C67.6346 49.9163 67.9088 49.6782 68.0799 49.37C68.1499 49.25 73.4699 39.37 67.1599 30.71C72.1599 31.71 79.1599 31.79 84.4199 27.16C84.688 26.9263 84.8644 26.605 84.9175 26.2533C84.9706 25.9016 84.897 25.5425 84.7099 25.24ZM62.2899 26C61.9657 25.7905 61.5733 25.7141 61.1942 25.7865C60.8151 25.8589 60.4785 26.0747 60.2544 26.3889C60.0303 26.7032 59.936 27.0917 59.991 27.4737C60.0461 27.8557 60.2462 28.2018 60.5499 28.44C69.7499 34.82 67.2999 43.57 66.0099 46.71C58.3199 43.59 55.6999 37.83 54.8699 33.45C54.8132 33.1439 54.6627 32.863 54.4392 32.6463C54.2157 32.4295 53.9303 32.2877 53.6226 32.2404C53.3149 32.1932 53.0001 32.2428 52.7219 32.3825C52.4437 32.5222 52.2158 32.745 52.0699 33.02C47.0699 42.48 46.3499 56.11 46.2599 60.55C43.8009 60.0352 41.3076 59.701 38.7999 59.55C38.9999 48 41.9299 39.76 48.5899 32.15C48.8193 31.8885 48.9507 31.5553 48.9615 31.2076C48.9723 30.8599 48.8619 30.5192 48.6493 30.2439C48.4366 29.9686 48.1348 29.7758 47.7956 29.6984C47.4564 29.6211 47.1009 29.6641 46.7899 29.82C40.9599 32.74 33.2399 31.12 29.9899 30.22C31.3376 27.1121 33.7937 24.6168 36.8799 23.22C42.3299 20.94 48.1899 23.34 48.2399 23.36C48.5986 23.495 48.9954 23.4875 49.3488 23.3391C49.7021 23.1906 49.9853 22.9126 50.1401 22.562C50.2949 22.2114 50.3097 21.8148 50.1813 21.4537C50.053 21.0926 49.7913 20.7943 49.4499 20.62C40.8599 16.68 41.7099 10.35 42.3799 8.00004C54.5399 8.42004 55.9999 19.77 56.0999 20.27C56.1268 20.501 56.207 20.7226 56.3342 20.9173C56.4614 21.1119 56.6321 21.2744 56.8329 21.3917C57.0336 21.5091 57.2589 21.5781 57.491 21.5935C57.723 21.6088 57.9554 21.57 58.1699 21.48C71.5999 15.82 78.9999 22.89 81.3699 25.74C74.1799 30.74 63.5399 26.79 62.2899 26Z" fill="black"/>
<path d="M81.6402 83.5051L79.1302 86.1151C78.5254 86.7558 77.7962 87.2663 76.9871 87.6152C76.1781 87.964 75.3063 88.144 74.4252 88.144C73.5442 88.144 72.6724 87.964 71.8633 87.6152C71.0543 87.2663 70.325 86.7558 69.7202 86.1151C68.7881 85.1346 67.6668 84.3535 66.4241 83.8189C65.1813 83.2844 63.8431 83.0075 62.4902 83.0051C61.1374 83.0075 59.7991 83.2844 58.5564 83.8189C57.3137 84.3535 56.1923 85.1346 55.2602 86.1151C54.6554 86.7558 53.9262 87.2663 53.1171 87.6152C52.3081 87.964 51.4363 88.144 50.5552 88.144C49.6742 88.144 48.8024 87.964 47.9933 87.6152C47.1843 87.2663 46.455 86.7558 45.8502 86.1151C44.9654 85.1825 43.9 84.4399 42.7189 83.9324C41.5378 83.4248 40.2658 83.1631 38.9802 83.1631C37.6947 83.1631 36.4226 83.4248 35.2415 83.9324C34.0604 84.4399 32.995 85.1825 32.1102 86.1151C31.505 86.7622 30.7733 87.278 29.9605 87.6306C29.1478 87.9833 28.2712 88.1653 27.3852 88.1653C26.4992 88.1653 25.6227 87.9833 24.8099 87.6306C23.9972 87.278 23.2655 86.7622 22.6602 86.1151C22.6602 86.1151 21.1202 84.6151 20.0802 83.5451C19.8014 83.2723 19.4273 83.1189 19.0372 83.1174C18.6471 83.1158 18.2718 83.2663 17.9908 83.5369C17.7098 83.8074 17.5453 84.1768 17.5321 84.5667C17.5189 84.9565 17.6582 85.3362 17.9202 85.6251C18.9702 86.7151 20.5302 88.2351 20.5302 88.2351C21.415 89.1677 22.4804 89.9104 23.6615 90.4179C24.8426 90.9254 26.1147 91.1871 27.4002 91.1871C28.6858 91.1871 29.9578 90.9254 31.1389 90.4179C32.32 89.9104 33.3854 89.1677 34.2702 88.2351C34.875 87.5944 35.6043 87.084 36.4133 86.7351C37.2224 86.3862 38.0942 86.2063 38.9752 86.2063C39.8563 86.2063 40.7281 86.3862 41.5371 86.7351C42.3462 87.084 43.0754 87.5944 43.6802 88.2351C44.565 89.1677 45.6304 89.9104 46.8115 90.4179C47.9926 90.9254 49.2647 91.1871 50.5502 91.1871C51.8358 91.1871 53.1078 90.9254 54.2889 90.4179C55.47 89.9104 56.5354 89.1677 57.4202 88.2351C58.074 87.5483 58.8606 87.0015 59.7321 86.6279C60.6036 86.2543 61.542 86.0616 62.4902 86.0616C63.4385 86.0616 64.3768 86.2543 65.2484 86.6279C66.1199 87.0015 66.9064 87.5483 67.5602 88.2351C68.445 89.1677 69.5104 89.9104 70.6915 90.4179C71.8726 90.9254 73.1447 91.1871 74.4302 91.1871C75.7158 91.1871 76.9878 90.9254 78.1689 90.4179C79.35 89.9104 80.4154 89.1677 81.3002 88.2351L83.8102 85.6251C84.0723 85.3362 84.2115 84.9565 84.1983 84.5667C84.1852 84.1768 84.0207 83.8074 83.7397 83.5369C83.4587 83.2663 83.0834 83.1158 82.6933 83.1174C82.3032 83.1189 81.9291 83.2723 81.6502 83.5451L81.6402 83.5051Z" fill="black"/>
</svg>
