<svg width="101" height="101" viewBox="0 0 101 101" fill="none" xmlns="http://www.w3.org/2000/svg">
<path d="M29.3337 79.5289C25.4688 79.5289 22.1369 77.2867 20.487 74.0044C20.198 73.4295 20.6453 72.7868 21.3001 72.7868H80.693C81.3485 72.7868 81.7958 73.4308 81.5053 74.0057C79.8487 77.284 76.5119 79.5289 72.6663 79.5289H29.3337ZM85.6825 69.2658H53.6667C53.142 69.2658 52.7167 68.8405 52.7167 68.3158V19C52.7167 18.4201 52.2466 17.95 51.6667 17.95H50.3333C49.7534 17.95 49.2833 18.4201 49.2833 19V68.3158C49.2833 68.8405 48.858 69.2658 48.3333 69.2658H16.3175C16.1146 69.2658 15.949 69.4315 15.9536 69.6354C16.119 77.0718 22.0434 83.05 29.3312 83.05H72.6688C79.956 83.05 85.8807 77.0571 86.0464 69.6353C86.051 69.4315 85.8854 69.2658 85.6825 69.2658ZM57 65.9447H83.6294C84.5583 65.9447 85.0297 64.8273 84.3815 64.162L57.752 36.8318C57.0946 36.157 55.95 36.6225 55.95 37.5645V64.8947C55.95 65.4746 56.4201 65.9447 57 65.9447ZM75.2961 62.4237H60.3333C59.8087 62.4237 59.3833 61.9984 59.3833 61.4737V46.1172C59.3833 45.2648 60.4189 44.8437 61.0138 45.4542L75.9765 60.8107C76.563 61.4127 76.1365 62.4237 75.2961 62.4237ZM25.9568 36.7906C17.6408 51.0154 16.2357 61.6952 15.9983 64.9C15.9552 65.482 16.4209 65.9447 17 65.9447H44.158C44.5753 65.9447 44.9277 65.7008 45.1379 65.365C45.3479 65.0293 45.4198 64.596 45.2706 64.209C44.2883 61.6625 42.7167 55.9367 42.7167 45.3684C42.7167 33.2334 44.7888 23.2248 45.6647 19.5361C45.7534 19.1627 45.6406 18.8123 45.4127 18.5886C45.184 18.3643 44.8414 18.2697 44.4794 18.4052C41.3096 19.5911 33.6316 23.6627 25.9568 36.7906ZM19.8052 61.4885C20.108 59.2057 21.447 52.8495 27.3671 41.3169C31.9371 32.4143 36.9579 27.5455 39.5641 25.4223C39.8824 25.1631 40.2484 25.1714 40.5193 25.3426C40.791 25.5144 40.9699 25.8522 40.9047 26.2597C40.3246 29.885 39.2833 37.4889 39.2833 45.3684C39.2833 53.3452 40.3504 58.7994 40.9266 61.1632C41.0801 61.7926 40.604 62.4237 39.9592 62.4237H20.6667C20.1413 62.4237 19.737 62.0028 19.8052 61.4885Z" fill="white" stroke="white" stroke-width="0.1"/>
</svg>
