<svg width="102" height="101" viewBox="0 0 102 101" fill="none" xmlns="http://www.w3.org/2000/svg">
<path d="M16.5 43.3333V56.6665" stroke="currentColor" stroke-width="4.5" stroke-miterlimit="10" stroke-linecap="round" stroke-linejoin="round"/>
<path d="M28.1665 36.6666V63.3333" stroke="currentColor" stroke-width="4.5" stroke-miterlimit="10" stroke-linecap="round" stroke-linejoin="round"/>
<path d="M39.8333 20V80" stroke="currentColor" stroke-width="4.5" stroke-miterlimit="10" stroke-linecap="round" stroke-linejoin="round"/>
<path d="M51.5 43.3333V56.6665" stroke="currentColor" stroke-width="4.5" stroke-miterlimit="10" stroke-linecap="round" stroke-linejoin="round"/>
<path d="M63.1665 30V70" stroke="currentColor" stroke-width="4.5" stroke-miterlimit="10" stroke-linecap="round" stroke-linejoin="round"/>
<path d="M74.8333 20V80" stroke="currentColor" stroke-width="4.5" stroke-miterlimit="10" stroke-linecap="round" stroke-linejoin="round"/>
<path d="M86.5 43.3333V56.6665" stroke="currentColor" stroke-width="4.5" stroke-miterlimit="10" stroke-linecap="round" stroke-linejoin="round"/>
<path d="M84.4278 29.9999C84.0518 29.9999 83.7638 29.9039 83.5638 29.7119C83.3718 29.5119 83.2758 29.2279 83.2758 28.8599V22.6799C83.2758 22.3119 83.3718 22.0319 83.5638 21.8399C83.7638 21.6399 84.0518 21.5399 84.4278 21.5399H87.3558C87.9638 21.5399 88.4798 21.6319 88.9038 21.8159C89.3358 21.9919 89.6638 22.2439 89.8878 22.5719C90.1118 22.8999 90.2238 23.2839 90.2238 23.7239C90.2238 24.2199 90.0798 24.6439 89.7918 24.9959C89.5118 25.3479 89.1278 25.5879 88.6398 25.7159V25.5239C89.2158 25.6279 89.6598 25.8599 89.9718 26.2199C90.2918 26.5799 90.4518 27.0399 90.4518 27.5999C90.4518 28.3439 90.1838 28.9319 89.6478 29.3639C89.1198 29.7879 88.3958 29.9999 87.4758 29.9999H84.4278ZM85.3878 28.3799H87.1758C87.5838 28.3799 87.8798 28.3039 88.0638 28.1519C88.2558 27.9919 88.3518 27.7559 88.3518 27.4439C88.3518 27.1319 88.2558 26.8999 88.0638 26.7479C87.8798 26.5959 87.5838 26.5199 87.1758 26.5199H85.3878V28.3799ZM85.3878 24.8999H86.9598C87.3598 24.8999 87.6518 24.8279 87.8358 24.6839C88.0278 24.5399 88.1238 24.3199 88.1238 24.0239C88.1238 23.7279 88.0278 23.5119 87.8358 23.3759C87.6518 23.2319 87.3598 23.1599 86.9598 23.1599H85.3878V24.8999ZM92.1336 26.6159C91.9176 26.6159 91.7376 26.5479 91.5936 26.4119C91.4496 26.2679 91.3776 26.0799 91.3776 25.8479C91.3776 25.6799 91.4136 25.5359 91.4856 25.4159C91.5576 25.2879 91.6616 25.1639 91.7976 25.0439L92.7456 24.0839C92.9056 23.9159 93.0176 23.7719 93.0816 23.6519C93.1536 23.5239 93.1896 23.3959 93.1896 23.2679C93.1896 23.1319 93.1456 23.0279 93.0576 22.9559C92.9776 22.8759 92.8496 22.8359 92.6736 22.8359C92.5776 22.8359 92.4816 22.8519 92.3856 22.8839C92.2896 22.9079 92.2016 22.9359 92.1216 22.9679C91.9296 23.0559 91.7616 23.0639 91.6176 22.9919C91.4736 22.9119 91.3736 22.7959 91.3176 22.6439C91.2616 22.4919 91.2656 22.3319 91.3296 22.1639C91.3936 21.9959 91.5256 21.8639 91.7256 21.7679C91.9256 21.6719 92.1456 21.6039 92.3856 21.5639C92.6256 21.5159 92.8656 21.4919 93.1056 21.4919C93.4976 21.4919 93.8336 21.5559 94.1136 21.6839C94.3936 21.8039 94.6096 21.9759 94.7616 22.1999C94.9136 22.4239 94.9896 22.6919 94.9896 23.0039C94.9896 23.2599 94.9296 23.5119 94.8096 23.7599C94.6896 23.9999 94.4856 24.2559 94.1976 24.5279L93.3456 25.3559V25.2599H94.5936C95.0576 25.2599 95.2896 25.4839 95.2896 25.9319C95.2896 26.1479 95.2296 26.3159 95.1096 26.4359C94.9896 26.5559 94.8176 26.6159 94.5936 26.6159H92.1336Z" fill="currentColor"/>
</svg>
