<svg width="102" height="101" viewBox="0 0 102 101" fill="none" xmlns="http://www.w3.org/2000/svg">
<path d="M16.5 43.3333V56.6665" stroke="currentColor" stroke-width="4.5" stroke-miterlimit="10" stroke-linecap="round" stroke-linejoin="round"/>
<path d="M28.1665 36.6666V63.3333" stroke="currentColor" stroke-width="4.5" stroke-miterlimit="10" stroke-linecap="round" stroke-linejoin="round"/>
<path d="M39.8333 20V80" stroke="currentColor" stroke-width="4.5" stroke-miterlimit="10" stroke-linecap="round" stroke-linejoin="round"/>
<path d="M51.5 43.3333V56.6665" stroke="currentColor" stroke-width="4.5" stroke-miterlimit="10" stroke-linecap="round" stroke-linejoin="round"/>
<path d="M63.1665 30V70" stroke="currentColor" stroke-width="4.5" stroke-miterlimit="10" stroke-linecap="round" stroke-linejoin="round"/>
<path d="M74.8333 20V80" stroke="currentColor" stroke-width="4.5" stroke-miterlimit="10" stroke-linecap="round" stroke-linejoin="round"/>
<path d="M86.5 43.3333V56.6665" stroke="currentColor" stroke-width="4.5" stroke-miterlimit="10" stroke-linecap="round" stroke-linejoin="round"/>
<path d="M84.4278 29.9999C84.0518 29.9999 83.7638 29.9039 83.5638 29.7119C83.3718 29.5119 83.2758 29.2279 83.2758 28.8599V22.6799C83.2758 22.3119 83.3718 22.0319 83.5638 21.8399C83.7638 21.6399 84.0518 21.5399 84.4278 21.5399H87.3558C87.9638 21.5399 88.4798 21.6319 88.9038 21.8159C89.3358 21.9919 89.6638 22.2439 89.8878 22.5719C90.1118 22.8999 90.2238 23.2839 90.2238 23.7239C90.2238 24.2199 90.0798 24.6439 89.7918 24.9959C89.5118 25.3479 89.1278 25.5879 88.6398 25.7159V25.5239C89.2158 25.6279 89.6598 25.8599 89.9718 26.2199C90.2918 26.5799 90.4518 27.0399 90.4518 27.5999C90.4518 28.3439 90.1838 28.9319 89.6478 29.3639C89.1198 29.7879 88.3958 29.9999 87.4758 29.9999H84.4278ZM85.3878 28.3799H87.1758C87.5838 28.3799 87.8798 28.3039 88.0638 28.1519C88.2558 27.9919 88.3518 27.7559 88.3518 27.4439C88.3518 27.1319 88.2558 26.8999 88.0638 26.7479C87.8798 26.5959 87.5838 26.5199 87.1758 26.5199H85.3878V28.3799ZM85.3878 24.8999H86.9598C87.3598 24.8999 87.6518 24.8279 87.8358 24.6839C88.0278 24.5399 88.1238 24.3199 88.1238 24.0239C88.1238 23.7279 88.0278 23.5119 87.8358 23.3759C87.6518 23.2319 87.3598 23.1599 86.9598 23.1599H85.3878V24.8999ZM93.1296 26.6879C92.8336 26.6879 92.5536 26.6639 92.2896 26.6159C92.0336 26.5599 91.7936 26.4839 91.5696 26.3879C91.3856 26.3079 91.2656 26.1919 91.2096 26.0399C91.1616 25.8799 91.1656 25.7279 91.2216 25.5839C91.2776 25.4319 91.3736 25.3199 91.5096 25.2479C91.6536 25.1759 91.8296 25.1759 92.0376 25.2479C92.1736 25.3039 92.3136 25.3479 92.4576 25.3799C92.6016 25.4039 92.7456 25.4159 92.8896 25.4159C93.1376 25.4159 93.3176 25.3799 93.4296 25.3079C93.5416 25.2279 93.5976 25.1199 93.5976 24.9839C93.5976 24.8799 93.5576 24.8039 93.4776 24.7559C93.3976 24.7079 93.2776 24.6839 93.1176 24.6839H92.6016C92.4096 24.6839 92.2536 24.6319 92.1336 24.5279C92.0216 24.4239 91.9656 24.2719 91.9656 24.0719C91.9656 23.8799 92.0216 23.7319 92.1336 23.6279C92.2536 23.5159 92.4096 23.4599 92.6016 23.4599H92.9496C93.1096 23.4599 93.2296 23.4319 93.3096 23.3759C93.3896 23.3199 93.4296 23.2359 93.4296 23.1239C93.4296 23.0199 93.3776 22.9359 93.2736 22.8719C93.1776 22.7999 93.0216 22.7639 92.8056 22.7639C92.6856 22.7639 92.5656 22.7759 92.4456 22.7999C92.3256 22.8239 92.2176 22.8559 92.1216 22.8959C91.9296 22.9839 91.7616 22.9919 91.6176 22.9199C91.4736 22.8479 91.3736 22.7399 91.3176 22.5959C91.2616 22.4439 91.2616 22.2919 91.3176 22.1399C91.3736 21.9799 91.5016 21.8559 91.7016 21.7679C91.9176 21.6719 92.1456 21.6039 92.3856 21.5639C92.6336 21.5159 92.8856 21.4919 93.1416 21.4919C93.7336 21.4919 94.1976 21.6159 94.5336 21.8639C94.8696 22.1039 95.0376 22.4319 95.0376 22.8479C95.0376 23.1679 94.9216 23.4479 94.6896 23.6879C94.4656 23.9199 94.1816 24.0599 93.8376 24.1079V23.9159C94.2616 23.9319 94.5896 24.0519 94.8216 24.2759C95.0536 24.4999 95.1696 24.8079 95.1696 25.1999C95.1696 25.5039 95.0856 25.7679 94.9176 25.9919C94.7496 26.2079 94.5096 26.3799 94.1976 26.5079C93.8936 26.6279 93.5376 26.6879 93.1296 26.6879Z" fill="currentColor"/>
</svg>
