<svg width="102" height="101" viewBox="0 0 102 101" fill="none" xmlns="http://www.w3.org/2000/svg">
<path d="M78.6347 11.1036C78.0409 10.8691 77.3525 11.0422 76.9318 11.5283C76.9117 11.5504 74.8867 13.833 66.7003 18.1658C58.3921 22.567 35.1542 36.8918 34.0904 37.551C26.6226 42.8298 22.626 51.6724 23.6616 60.6298C24.4174 67.1466 27.6552 72.7726 32.306 76.7088L25.7782 86.2832C25.3081 86.9726 25.4863 87.9106 26.1747 88.3806C26.4354 88.5587 26.7313 88.6433 27.0241 88.6433C27.5062 88.6433 27.9803 88.4128 28.2731 87.9841L34.7305 78.5144C38.6768 81.1089 43.3628 82.6187 48.3266 82.6187C49.2777 82.6187 50.2378 82.5643 51.205 82.4526C59.9752 81.437 67.5658 75.7235 71.0914 67.5099C71.1669 67.4304 71.2454 67.3328 71.3068 67.221C75.6768 60.1256 78.5291 40.8994 78.7233 35.53C78.8934 30.4143 79.5909 12.737 79.5979 12.5589C79.6221 11.9178 79.2316 11.3401 78.6347 11.1036ZM26.6608 60.2836C25.752 52.4243 29.2665 44.6595 35.7541 40.0701C35.9946 39.9222 59.8917 25.1898 68.1133 20.8349C69.5043 20.0982 70.718 19.4208 71.7949 18.7938L34.0069 74.2148C30.0485 70.7668 27.311 65.8946 26.6608 60.2836ZM68.8229 65.49C68.7675 65.5423 68.7051 65.6077 68.6417 65.6872C68.5542 65.7969 68.4827 65.9187 68.4284 66.0495C65.3798 73.4137 58.6467 78.5506 50.8558 79.4514C45.5921 80.0613 40.5417 78.7337 36.4183 76.0365L76.3843 17.423C76.1619 23.0994 75.8177 32.0246 75.705 35.4244C75.4896 41.3191 72.6182 59.0406 68.8229 65.49Z" fill="currentColor"/>
</svg>
