<svg width="102" height="101" viewBox="0 0 102 101" fill="none" xmlns="http://www.w3.org/2000/svg">
<path d="M54.1924 18C53.4655 18 52.7386 18.0538 52.0386 18.1077C59.7116 22.1731 64.9616 30.25 64.9616 39.5384C64.9616 52.9191 54.1116 63.7691 40.7309 63.7691C33.354 63.7691 26.7579 60.4576 22.2886 55.2345C24.6848 70.7422 38.0386 82.6152 54.1924 82.6152C72.0424 82.6152 86.5 68.1576 86.5 50.3076C86.5 32.4577 72.0424 18 54.1924 18Z" stroke="currentColor" stroke-width="3.5" stroke-miterlimit="10" stroke-linecap="round" stroke-linejoin="round"/>
<path d="M38.0384 28.7692C31.0923 30.4384 28.9384 32.5923 27.2692 39.5384C25.6 32.5923 23.4461 30.4384 16.5 28.7692C23.4461 27.1 25.6 24.9461 27.2692 18C28.9384 24.9461 31.0923 27.1 38.0384 28.7692Z" stroke="currentColor" stroke-width="3.5" stroke-miterlimit="10" stroke-linecap="round" stroke-linejoin="round"/>
<path d="M38.0384 44.923H43.423" stroke="currentColor" stroke-width="3.5" stroke-miterlimit="10" stroke-linecap="round" stroke-linejoin="round"/>
<path d="M40.7307 42.2307V47.6153" stroke="currentColor" stroke-width="3.5" stroke-miterlimit="10" stroke-linecap="round" stroke-linejoin="round"/>
</svg>
