<svg width="101" height="101" viewBox="0 0 101 101" fill="none" xmlns="http://www.w3.org/2000/svg">
<path d="M93 76.1089C93 69.8163 89.0356 64.7151 84.1453 64.7151H79.2155C78.4505 64.7151 77.739 64.1998 77.3594 63.3705L60.2781 25.9445C58.029 21.0453 53.8882 18 49.472 18H21.6545C18.7889 18 16.4658 20.9892 16.4658 24.6766V34.5986L8.04187 80.0787C7.8467 81.1324 8.35251 82.1902 9.17147 82.4409C9.99002 82.6915 10.8115 82.0411 11.0066 80.9879L12.7876 71.3725H18.4732L16.8608 80.0788C16.6657 81.1324 17.1715 82.1901 17.9904 82.4409C18.809 82.6915 19.6305 82.041 19.8256 80.9878L28.0108 36.7887H28.8511C29.6445 36.7887 30.3693 37.3479 30.7414 38.25L45.7122 74.4579C47.8898 79.7268 52.1244 83 56.7654 83L93 82.9981V76.1089ZM17.3039 46.9893H22.9887L21.4571 55.2594H15.7721L17.3039 46.9893ZM13.5141 67.45L15.0455 59.1819H20.7307L19.1995 67.45H13.5141ZM23.7151 43.0669H18.0304L19.1933 36.7887H24.8777L23.7151 43.0669ZM73.0757 79.0776H56.7654C53.2541 79.0776 50.051 76.6011 48.4033 72.6155L33.4325 36.4095C32.5305 34.2241 30.7757 32.8662 28.8511 32.8662H19.5141V24.6785C19.5141 23.1597 20.4742 21.9225 21.6545 21.9225C21.6545 21.9225 32.41 21.9225 32.6023 21.9226C35.9448 21.9233 39.0725 24.2271 40.7661 27.9364L57.8534 65.3452C58.7807 67.3792 60.4954 68.6414 62.3277 68.6414H67.2708C70.4709 68.6414 73.0757 71.993 73.0757 76.1128L73.0757 79.0776ZM89.9517 79.0756H76.1241V76.1127C76.1241 69.8307 72.1529 64.7189 67.2708 64.7189H62.3277C61.5716 64.7189 60.8646 64.1979 60.482 63.359L43.3947 25.9483C42.6872 24.3999 41.7746 23.0629 40.74 21.9224H49.472C52.815 21.9224 55.9497 24.2284 57.651 27.9364L74.7324 65.3605C75.6582 67.3811 77.3773 68.6375 79.2155 68.6375H84.1453C87.3469 68.6375 89.9517 71.9892 89.9517 76.1089V79.0756Z" fill="white"/>
</svg>
