<svg width="102" height="101" viewBox="0 0 102 101" fill="none" xmlns="http://www.w3.org/2000/svg">
<path d="M97.75 33.67C97.6131 33.4639 97.4273 33.2948 97.2092 33.1779C96.9911 33.061 96.7475 32.9999 96.5 33H90.72C90.519 32.9988 90.3198 33.0381 90.1343 33.1154C89.9488 33.1927 89.7807 33.3065 89.64 33.45L79.38 44H56.38L68.5 24.29C68.641 24.0625 68.7185 23.8013 68.7245 23.5337C68.7305 23.2661 68.6648 23.0018 68.5342 22.7681C68.4036 22.5345 68.2129 22.34 67.9818 22.205C67.7507 22.0699 67.4877 21.9991 67.22 22H54.22C53.8223 22.0004 53.441 22.1586 53.16 22.44L31.6 44H24.2C12.01 44 3.5 50.8 3.5 60.57C3.5 61.4797 3.86137 62.3521 4.50462 62.9954C5.14787 63.6386 6.02031 64 6.93 64H29.1L54.66 89.56C54.941 89.8414 55.3223 89.9997 55.72 90H68.72C68.9877 90.0009 69.2507 89.9301 69.4818 89.795C69.7129 89.66 69.9036 89.4655 70.0342 89.2319C70.1648 88.9982 70.2305 88.7339 70.2245 88.4663C70.2185 88.1987 70.141 87.9375 70 87.71L55.4 64H76.82C79.3963 63.9988 81.9154 63.2396 84.0634 61.8171C86.2114 60.3946 87.8934 58.3716 88.9 56L97.9 35.06C97.9897 34.8336 98.023 34.5886 97.9968 34.3465C97.9707 34.1043 97.886 33.8721 97.75 33.67ZM54.84 25H64.5L52.84 44H35.84L54.84 25ZM86.14 54.85C85.36 56.6756 84.0609 58.2317 82.4039 59.3251C80.7469 60.4185 78.8052 61.0009 76.82 61H52.72C52.4523 60.9991 52.1893 61.0699 51.9582 61.205C51.7271 61.34 51.5364 61.5345 51.4058 61.7681C51.2752 62.0018 51.2095 62.2661 51.2155 62.5337C51.2215 62.8013 51.299 63.0625 51.44 63.29L66.03 87H56.34L30.78 61.44C30.499 61.1586 30.1177 61.0004 29.72 61H6.93C6.87134 60.9987 6.81353 60.9857 6.75997 60.9618C6.70641 60.9379 6.65817 60.9034 6.61811 60.8606C6.57804 60.8177 6.54695 60.7673 6.52667 60.7122C6.50639 60.6572 6.49732 60.5986 6.5 60.54C6.5 52.57 13.78 47 24.2 47H80.02C80.221 47.0012 80.4202 46.962 80.6057 46.8846C80.7912 46.8073 80.9593 46.6935 81.1 46.55L91.35 36H94.23L86.14 54.85Z" fill="currentColor"/>
</svg>
