<svg width="102" height="101" viewBox="0 0 102 101" fill="none" xmlns="http://www.w3.org/2000/svg">
<path d="M69.5 36.5C66.945 36.4995 64.415 37.0036 62.0554 37.9835C59.6958 38.9634 57.553 40.3997 55.75 42.21C55.37 41.65 54.96 41.13 54.54 40.59C53.8839 39.7617 53.4803 38.762 53.3774 37.7104C53.2746 36.6587 53.4768 35.5997 53.96 34.66C56.4315 30.0139 57.005 24.5904 55.56 19.53C54.4898 15.7844 52.2759 12.4669 49.228 10.041C46.18 7.6152 42.4502 6.20237 38.56 6.00003C36.0514 5.8701 33.5429 6.2566 31.1898 7.13558C28.8366 8.01456 26.689 9.3673 24.88 11.11C22.9938 12.9206 21.4942 15.0946 20.4715 17.5008C19.4489 19.907 18.9245 22.4955 18.93 25.11C18.931 28.4013 19.7378 31.6424 21.28 34.55C21.7646 35.494 21.9658 36.558 21.8593 37.6137C21.7529 38.6694 21.3433 39.6718 20.68 40.5C17.6297 44.3945 15.981 49.2033 16 54.15C16 65.39 24 74.94 34.22 75.9C34.59 75.9 35.03 75.96 35.5 75.97V93.5C35.5 93.8979 35.658 94.2794 35.9393 94.5607C36.2206 94.842 36.6022 95 37 95C37.3978 95 37.7793 94.842 38.0606 94.5607C38.3419 94.2794 38.5 93.8979 38.5 93.5V76C39.5 76 40.39 75.94 41.06 75.89C43.6465 75.6261 46.1509 74.8319 48.4169 73.557C50.6828 72.282 52.6617 70.5538 54.23 68.48C55.6891 70.4164 57.5318 72.0311 59.6429 73.2235C61.7541 74.4158 64.0883 75.1602 66.5 75.41C67.04 75.41 67.75 75.49 68.5 75.5V93.5C68.5 93.8979 68.658 94.2794 68.9393 94.5607C69.2206 94.842 69.6022 95 70 95C70.3978 95 70.7793 94.842 71.0606 94.5607C71.3419 94.2794 71.5 93.8979 71.5 93.5V75.5L72.64 75.43C81.81 74.64 89 66.16 89 56.11C89.0133 50.9241 86.9666 45.9452 83.3099 42.2679C79.6532 38.5906 74.6859 36.5159 69.5 36.5ZM40.8 72.88C40.21 72.88 39.38 72.96 38.5 72.98V25.5C38.5 25.1022 38.3419 24.7207 38.0606 24.4394C37.7793 24.1581 37.3978 24 37 24C36.6022 24 36.2206 24.1581 35.9393 24.4394C35.658 24.7207 35.5 25.1022 35.5 25.5V58.88L27.56 50.94C27.2756 50.6751 26.8995 50.5308 26.5109 50.5377C26.1223 50.5445 25.7516 50.702 25.4767 50.9768C25.2019 51.2516 25.0445 51.6224 25.0376 52.011C25.0308 52.3996 25.175 52.7757 25.44 53.06L35.44 63.06H35.5V73L34.5 72.94C25.81 72.12 19 63.88 19 54.18C18.9646 49.9021 20.374 45.7373 23 42.36C24.0185 41.0748 24.6435 39.5225 24.7996 37.8901C24.9557 36.2577 24.6364 34.615 23.88 33.16C22.573 30.6956 21.8865 27.9496 21.88 25.16C21.8765 22.9594 22.3176 20.7808 23.1768 18.7548C24.036 16.7288 25.2956 14.8973 26.88 13.37C28.396 11.8851 30.2032 10.7302 32.1876 9.97813C34.1719 9.22603 36.2906 8.893 38.41 9.00003C41.6775 9.16824 44.8107 10.3537 47.3712 12.3907C49.9317 14.4276 51.7914 17.214 52.69 20.36C53.9173 24.6689 53.4263 29.2858 51.32 33.24C50.5642 34.6923 50.2433 36.3317 50.3958 37.9618C50.5483 39.5918 51.1678 41.1432 52.18 42.43C52.7385 43.126 53.256 43.8539 53.73 44.61C51.3072 47.94 50.0014 51.9519 50 56.07C50.0058 59.4715 50.8654 62.8171 52.5 65.8C51.1875 67.7652 49.4592 69.4179 47.4374 70.6413C45.4156 71.8648 43.1497 72.629 40.8 72.88ZM72.38 72.39L71.49 72.44V66.61L71.61 66.5L79.61 57.5C79.8752 57.203 80.0116 56.8127 79.989 56.4152C79.9665 56.0176 79.787 55.6452 79.49 55.38C79.1929 55.1148 78.8027 54.9785 78.4051 55.001C78.0075 55.0235 77.6352 55.203 77.37 55.5L71.5 62.12V49.5C71.5 49.1022 71.3419 48.7207 71.0606 48.4394C70.7793 48.1581 70.3978 48 70 48C69.6022 48 69.2206 48.1581 68.9393 48.4394C68.658 48.7207 68.5 49.1022 68.5 49.5V72.5C67.83 72.5 67.2 72.5 66.75 72.43C59.04 71.72 53 64.54 53 56.08C53 53.9132 53.4268 51.7676 54.256 49.7658C55.0852 47.7639 56.3006 45.9449 57.8327 44.4128C59.3649 42.8806 61.1838 41.6652 63.1857 40.836C65.1876 40.0068 67.3332 39.58 69.5 39.58C71.6668 39.58 73.8124 40.0068 75.8143 40.836C77.8161 41.6652 79.6351 42.8806 81.1672 44.4128C82.6994 45.9449 83.9148 47.7639 84.744 49.7658C85.5732 51.7676 86 53.9132 86 56.08C86 64.57 80.02 71.74 72.39 72.4L72.38 72.39Z" fill="currentColor"/>
</svg>
