<svg width="102" height="101" viewBox="0 0 102 101" fill="none" xmlns="http://www.w3.org/2000/svg">
<path d="M16.5 43.3333V56.6665" stroke="currentColor" stroke-width="4.5" stroke-miterlimit="10" stroke-linecap="round" stroke-linejoin="round"/>
<path d="M28.1665 36.6666V63.3333" stroke="currentColor" stroke-width="4.5" stroke-miterlimit="10" stroke-linecap="round" stroke-linejoin="round"/>
<path d="M39.8334 20V80" stroke="currentColor" stroke-width="4.5" stroke-miterlimit="10" stroke-linecap="round" stroke-linejoin="round"/>
<path d="M51.5 43.3333V56.6665" stroke="currentColor" stroke-width="4.5" stroke-miterlimit="10" stroke-linecap="round" stroke-linejoin="round"/>
<path d="M63.1665 30V70" stroke="currentColor" stroke-width="4.5" stroke-miterlimit="10" stroke-linecap="round" stroke-linejoin="round"/>
<path d="M74.8334 20V80" stroke="currentColor" stroke-width="4.5" stroke-miterlimit="10" stroke-linecap="round" stroke-linejoin="round"/>
<path d="M86.5 43.3333V56.6665" stroke="currentColor" stroke-width="4.5" stroke-miterlimit="10" stroke-linecap="round" stroke-linejoin="round"/>
<path d="M84.016 30C83.6087 30 83.2967 29.896 83.08 29.688C82.872 29.4713 82.768 29.1637 82.768 28.765V22.07C82.768 21.6713 82.872 21.368 83.08 21.16C83.2967 20.9433 83.6087 20.835 84.016 20.835H87.188C87.8467 20.835 88.4057 20.9347 88.865 21.134C89.333 21.3247 89.6884 21.5977 89.931 21.953C90.1737 22.3083 90.295 22.7243 90.295 23.201C90.295 23.7383 90.139 24.1977 89.827 24.579C89.5237 24.9603 89.1077 25.2203 88.579 25.359V25.151C89.203 25.2637 89.684 25.515 90.022 25.905C90.3687 26.295 90.542 26.7933 90.542 27.4C90.542 28.206 90.2517 28.843 89.671 29.311C89.099 29.7703 88.3147 30 87.318 30H84.016ZM85.056 28.245H86.993C87.435 28.245 87.7557 28.1627 87.955 27.998C88.163 27.8247 88.267 27.569 88.267 27.231C88.267 26.893 88.163 26.6417 87.955 26.477C87.7557 26.3123 87.435 26.23 86.993 26.23H85.056V28.245ZM85.056 24.475H86.759C87.1924 24.475 87.5087 24.397 87.708 24.241C87.916 24.085 88.02 23.8467 88.02 23.526C88.02 23.2053 87.916 22.9713 87.708 22.824C87.5087 22.668 87.1924 22.59 86.759 22.59H85.056V24.475Z" fill="currentColor"/>
</svg>
