<svg width="102" height="101" viewBox="0 0 102 101" fill="none" xmlns="http://www.w3.org/2000/svg">
<path d="M27.1494 79C27.1494 79 28.5805 76 30.9655 75.5C33.3506 75 36.2127 77.5 36.2127 77.5C36.2127 77.5 39.0747 80.4999 38.5977 82C38.1207 83.5 37.1667 84.5 35.2586 85C33.3506 85.5 27.6264 86.5 26.1954 84.5C24.7644 82.5 27.1494 79 27.1494 79Z" stroke="currentColor" stroke-width="3.5" stroke-linecap="round" stroke-linejoin="round"/>
<path d="M10.0424 77.2597C10.5121 75.6302 11.9211 73.5932 15.6787 72.2948C19.4363 70.9963 22.7241 74.408 22.7241 74.408C22.7241 74.408 25.0726 76.0375 25.5423 78.4818C26.0119 80.9261 25.5423 81.3335 24.1332 82.9631C22.7241 84.5926 17.5574 85 15.6787 85C13.7999 85 10.9817 84.1852 10.0424 82.5557C9.10297 80.9261 9.57266 78.8893 10.0424 77.2597Z" stroke="currentColor" stroke-width="3.5" stroke-linecap="round" stroke-linejoin="round"/>
<path d="M64.8334 81.5C66.2644 79 66.7414 76.5 70.0805 76C73.4196 75.5 74.3736 79.5 74.3736 79.5C74.3736 79.5 75.3276 81.5 74.8506 84.5C74.3736 87.5001 71.5115 88 70.0805 88C68.6494 88 64.8333 88 63.8793 86.5C62.9253 85 63.4023 84 64.8334 81.5Z" stroke="currentColor" stroke-width="3.5" stroke-linecap="round" stroke-linejoin="round"/>
<path d="M74.4758 76.3377C74.8925 73.3506 77.3927 69.8656 80.3096 68.3721C83.2265 66.8785 86.1433 70.3634 86.1433 70.3634C86.1433 70.3634 88.6435 72.8527 89.8936 74.8441C91.1437 76.8355 91.9771 78.329 92.3938 80.3204C92.8105 82.3118 91.9771 84.8011 90.3103 85.7968C88.6435 86.7925 86.1433 83.8054 84.0598 83.8054C81.9764 83.8054 79.8929 85.2989 77.3927 84.3032C74.8925 83.3076 74.0592 79.3247 74.4758 76.3377Z" stroke="currentColor" stroke-width="3.5" stroke-linecap="round" stroke-linejoin="round"/>
<path d="M62 60L61.5 56.5C61.5 56.5 57.5 46 52 46C46.5 46 42.5 48.5 39 55C35.5 61.5 34.5 74.5 34.5 74.5H64.5L63 66" stroke="currentColor" stroke-width="3.5" stroke-linecap="round" stroke-linejoin="round"/>
<path d="M24.5 32.5C25 30 28.5 28 28.5 28C28.5 28 32.5 26.5 37 22C41.5 17.5 43.5 12 50 12C56.5 12 67 18.5 70.5 24.5C74 30.5 75 34.5 75 34.5" stroke="currentColor" stroke-width="3.5" stroke-linecap="round" stroke-linejoin="round"/>
<path d="M77 39.5C77 39.5 77.5 41.5 79 44C80.5 46.5 86.5 52.5 90 60C93.5 67.5 92.5 85 92.5 85" stroke="currentColor" stroke-width="3.5" stroke-linecap="round" stroke-linejoin="round"/>
<path d="M23 37C23 37 21.5 43.5 19.5 47.5C17.5 51.5 14.5 56.5 13.5 60.5C12.5 64.5 11.5 75 11.5 75" stroke="currentColor" stroke-width="3.5" stroke-linecap="round" stroke-linejoin="round"/>
</svg>
