<svg width="102" height="101" viewBox="0 0 102 101" fill="none" xmlns="http://www.w3.org/2000/svg">
<path d="M13.5 92.714H73.4998" stroke="currentColor" stroke-width="3.7" stroke-miterlimit="10" stroke-linecap="round" stroke-linejoin="round"/>
<path d="M16.4998 35.5714V55.2539C16.4998 70.4919 28.4997 83.1903 43.4997 83.1903C58.4996 83.1903 70.4996 70.4919 70.4996 55.2539V35.5714H16.4998Z" stroke="currentColor" stroke-width="3.7" stroke-miterlimit="10" stroke-linecap="round" stroke-linejoin="round"/>
<path d="M79.5 67.3173C74.4 67.3173 70.5 63.1903 70.5 57.7935V48.2698C70.5 43.1904 74.4 38.746 79.5 38.746C84.3 38.746 88.4999 42.8729 88.4999 48.2698V57.7935C88.4999 63.1903 84.6 67.3173 79.5 67.3173Z" stroke="currentColor" stroke-width="3.7" stroke-miterlimit="10" stroke-linecap="round" stroke-linejoin="round"/>
<path d="M43.4999 7C39.8999 12.7143 39.8999 20.3333 43.4999 26.0476" stroke="currentColor" stroke-width="3.7" stroke-miterlimit="10" stroke-linecap="round" stroke-linejoin="round"/>
<path d="M31.4997 7C27.8997 12.7143 27.8997 20.3333 31.4997 26.0476" stroke="currentColor" stroke-width="3.7" stroke-miterlimit="10" stroke-linecap="round" stroke-linejoin="round"/>
<path d="M55.4996 7C51.8996 12.7143 51.8996 20.3333 55.4996 26.0476" stroke="currentColor" stroke-width="3.7" stroke-miterlimit="10" stroke-linecap="round" stroke-linejoin="round"/>
</svg>
