<svg width="102" height="101" viewBox="0 0 102 101" fill="none" xmlns="http://www.w3.org/2000/svg">
<path fill-rule="evenodd" clip-rule="evenodd" d="M21.5 30C21.5 23.2632 31.5421 12 31.5421 12C31.5421 12 41.5 23.2632 41.5 30C41.5 34.8 38.249 40 31.5421 40C24.8353 40 21.5 35.2 21.5 30ZM61.5 46C61.5 39.2632 71.5421 28 71.5421 28C71.5421 28 81.5 39.2632 81.5 46C81.5 50.8 78.249 56 71.5421 56C64.8353 56 61.5 51.2 61.5 46ZM33.5 78C33.5 71.2632 43.5421 60 43.5421 60C43.5421 60 53.5 71.2632 53.5 78C53.5 82.8 50.249 88 43.5421 88C36.8353 88 33.5 83.2 33.5 78ZM65.5 46C65.5 42 71.5421 34.4 71.5421 34.4C71.5421 34.4 77.5 42 77.5 46C77.5 50.8 74.249 52 71.5421 52C68.8353 52 65.5 50.8 65.5 46ZM25.5 30C25.5 26 31.5421 18.4 31.5421 18.4C31.5421 18.4 37.5 26 37.5 30C37.5 34.8 34.249 36 31.5421 36C28.8353 36 25.5 34.8 25.5 30ZM37.5 78C37.5 74 43.5421 66.4 43.5421 66.4C43.5421 66.4 49.5 74 49.5 78C49.5 82.8 46.249 84 43.5421 84C40.8353 84 37.5 82.8 37.5 78Z" fill="currentColor"/>
</svg>
