<svg width="102" height="101" viewBox="0 0 102 101" fill="none" xmlns="http://www.w3.org/2000/svg">
<path d="M16.5 43.3333V56.6665" stroke="currentColor" stroke-width="4.5" stroke-miterlimit="10" stroke-linecap="round" stroke-linejoin="round"/>
<path d="M28.1665 36.6666V63.3333" stroke="currentColor" stroke-width="4.5" stroke-miterlimit="10" stroke-linecap="round" stroke-linejoin="round"/>
<path d="M39.8333 20V80" stroke="currentColor" stroke-width="4.5" stroke-miterlimit="10" stroke-linecap="round" stroke-linejoin="round"/>
<path d="M51.5 43.3333V56.6665" stroke="currentColor" stroke-width="4.5" stroke-miterlimit="10" stroke-linecap="round" stroke-linejoin="round"/>
<path d="M63.1665 30V70" stroke="currentColor" stroke-width="4.5" stroke-miterlimit="10" stroke-linecap="round" stroke-linejoin="round"/>
<path d="M74.8333 20V80" stroke="currentColor" stroke-width="4.5" stroke-miterlimit="10" stroke-linecap="round" stroke-linejoin="round"/>
<path d="M86.5 43.3333V56.6665" stroke="currentColor" stroke-width="4.5" stroke-miterlimit="10" stroke-linecap="round" stroke-linejoin="round"/>
<path d="M84.3173 30.108C83.9653 30.108 83.6933 30.012 83.5013 29.82C83.3093 29.62 83.2133 29.344 83.2133 28.992V22.656C83.2133 22.296 83.3093 22.02 83.5013 21.828C83.7013 21.636 83.9773 21.54 84.3293 21.54H87.2813C88.2413 21.54 88.9813 21.788 89.5013 22.284C90.0293 22.772 90.2933 23.448 90.2933 24.312C90.2933 25.176 90.0293 25.856 89.5013 26.352C88.9813 26.84 88.2413 27.084 87.2813 27.084H85.4213V28.992C85.4213 29.344 85.3293 29.62 85.1453 29.82C84.9613 30.012 84.6853 30.108 84.3173 30.108ZM85.4213 25.392H86.8973C87.3133 25.392 87.6333 25.304 87.8573 25.128C88.0813 24.944 88.1933 24.672 88.1933 24.312C88.1933 23.944 88.0813 23.672 87.8573 23.496C87.6333 23.32 87.3133 23.232 86.8973 23.232H85.4213V25.392Z" fill="currentColor"/>
</svg>
