<svg width="101" height="101" viewBox="0 0 101 101" fill="none" xmlns="http://www.w3.org/2000/svg">
<path d="M21.03 80.7241L50.2911 35.6413C50.8721 34.7462 52.1824 34.7462 52.7634 35.6413L82.0245 80.7241C82.6608 81.7046 81.9572 83.0001 80.7883 83.0001H22.2661C21.0973 83.0001 20.3936 81.7045 21.03 80.7241Z" stroke="currentColor" stroke-width="3.5" stroke-linecap="round"/>
<path d="M31.9873 82.3157H71.0672" stroke="currentColor" stroke-width="3.5" stroke-linecap="round"/>
<path d="M51.5273 52.2103C50.5503 57.8551 45.2745 71.7788 31.9873 82.3157" stroke="currentColor" stroke-width="3.5" stroke-linecap="round"/>
<path d="M51.5272 52.2103C52.5042 57.8551 57.78 71.7788 71.0671 82.3157" stroke="currentColor" stroke-width="3.5" stroke-linecap="round"/>
<path d="M17.924 69.5816L21.548 64.5265" stroke="currentColor" stroke-width="3.5" stroke-linecap="round"/>
<path d="M81.873 69.5817L85.4969 64.5266" stroke="currentColor" stroke-width="3.5" stroke-linecap="round"/>
<path d="M16.503 54.5286L20.1269 49.4735" stroke="currentColor" stroke-width="3.5" stroke-linecap="round"/>
<path d="M81.873 50.4235L85.4969 45.3684" stroke="currentColor" stroke-width="3.5" stroke-linecap="round"/>
<path d="M30.7138 44.9496L34.3377 39.8945" stroke="currentColor" stroke-width="3.5" stroke-linecap="round"/>
<path d="M69.0832 46.3182L72.7071 41.2631" stroke="currentColor" stroke-width="3.5" stroke-linecap="round"/>
<path d="M22.1873 32.6379L25.8113 27.5828" stroke="currentColor" stroke-width="3.5" stroke-linecap="round"/>
<path d="M74.7676 29.897L78.3916 24.8419" stroke="currentColor" stroke-width="3.5" stroke-linecap="round"/>
<path d="M49.1881 23.0549L52.812 17.9997" stroke="currentColor" stroke-width="3.5" stroke-linecap="round"/>
</svg>
