<svg width="102" height="101" viewBox="0 0 102 101" fill="none" xmlns="http://www.w3.org/2000/svg">
<path d="M92.4994 25.9646L89.111 30.7495C88.2945 31.9241 87.3101 32.8599 86.2179 33.4995C85.1257 34.1391 83.9488 34.4689 82.7594 34.4689C81.57 34.4689 80.3931 34.1391 79.3009 33.4995C78.2087 32.8599 77.2242 31.9241 76.4077 30.7495C75.1494 28.952 73.6356 27.5199 71.958 26.5399C70.2803 25.5599 68.4737 25.0523 66.6474 25.048C64.8212 25.0523 63.0145 25.5599 61.3369 26.5399C59.6592 27.5199 58.1454 28.952 56.8871 30.7495C56.0707 31.9241 55.0862 32.8599 53.994 33.4995C52.9018 34.1391 51.7249 34.4689 50.5355 34.4689C49.3461 34.4689 48.1692 34.1391 47.077 33.4995C45.9848 32.8599 45.0003 31.9241 44.1839 30.7495C42.9894 29.0398 41.5511 27.6783 39.9567 26.7478C38.3622 25.8174 36.645 25.3376 34.9095 25.3376C33.1741 25.3376 31.4569 25.8174 29.8624 26.7478C28.2679 27.6783 26.8297 29.0398 25.6352 30.7495C24.8182 31.9357 23.8304 32.8813 22.7332 33.5279C21.636 34.1744 20.4527 34.508 19.2566 34.508C18.0605 34.508 16.8772 34.1744 15.78 33.5279C14.6828 32.8813 13.695 31.9357 12.878 30.7495C12.878 30.7495 10.799 27.9996 9.39504 26.038C9.01862 25.5378 8.51355 25.2565 7.98695 25.2537C7.46036 25.2509 6.95367 25.5267 6.57435 26.0228C6.19503 26.5188 5.97292 27.196 5.95514 27.9108C5.93735 28.6255 6.12529 29.3215 6.47909 29.8512C7.89657 31.8495 10.0025 34.6361 10.0025 34.6361C11.197 36.3458 12.6352 37.7073 14.2297 38.6377C15.8242 39.5681 17.5414 40.048 19.2768 40.048C21.0123 40.048 22.7295 39.5681 24.324 38.6377C25.9184 37.7073 27.3567 36.3458 28.5512 34.6361C29.3676 33.4614 30.3521 32.5257 31.4443 31.8861C32.5365 31.2465 33.7134 30.9166 34.9028 30.9166C36.0922 30.9166 37.2691 31.2465 38.3613 31.8861C39.4535 32.5257 40.438 33.4614 41.2544 34.6361C42.4489 36.3458 43.8871 37.7073 45.4816 38.6377C47.0761 39.5681 48.7933 40.048 50.5287 40.048C52.2642 40.048 53.9814 39.5681 55.5759 38.6377C57.1703 37.7073 58.6086 36.3458 59.8031 34.6361C60.6857 33.377 61.7475 32.3745 62.924 31.6896C64.1006 31.0046 65.3673 30.6514 66.6474 30.6514C67.9275 30.6514 69.1943 31.0046 70.3708 31.6896C71.5474 32.3745 72.6092 33.377 73.4918 34.6361C74.6862 36.3458 76.1245 37.7073 77.719 38.6377C79.3134 39.5681 81.0307 40.048 82.7661 40.048C84.5015 40.048 86.2188 39.5681 87.8133 38.6377C89.4077 37.7073 90.846 36.3458 92.0404 34.6361L95.4289 29.8512C95.7827 29.3215 95.9706 28.6255 95.9528 27.9108C95.935 27.196 95.7129 26.5188 95.3336 26.0228C94.9543 25.5267 94.4476 25.2509 93.921 25.2537C93.3944 25.2565 92.8893 25.5378 92.5129 26.038L92.4994 25.9646Z" fill="currentColor"/>
<path d="M92.4994 61.9727L89.111 66.7576C88.2945 67.9322 87.3101 68.8679 86.2179 69.5075C85.1257 70.1471 83.9488 70.477 82.7594 70.477C81.57 70.477 80.3931 70.1471 79.3009 69.5075C78.2087 68.8679 77.2242 67.9322 76.4077 66.7576C75.1494 64.9601 73.6356 63.528 71.958 62.548C70.2803 61.5679 68.4737 61.0604 66.6474 61.056C64.8212 61.0604 63.0145 61.5679 61.3369 62.548C59.6592 63.528 58.1454 64.9601 56.8871 66.7576C56.0707 67.9322 55.0862 68.8679 53.994 69.5075C52.9018 70.1471 51.7249 70.477 50.5355 70.477C49.3461 70.477 48.1692 70.1471 47.077 69.5075C45.9848 68.8679 45.0003 67.9322 44.1839 66.7576C42.9894 65.0479 41.5511 63.6863 39.9567 62.7559C38.3622 61.8255 36.645 61.3456 34.9095 61.3456C33.1741 61.3456 31.4569 61.8255 29.8624 62.7559C28.2679 63.6863 26.8297 65.0479 25.6352 66.7576C24.8182 67.9437 23.8304 68.8894 22.7332 69.5359C21.636 70.1824 20.4527 70.516 19.2566 70.516C18.0605 70.516 16.8772 70.1824 15.78 69.5359C14.6828 68.8894 13.695 67.9437 12.878 66.7576C12.878 66.7576 10.799 64.0076 9.39504 62.046C9.01862 61.5459 8.51355 61.2646 7.98695 61.2618C7.46036 61.2589 6.95367 61.5348 6.57435 62.0308C6.19503 62.5269 5.97292 63.2041 5.95514 63.9188C5.93735 64.6335 6.12529 65.3296 6.47909 65.8592C7.89657 67.8575 10.0025 70.6441 10.0025 70.6441C11.197 72.3538 12.6352 73.7153 14.2297 74.6458C15.8242 75.5762 17.5414 76.056 19.2768 76.056C21.0123 76.056 22.7295 75.5762 24.324 74.6458C25.9184 73.7153 27.3567 72.3538 28.5512 70.6441C29.3676 69.4695 30.3521 68.5337 31.4443 67.8942C32.5365 67.2546 33.7134 66.9247 34.9028 66.9247C36.0922 66.9247 37.2691 67.2546 38.3613 67.8942C39.4535 68.5337 40.438 69.4695 41.2544 70.6441C42.4489 72.3538 43.8871 73.7153 45.4816 74.6458C47.0761 75.5762 48.7933 76.056 50.5287 76.056C52.2642 76.056 53.9814 75.5762 55.5759 74.6458C57.1703 73.7153 58.6086 72.3538 59.8031 70.6441C60.6857 69.385 61.7475 68.3826 62.924 67.6976C64.1006 67.0127 65.3673 66.6595 66.6474 66.6595C67.9275 66.6595 69.1943 67.0127 70.3708 67.6976C71.5474 68.3826 72.6092 69.385 73.4918 70.6441C74.6862 72.3538 76.1245 73.7153 77.719 74.6458C79.3134 75.5762 81.0307 76.056 82.7661 76.056C84.5015 76.056 86.2188 75.5762 87.8133 74.6458C89.4077 73.7153 90.846 72.3538 92.0404 70.6441L95.4289 65.8592C95.7827 65.3296 95.9706 64.6335 95.9528 63.9188C95.935 63.2041 95.7129 62.5269 95.3336 62.0308C94.9543 61.5348 94.4476 61.2589 93.921 61.2618C93.3944 61.2646 92.8893 61.5459 92.5129 62.046L92.4994 61.9727Z" fill="currentColor"/>
</svg>
