<svg width="102" height="101" viewBox="0 0 102 101" fill="none" xmlns="http://www.w3.org/2000/svg">
<path fill-rule="evenodd" clip-rule="evenodd" d="M51 66.2812H57.3125V56.8125H35.2188V66.2812H41.5312C41.5312 80.2264 52.8644 91.5312 66.7812 91.5312C80.7264 91.5312 92.0312 80.2259 92.0312 66.2936V12.625H82.5625V66.3061C82.5625 75.0081 75.4793 82.0625 66.7812 82.0625C58.0655 82.0625 51 74.9741 51 66.2812ZM85.7188 66.3016C85.7188 76.7492 77.2189 85.2188 66.7812 85.2188C56.3224 85.2188 47.8438 76.7399 47.8438 66.2905V63.125H54.1562V59.9688H38.375V63.125H44.6875V66.2719C44.6875 78.4791 54.5689 88.375 66.7812 88.375C78.9833 88.375 88.875 78.479 88.875 66.2878V31.5625H85.7188V66.3016ZM85.7188 28.4062V15.7812H88.875V28.4062H85.7188ZM13.125 36.2969V37.8715C13.125 46.5892 20.1763 53.6562 28.8876 53.6562H32.0533C33.8015 53.6562 36.0132 52.5213 37.0429 51.0503L42.6485 43.0424C44.6462 40.1885 47.8896 40.2036 49.8694 43.0424L55.4542 51.0503C56.458 52.4895 58.6563 53.6562 60.443 53.6562H63.6145C72.3361 53.6562 79.4062 46.5885 79.4062 37.8715V36.2969C79.4062 26.7096 71.608 18.9375 62.0782 18.9375H30.453C20.883 18.9375 13.125 26.7291 13.125 36.2969ZM62.0782 22.0938C69.8786 22.0938 76.25 28.4664 76.25 36.2969V37.8715C76.25 44.8453 70.593 50.5 63.6145 50.5H60.443C59.7033 50.5 58.4652 49.8501 58.0431 49.2448L52.4583 41.2369C49.2206 36.5945 43.3152 36.586 40.0628 41.2324L34.4572 49.2403C34.0265 49.8557 32.7861 50.5 32.0533 50.5H28.8876C21.9227 50.5 16.2812 44.8492 16.2812 37.8715V36.2969C16.2812 28.4637 22.6347 22.0938 30.453 22.0938H62.0782Z" fill="currentColor"/>
</svg>
