<svg width="102" height="101" viewBox="0 0 102 101" fill="none" xmlns="http://www.w3.org/2000/svg">
<path d="M24.753 10.0859C23.3687 10.1718 22.9604 10.2749 21.7358 10.8591C19.18 12.079 17.2099 14.4845 16.8372 16.8557C16.7485 17.457 16.642 31.3917 16.5887 48.6768L16.5 79.4328L16.926 79.931C17.2987 80.3778 17.4939 80.4465 18.4878 80.5152L19.6237 80.584L19.9255 81.7695C20.4757 83.986 22.1263 86.5118 23.7769 87.663C24.8418 88.4018 26.4746 89.1922 27.6993 89.553C28.8174 89.8966 33.1126 90.12 34.6744 89.931C35.8991 89.7764 36.2186 89.5014 36.2186 88.6252C36.2186 87.5771 35.9168 87.474 32.4026 87.3537C29.1724 87.2506 28.1785 87.0616 26.6344 86.3056C25.4452 85.7214 23.8124 84.1406 23.2799 83.0582C21.9843 80.498 22.0908 77.4225 23.5284 75.2231C24.824 73.23 27.0958 71.7696 29.4741 71.3744C31.0715 71.1166 31.249 70.9276 31.7637 68.9517C32.5269 65.9792 33.9468 63.6768 36.3251 61.4947C38.1531 59.8108 39.7505 58.8658 42.0401 58.1098C43.7262 57.5428 43.8149 57.5256 46.7967 57.5256C49.3879 57.5256 50.0269 57.5772 51.0563 57.8864C52.5649 58.3332 54.7835 59.3813 55.9194 60.1888C57.499 61.3057 59.5046 63.5393 60.4985 65.2919L61.4391 66.9242L60.6227 68.5393C59.7885 70.2232 59.2916 71.9929 59.2916 73.3675C59.2916 74.0376 59.3626 74.2266 59.8418 74.6046C60.9954 75.5496 61.6699 75.0341 62.0603 72.9207C62.5396 70.1888 63.285 68.7799 65.0421 67.1819C66.3022 66.0479 67.8996 65.206 69.426 64.8967C70.6861 64.639 73.1176 64.7936 74.4133 65.2404C79.3296 66.8898 81.9209 72.4568 79.9153 77.1132C78.6019 80.12 75.7444 82.2162 72.3545 82.6458C70.5441 82.8692 70.1182 83.1269 70.1182 84.0547C70.1182 85.1028 70.9523 85.498 72.7627 85.2747C75.4427 84.9482 77.7855 83.797 79.9686 81.7523L81.211 80.584L83.4118 80.5152C85.5771 80.4465 85.6126 80.4293 86.0563 79.931L86.5 79.4328L86.3935 48.4191C86.2693 14.4673 86.3403 16.4776 85.2399 14.5017C84.4767 13.11 82.6308 11.4433 81.0157 10.6873L79.6136 10.0172L52.9909 10C38.3484 10 25.6405 10.0344 24.753 10.0859ZM33.7338 36.237V59.9655L32.5801 61.4431C31.2667 63.1098 29.5984 66.2369 29.2257 67.663L28.9949 68.608L27.2378 69.2094C26.2794 69.5531 25.1435 70.0342 24.7353 70.2919C23.6349 70.9792 22.2328 72.4225 20.9371 74.1922C20.3159 75.0685 19.7125 75.8932 19.5882 76.0479C19.322 76.4087 19.251 19.9828 19.535 17.7148C19.6237 16.9416 19.8367 16.0825 19.9965 15.8247C20.5821 14.9313 21.931 13.677 22.8185 13.2474C24.0076 12.646 24.9305 12.5601 29.7049 12.5258L33.7338 12.5086V36.237ZM66.533 37.7147L66.4797 62.9208L64.9888 63.8314C64.1724 64.3297 63.4447 64.7077 63.3737 64.6562C63.3205 64.6218 62.8413 63.9345 62.3266 63.1098C61.8119 62.3022 60.7115 60.9448 59.824 60.0342L58.2267 58.4191V49.1064V39.7937L57.6942 39.2782C57.2505 38.8659 57.0553 38.78 56.6648 38.8831C56.3986 38.9346 56.0791 39.1064 55.9371 39.2267C55.5467 39.6047 55.4047 42.2164 55.3869 49.6562C55.3869 53.4191 55.3337 56.4947 55.2627 56.4947C55.1739 56.4947 54.3575 56.2198 53.4168 55.9105C50.5771 54.9311 49.1395 54.7078 46.069 54.828C42.892 54.9483 42.0578 55.1545 38.9873 56.5119C37.7272 57.0789 36.6445 57.4912 36.5913 57.4225C36.538 57.371 36.467 47.2335 36.4315 34.914L36.396 12.5086H51.4823H66.5685L66.533 37.7147ZM79.5781 12.921C80.785 13.3505 82.4001 14.8625 83.0745 16.1512L83.607 17.1993V43.9346V70.6699L82.9326 69.6218C81.6902 67.663 80.6253 66.3744 79.2941 65.1373C77.0046 63.0411 74.502 62.096 71.1476 62.096L69.2307 62.0789V37.2851V12.4742L73.9873 12.5429C77.9807 12.6117 78.8504 12.6632 79.5781 12.921Z" fill="currentColor" stroke="currentColor" stroke-width="0.8" stroke-linejoin="round"/>
<path d="M56.2574 21.0652L55.654 21.3573L55.6007 26.2713C55.5652 31.0308 55.5652 31.2026 55.9379 31.6321C56.4171 32.2335 57.1981 32.2507 57.7838 31.6665L58.2275 31.2541V26.4603C58.2275 21.7181 58.2275 21.6665 57.837 21.3229C57.2336 20.8074 56.9141 20.7559 56.2574 21.0652Z" fill="currentColor" stroke="currentColor" stroke-width="0.8" stroke-linejoin="round"/>
<path d="M45.1815 25.1375L44.7378 25.5498V36.9416V48.3504L45.2525 48.6425C45.9092 49.0205 46.4949 49.0034 47.0096 48.6254L47.4001 48.3333L47.3646 36.8728C47.3113 25.8935 47.2936 25.4124 46.9741 25.0687C46.5126 24.5705 45.714 24.6048 45.1815 25.1375Z" fill="currentColor" stroke="currentColor" stroke-width="0.8" stroke-linejoin="round"/>
<path d="M46.8315 74.3468C41.9684 75.8588 39.5901 81.1337 41.7909 85.4464C42.5896 86.9928 44.0982 88.4361 45.7133 89.1578C47.2929 89.8794 48.8725 90.034 53.8244 89.9653C57.871 89.9138 57.9065 89.9138 58.2437 89.5014C58.6875 88.9859 58.6697 88.1956 58.226 87.766C57.8888 87.4395 57.6225 87.4224 54.3746 87.4224C49.8487 87.4052 47.6656 87.2162 46.7427 86.7694C45.6601 86.2196 44.9501 85.5839 44.3822 84.6045C43.903 83.7969 43.8497 83.5908 43.8497 82.0444C43.8497 80.0856 44.0805 79.5186 45.3051 78.3159C46.1925 77.4568 47.4882 76.821 48.6951 76.6664C49.3163 76.5805 49.6357 76.443 49.831 76.1337C50.2569 75.5152 50.1682 74.8623 49.6357 74.4155C49.05 73.9344 48.2513 73.9173 46.8315 74.3468Z" fill="currentColor" stroke="currentColor" stroke-width="0.8" stroke-linejoin="round"/>
</svg>
