<svg width="102" height="101" viewBox="0 0 102 101" fill="none" xmlns="http://www.w3.org/2000/svg">
<path d="M84.5939 82.8662L82.1158 85.2899C81.5187 85.8849 80.7986 86.3589 79.9998 86.6829C79.201 87.0068 78.3403 87.1739 77.4704 87.1739C76.6005 87.1739 75.7397 87.0068 74.941 86.6829C74.1421 86.3589 73.4221 85.8849 72.825 85.2899C71.9047 84.3794 70.7976 83.654 69.5706 83.1575C68.3435 82.6611 67.0222 82.404 65.6866 82.4019C64.3509 82.404 63.0295 82.6611 61.8026 83.1575C60.5756 83.654 59.4684 84.3794 58.5482 85.2899C57.951 85.8849 57.231 86.3589 56.4322 86.6829C55.6334 87.0068 54.7727 87.1739 53.9028 87.1739C53.0329 87.1739 52.1721 87.0068 51.3734 86.6829C50.5745 86.3589 49.8545 85.8849 49.2574 85.2899C48.3837 84.4238 47.3319 83.7342 46.1657 83.2629C44.9996 82.7916 43.7436 82.5485 42.4744 82.5485C41.2051 82.5485 39.9492 82.7916 38.783 83.2629C37.6169 83.7342 36.565 84.4238 35.6914 85.2899C35.0939 85.8907 34.3714 86.3698 33.5689 86.6973C32.7665 87.0247 31.901 87.1937 31.0263 87.1937C30.1515 87.1937 29.2861 87.0247 28.4836 86.6973C27.6811 86.3698 26.9587 85.8907 26.3611 85.2899C26.3611 85.2899 24.8406 83.8969 23.8138 82.9033C23.5385 82.65 23.1691 82.5075 22.784 82.506C22.3989 82.5046 22.0282 82.6444 21.7508 82.8956C21.4734 83.1469 21.3109 83.4899 21.298 83.852C21.2849 84.214 21.4224 84.5665 21.6811 84.8349C22.7179 85.8471 24.2581 87.2586 24.2581 87.2586C25.1317 88.1247 26.1836 88.8143 27.3497 89.2856C28.5159 89.7569 29.7718 90 31.041 90C32.3103 90 33.5663 89.7569 34.7324 89.2856C35.8986 88.8143 36.9504 88.1247 37.8241 87.2586C38.4212 86.6637 39.1412 86.1896 39.94 85.8657C40.7388 85.5417 41.5996 85.3745 42.4695 85.3745C43.3394 85.3745 44.2001 85.5417 44.9989 85.8657C45.7977 86.1896 46.5177 86.6637 47.1149 87.2586C47.9884 88.1247 49.0404 88.8143 50.2065 89.2856C51.3726 89.7569 52.6286 90 53.8978 90C55.167 90 56.423 89.7569 57.5891 89.2856C58.7553 88.8143 59.8072 88.1247 60.6808 87.2586C61.3263 86.6208 62.1029 86.113 62.9633 85.7661C63.8239 85.4191 64.7503 85.2402 65.6866 85.2402C66.6228 85.2402 67.5492 85.4191 68.4097 85.7661C69.2702 86.113 70.0468 86.6208 70.6923 87.2586C71.5659 88.1247 72.6179 88.8143 73.7839 89.2856C74.9501 89.7569 76.2061 90 77.4753 90C78.7445 90 80.0005 89.7569 81.1666 89.2856C82.3328 88.8143 83.3847 88.1247 84.2583 87.2586L86.7364 84.8349C86.9952 84.5665 87.1327 84.214 87.1197 83.852C87.1066 83.4899 86.9442 83.1469 86.6668 82.8956C86.3894 82.6444 86.0188 82.5046 85.6337 82.506C85.2485 82.5075 84.8791 82.65 84.6038 82.9033L84.5939 82.8662Z" fill="currentColor"/>
<path d="M87.6246 28.7586C87.5456 28.6286 79.1829 16.2405 61.954 22.0724C60.6409 17.0948 56.03 10 45.1693 10H44.7645C44.4944 10.0089 44.232 10.0871 44.0057 10.2262C43.7794 10.3654 43.598 10.5601 43.481 10.7893C43.481 10.8729 40.3117 17.6149 45.7815 23.1868C43.5706 23.1491 41.3745 23.5312 39.3244 24.3104C35.2763 25.8984 32.2254 29.0651 30.231 33.7455C30.152 33.9204 30.112 34.1087 30.1133 34.2988C30.1147 34.4889 30.1573 34.6767 30.2387 34.8507C30.3201 35.0247 30.4385 35.1812 30.5866 35.3105C30.7347 35.4398 30.9093 35.5393 31.0999 35.6027C31.4948 35.742 39.2059 38.3237 46.7194 37.0236C41.7828 43.6355 39.5218 50.9532 39.3638 60.5833H39.2256C30.7853 60.5826 22.4781 62.5615 15.0557 66.3408C14.8454 66.4002 14.6517 66.5027 14.4887 66.6412C14.3256 66.7795 14.1974 66.9503 14.1132 67.1411C14.029 67.3319 13.9909 67.5379 14.0018 67.7441C14.0127 67.9505 14.0722 68.1518 14.1761 68.3339C14.2799 68.5159 14.4255 68.6739 14.6022 68.7965C14.779 68.919 14.9826 69.0031 15.1981 69.0425C15.4137 69.082 15.6359 69.0758 15.8486 69.0246C16.0613 68.9733 16.2593 68.8782 16.4281 68.7461C26.2406 63.752 37.6022 62.1462 48.5419 64.2072C59.4815 66.2681 69.3091 71.8658 76.3197 80.0291C76.5671 80.316 76.9257 80.4987 77.3163 80.537C77.707 80.5753 78.0979 80.4661 78.4029 80.2334C78.708 80.0007 78.9022 79.6635 78.943 79.296C78.9837 78.9285 78.8676 78.5609 78.6202 78.2739C71.9553 70.4916 62.8519 64.883 52.604 62.2455C52.604 59.5896 52.9988 49.0495 56.4052 40.6638C58.0935 44.6013 61.717 49.3003 69.4281 51.8076C69.7571 51.9142 70.1157 51.9084 70.4406 51.7912C70.7656 51.6741 71.0363 51.453 71.2053 51.1668C71.2744 51.0554 76.527 41.8804 70.2969 33.8383C75.2336 34.767 82.145 34.8413 87.3382 30.5416C87.603 30.3246 87.7771 30.0262 87.8296 29.6996C87.882 29.373 87.8094 29.0395 87.6246 28.7586ZM65.4886 29.4644C65.1686 29.2698 64.7811 29.1989 64.4068 29.2661C64.0325 29.3334 63.7002 29.5337 63.479 29.8256C63.2577 30.1174 63.1646 30.4781 63.2189 30.8329C63.2732 31.1876 63.4708 31.5091 63.7706 31.7302C72.8542 37.6551 70.4352 45.7807 69.1615 48.6966C61.5689 45.7993 58.9821 40.4502 58.1626 36.3828C58.1067 36.0985 57.9581 35.8377 57.7374 35.6363C57.5168 35.4351 57.235 35.3034 56.9311 35.2595C56.6274 35.2156 56.3165 35.2617 56.0419 35.3914C55.7671 35.5212 55.5422 35.728 55.3981 35.9834C50.4614 44.7685 49.7506 57.4259 49.6617 61.549C47.2339 61.0709 44.7722 60.7606 42.2962 60.6204C42.4937 49.8946 45.3865 42.2426 51.9622 35.1755C52.1887 34.9327 52.3184 34.6233 52.3291 34.3004C52.3397 33.9775 52.2308 33.6611 52.0208 33.4055C51.8108 33.1497 51.5128 32.9707 51.1779 32.8989C50.843 32.8271 50.492 32.867 50.185 33.0118C44.4288 35.7234 36.8066 34.2191 33.5978 33.3833C34.9285 30.4971 37.3534 28.1799 40.4005 26.8828C45.7815 24.7654 51.5672 26.9942 51.6166 27.0128C51.9708 27.1381 52.3626 27.1311 52.7115 26.9933C53.0603 26.8555 53.3399 26.5973 53.4927 26.2717C53.6456 25.9461 53.6602 25.5778 53.5334 25.2424C53.4068 24.9071 53.1483 24.6301 52.8113 24.4682C44.3301 20.8094 45.1693 14.9311 45.8308 12.7488C57.8368 13.1388 59.2783 23.679 59.377 24.1432C59.4036 24.3578 59.4827 24.5635 59.6084 24.7443C59.7339 24.9251 59.9025 25.0759 60.1007 25.1849C60.299 25.2939 60.5214 25.358 60.7505 25.3723C60.9796 25.3865 61.2091 25.3504 61.4209 25.2669C74.6807 20.0108 81.987 26.5763 84.327 29.2229C77.228 33.8662 66.7228 30.198 65.4886 29.4644Z" fill="currentColor"/>
</svg>
