<svg width="102" height="101" viewBox="0 0 102 101" fill="none" xmlns="http://www.w3.org/2000/svg">
<path d="M16.5 43.3333V56.6665" stroke="currentColor" stroke-width="4.5" stroke-miterlimit="10" stroke-linecap="round" stroke-linejoin="round"/>
<path d="M28.1665 36.6666V63.3333" stroke="currentColor" stroke-width="4.5" stroke-miterlimit="10" stroke-linecap="round" stroke-linejoin="round"/>
<path d="M39.8333 20V80" stroke="currentColor" stroke-width="4.5" stroke-miterlimit="10" stroke-linecap="round" stroke-linejoin="round"/>
<path d="M51.5 43.3333V56.6665" stroke="currentColor" stroke-width="4.5" stroke-miterlimit="10" stroke-linecap="round" stroke-linejoin="round"/>
<path d="M63.1665 30V70" stroke="currentColor" stroke-width="4.5" stroke-miterlimit="10" stroke-linecap="round" stroke-linejoin="round"/>
<path d="M74.8333 20V80" stroke="currentColor" stroke-width="4.5" stroke-miterlimit="10" stroke-linecap="round" stroke-linejoin="round"/>
<path d="M86.5 43.3333V56.6665" stroke="currentColor" stroke-width="4.5" stroke-miterlimit="10" stroke-linecap="round" stroke-linejoin="round"/>
<path d="M83.7884 30.108C83.4924 30.108 83.2524 30.04 83.0684 29.904C82.8844 29.76 82.7404 29.54 82.6364 29.244L80.2964 22.728C80.1684 22.368 80.1884 22.064 80.3564 21.816C80.5324 21.56 80.8404 21.432 81.2804 21.432C81.5764 21.432 81.8084 21.504 81.9764 21.648C82.1444 21.784 82.2764 22 82.3724 22.296L84.1604 27.66H83.5964L85.5164 22.296C85.6284 22 85.7684 21.784 85.9364 21.648C86.1044 21.504 86.3204 21.432 86.5844 21.432C86.8484 21.432 87.0604 21.504 87.2204 21.648C87.3804 21.784 87.5124 22.004 87.6164 22.308L89.4164 27.66H88.9364L90.7724 22.296C90.8684 22 90.9964 21.784 91.1564 21.648C91.3244 21.504 91.5564 21.432 91.8524 21.432C92.2204 21.432 92.4884 21.56 92.6564 21.816C92.8324 22.064 92.8524 22.368 92.7164 22.728L90.3524 29.256C90.2484 29.544 90.1044 29.76 89.9204 29.904C89.7444 30.04 89.5084 30.108 89.2124 30.108C88.9084 30.108 88.6644 30.04 88.4804 29.904C88.3044 29.76 88.1644 29.54 88.0604 29.244L86.3684 24.492H86.6684L84.9404 29.256C84.8284 29.544 84.6844 29.76 84.5084 29.904C84.3324 30.04 84.0924 30.108 83.7884 30.108Z" fill="currentColor"/>
</svg>
